<svg width="80" height="81" viewBox="0 0 80 81" fill="none" xmlns="http://www.w3.org/2000/svg">
<rect y="0.5" width="80" height="80" rx="40" fill="#FFFEE0"/>
<path fill-rule="evenodd" clip-rule="evenodd" d="M30.8884 59.0771C31.5626 59.0771 32.0552 59.2063 32.3664 59.4648C32.6776 59.7233 32.8333 60.1253 32.8337 60.6708V63.5947H31.8224V60.7945C31.8224 60.1779 31.4404 59.8697 30.6765 59.8697C30.3466 59.8672 30.0226 59.9497 29.7425 60.1075C29.791 60.292 29.8138 60.4812 29.8103 60.6708V63.5947H28.799V60.7945C28.799 60.1779 28.4171 59.8697 27.6532 59.8697C27.3046 59.8699 26.9589 59.9267 26.6324 60.0371V63.5947H25.6217V59.5352C25.9563 59.3846 26.3106 59.2727 26.6761 59.2022C27.0659 59.1199 27.4647 59.0772 27.865 59.0747C28.4958 59.0747 28.9644 59.1857 29.271 59.4077C29.776 59.1894 30.3287 59.0764 30.8884 59.0771ZM36.2986 63.7289C35.5276 63.7289 34.9482 63.5292 34.5603 63.1299C34.1724 62.7306 33.9783 62.1494 33.978 61.3863C33.978 59.8421 34.7489 59.0701 36.2907 59.0704C37.0675 59.0704 37.6517 59.2685 38.0431 59.6646C38.4345 60.0607 38.6304 60.6347 38.6307 61.3863C38.6307 62.1374 38.4285 62.7155 38.0242 63.1209C37.6198 63.5262 37.0446 63.7289 36.2986 63.7289ZM36.2886 62.9448C37.1748 62.9448 37.6177 62.4253 37.6173 61.3863C37.6173 60.8697 37.5122 60.4837 37.302 60.2284C37.0917 59.9731 36.7546 59.8452 36.2907 59.8449C35.8222 59.8449 35.4868 59.9756 35.2846 60.2369C35.0825 60.4983 34.9814 60.8814 34.9814 61.3863C34.9814 61.8909 35.0856 62.2769 35.2941 62.5443C35.5026 62.8116 35.8341 62.9445 36.2886 62.9429V62.9448ZM42.0068 59.079C42.7258 59.079 43.2714 59.2756 43.6435 59.6689C44.0157 60.0622 44.2023 60.6193 44.2033 61.3402C44.2033 62.2092 43.9803 62.8242 43.5342 63.1851C43.0881 63.546 42.5212 63.7273 41.8333 63.7289C40.453 63.7289 39.7629 63.3943 39.7629 62.7251V57.4039H40.7647V59.3521C40.9662 59.2649 41.1777 59.1984 41.3955 59.1537C41.5954 59.1072 41.8005 59.0815 42.0068 59.0771V59.079ZM41.7561 62.9272C42.2817 62.9272 42.6496 62.7893 42.8598 62.5133C43.0701 62.2374 43.1752 61.8587 43.1752 61.3773C43.1752 60.8844 43.0645 60.5087 42.843 60.2503C42.6216 59.9918 42.2927 59.8627 41.8564 59.863C41.6664 59.8642 41.4772 59.8862 41.293 59.9287C41.1086 59.969 40.9316 60.033 40.7674 60.1189V62.4976C40.7656 62.7831 41.0952 62.9257 41.7561 62.9253V62.9272ZM45.346 57.6346H46.4246V58.4715H45.346V57.6346ZM45.3749 59.2022H46.3862L46.3957 63.5966H45.3749V59.2022ZM47.8191 63.5966V57.501H48.8209V63.5947L47.8191 63.5966ZM52.2085 59.0666C52.9598 59.0666 53.5103 59.2886 53.86 59.7326C54.2097 60.1767 54.3814 60.7975 54.3751 61.5952H50.9838C51.0164 62.0297 51.1566 62.36 51.4043 62.5861C51.652 62.8123 52.0035 62.9252 52.4587 62.9249C53.004 62.9254 53.5406 62.8012 54.0187 62.5638V63.4268C53.518 63.6282 52.9444 63.7289 52.2979 63.7289C51.5725 63.7289 51.0027 63.5278 50.5885 63.1256C50.1744 62.7235 49.9674 62.1526 49.9678 61.413C49.9678 60.6556 50.1635 60.076 50.5549 59.6741C50.9463 59.2723 51.4975 59.0698 52.2085 59.0666ZM52.1796 59.8278C51.8393 59.8278 51.573 59.9101 51.3806 60.0747C51.1883 60.2393 51.063 60.5181 51.0048 60.9111H53.3449C53.2997 60.5352 53.184 60.2609 52.998 60.088C52.8119 59.9152 52.5391 59.8284 52.1796 59.8278ZM42.5214 23.5983C41.406 23.3487 40.5475 23.2237 39.9458 23.2234C35.4576 23.2234 31.8187 26.506 31.8187 30.5541C31.8187 34.6022 35.4591 37.8852 39.9458 37.8852C44.4325 37.8852 48.0735 34.6026 48.0735 30.5541C48.0738 29.9627 47.9951 29.3734 47.839 28.7991L54.3005 27.2239C54.8239 29.0249 54.9228 30.9055 54.591 32.7434C54.2591 34.5813 53.5038 36.3354 52.3741 37.8919L41.6746 55.8459H31.7625L38.8058 44.0951C38.8441 44.0304 38.7311 43.8877 38.6365 43.88C31.1102 43.2616 25.2148 37.5527 25.2148 30.6026C25.2148 23.2386 31.8324 17.2695 39.9963 17.2695C41.4907 17.2681 42.9768 17.4713 44.4041 17.8723L42.5214 23.5983Z" fill="#006E53"/>
<path d="M39.9702 34.3724C42.4305 34.3724 44.4249 32.5672 44.4249 30.3405C44.4249 28.1137 42.4305 26.3086 39.9702 26.3086C37.51 26.3086 35.5156 28.1137 35.5156 30.3405C35.5156 32.5672 37.51 34.3724 39.9702 34.3724Z" fill="#D6E806"/>
</svg>
