<svg width="80" height="81" viewBox="0 0 80 81" fill="none" xmlns="http://www.w3.org/2000/svg">
<rect y="0.5" width="80" height="80" rx="40" fill="white"/>
<path d="M45.5902 20.5C47.1598 20.5189 48.6574 20.7764 50.0559 21.3915C51.2888 21.9373 52.2942 22.7005 52.9804 23.7523C53.4263 24.4467 53.7188 25.2068 53.843 25.9938C54.0981 27.5046 53.8401 28.9661 53.2639 30.3952C52.9253 31.2334 52.4568 32.0195 51.9494 32.7917C50.9156 34.3635 49.5873 35.7258 48.0423 36.9335C46.0602 38.4844 43.8865 39.8419 41.5607 40.9814C40.6597 41.4214 39.7255 41.7909 38.7207 42.0168C38.1051 42.1606 37.4695 42.2302 36.8319 42.2235C35.9925 42.2087 35.3357 41.8782 34.825 41.3213C34.3534 40.8215 34.1104 40.1894 34.1421 39.5449C34.1477 39.3656 34.1776 39.1875 34.2313 39.0142C34.5352 38.0805 34.9483 37.1861 35.5657 36.3704C36.0376 35.7475 36.6 35.1943 37.3355 34.7986C38.1535 34.3582 39.0427 34.17 40.0044 34.3516C40.305 34.4126 40.588 34.5263 40.8357 34.6858C41.4688 35.0771 41.4356 35.6909 41.1316 36.083C40.8712 36.4237 40.58 36.746 40.2609 37.0471C39.7203 37.5507 39.146 38.0268 38.5855 38.5139C38.0895 38.9449 37.6233 39.3972 37.2454 39.9127C37.0495 40.1801 36.8689 40.4528 36.8148 40.7739C36.7465 41.1766 36.9884 41.4509 37.4583 41.4886C37.7015 41.5058 37.9462 41.4845 38.1805 41.4259C38.9028 41.2533 39.5733 40.9748 40.232 40.6746C41.2478 40.21 42.1853 39.6421 43.0991 39.0429C44.2069 38.3167 45.2838 37.5593 46.2764 36.717C47.4069 35.7586 48.4146 34.717 49.1857 33.5151C49.749 32.6375 50.164 31.7107 50.3484 30.7167C50.5116 29.8412 50.4205 28.9882 49.9515 28.1845C49.7257 27.7872 49.3724 27.4545 48.9339 27.2261C48.7314 27.1207 48.508 27.0487 48.2752 27.0137C47.4278 26.8837 46.6078 26.9903 45.8021 27.2228C44.9623 27.4656 44.1832 27.8199 43.4258 28.207C41.7822 29.0501 40.1367 29.8928 38.5703 30.8422C37.785 31.3179 37.0239 31.8239 36.2543 32.3185C35.5591 32.7654 34.8686 33.2178 34.1089 33.5831C33.4924 33.8867 32.8251 34.1057 32.131 34.2323C31.2707 34.3832 30.4778 34.243 29.7494 33.8386C28.9935 33.4191 28.4643 32.8434 28.2319 32.0814C28.084 31.6004 28.1423 31.1235 28.2699 30.6486C28.4563 29.9515 28.81 29.32 29.251 28.7213C30.3417 27.2425 31.7132 25.9881 33.308 24.9157C35.6715 23.3267 38.2721 22.103 41.0851 21.2176C42.5294 20.7608 44.0525 20.5182 45.5902 20.5Z" fill="#E20010"/>
<path d="M26.1464 54.3063C26.1384 53.842 26.0772 53.4246 25.7671 53.0625C25.616 52.8875 25.407 52.7565 25.1677 52.6869C24.5512 52.4958 23.9233 52.5183 23.3111 52.6819C22.8203 52.8132 22.347 52.992 21.8666 53.1515C21.7718 53.1818 21.6855 53.2208 21.5707 53.2651C21.3445 52.7799 21.1221 52.3092 20.8893 51.8171C21.2264 51.6789 21.5442 51.5378 21.8719 51.4168C22.6268 51.1376 23.4097 50.9461 24.233 50.903C25.0562 50.86 25.8685 50.8977 26.6178 51.243C27.4652 51.6309 28.077 52.1911 28.3331 53.0063C28.37 53.113 28.3921 53.2231 28.399 53.3344C28.4317 54.3928 28.4758 55.4512 28.481 56.5096C28.4843 57.233 28.4293 57.9568 28.4047 58.6806C28.4003 58.7798 28.3525 58.8739 28.2709 58.9438C27.6853 59.5015 26.9687 59.887 26.1569 60.1458C25.2863 60.4205 24.3592 60.5357 23.4344 60.4841C22.5808 60.4431 21.8439 60.1409 21.2208 59.6393C20.5976 59.1378 20.1623 58.5321 20.0409 57.7899C19.8749 56.7733 20.214 55.8912 21.059 55.1654C21.6025 54.6987 22.2721 54.4576 23.0266 54.3723C23.8612 54.2784 24.6987 54.3034 25.5361 54.3054L26.1464 54.3063ZM26.0369 55.9589C25.9877 55.9505 25.938 55.9446 25.888 55.9412C25.6035 55.9363 25.3156 55.9277 25.0297 55.9314C24.6868 55.9359 24.3425 55.9371 24.0016 55.965C23.6492 55.9941 23.3073 56.0831 23.0342 56.2865C22.5808 56.6244 22.4461 57.0657 22.5566 57.5631C22.6941 58.1782 23.0915 58.608 23.8 58.7909C24.1653 58.8854 24.5521 58.8995 24.9253 58.8319C25.2722 58.777 25.5958 58.6427 25.8624 58.4431C25.9075 58.4129 25.9446 58.3746 25.9712 58.3309C25.9978 58.2871 26.0132 58.239 26.0165 58.1897C26.0274 57.9736 26.0597 57.7579 26.0616 57.5418C26.0653 57.0468 26.0568 56.5518 26.0521 56.0569C26.0492 56.024 26.0442 55.9913 26.0369 55.9589Z" fill="#E20010"/>
<path d="M54.6704 55.9212C52.636 55.9212 50.6396 55.8834 48.6152 55.9294C48.6256 56.0524 48.6318 56.1688 48.6446 56.2824C48.6967 56.747 48.8124 57.1985 49.0396 57.6246C49.2162 57.9722 49.4904 58.2761 49.8372 58.5087C50.3873 58.87 51.0152 58.9291 51.6738 58.8557C52.2182 58.795 52.7252 58.6228 53.2307 58.4493C53.4626 58.3701 53.6926 58.2853 53.942 58.1971C54.1791 58.626 54.4115 59.0476 54.6533 59.4815C54.6088 59.5093 54.567 59.5405 54.5206 59.5635C53.5342 60.0695 52.4748 60.3955 51.3305 60.4816C50.2872 60.56 49.2914 60.4119 48.3904 59.9129C47.7767 59.5729 47.3471 59.0927 46.9876 58.5555C46.5449 57.8871 46.2769 57.143 46.2023 56.3755C46.0519 54.9761 46.3955 53.6731 47.2333 52.4667C47.8175 51.628 48.6896 51.1724 49.7813 51.0154C50.7847 50.8628 51.8183 51.0116 52.7105 51.4369C53.2103 51.6711 53.5584 52.0398 53.8453 52.4531C54.2247 52.9981 54.4243 53.5989 54.5201 54.2214C54.5979 54.7233 54.6225 55.2314 54.669 55.7387C54.6747 55.7907 54.6704 55.8449 54.6704 55.9212ZM52.2045 54.328C52.0864 53.8601 52.0058 53.3819 51.6516 52.9854C51.4739 52.7883 51.2244 52.649 50.9436 52.5901C50.1967 52.4191 49.446 52.7168 49.1249 53.3282C49.0102 53.546 48.9428 53.7826 48.8594 54.0118C48.8219 54.1156 48.7977 54.2234 48.7678 54.328C48.9684 54.3739 51.9992 54.376 52.2054 54.3292L52.2045 54.328Z" fill="#E20010"/>
<path d="M41.3251 48.772L43.7526 48.4473V51.0254C44.2913 51.0533 44.8044 51.023 45.3204 51.071V52.6592C44.7987 52.6666 44.288 52.653 43.7554 52.6809C43.7554 52.7703 43.7554 52.8372 43.7554 52.904C43.751 54.4328 43.7472 55.9617 43.7441 57.4907C43.7441 57.7314 43.7663 57.9726 43.7915 58.2125C43.8313 58.5815 44.0679 58.8157 44.4815 58.9055C44.7096 58.9555 44.9438 58.9838 45.1752 59.022L45.4076 59.063V60.4109C45.3815 60.4221 45.3537 60.4301 45.3251 60.4347C44.6361 60.4613 43.9499 60.4458 43.2836 60.2707C42.633 60.1009 42.0905 59.7933 41.7225 59.2865C41.5133 58.9994 41.4071 58.6767 41.3611 58.3433C41.3333 58.1345 41.3197 57.9244 41.3203 57.7142C41.3203 54.8109 41.3222 51.9078 41.326 49.005L41.3251 48.772Z" fill="#E20010"/>
<path d="M56.0036 48.7757L58.3509 48.4238V48.7039C58.3509 51.3407 58.3522 53.9775 58.3547 56.6143C58.3547 57.097 58.3595 57.5797 58.3637 58.0627C58.3675 58.5392 58.5686 58.782 59.095 58.9239C59.2739 58.9667 59.4555 59.0003 59.6389 59.0248C59.7508 59.0428 59.8642 59.0514 60.0003 59.0658V60.4428C59.9876 60.4519 59.9727 60.4582 59.9566 60.4613C59.2899 60.4847 58.626 60.4752 57.9777 60.3112C57.5849 60.2134 57.2192 60.0477 56.9027 59.824C56.3132 59.407 56.0733 58.848 56.0116 58.2177C55.9936 58.0332 55.996 57.8466 55.9965 57.6613C55.9965 54.7768 55.9988 51.8925 56.0036 49.0086V48.7757Z" fill="#E20010"/>
<path d="M36.6058 60.3195H34.2347C34.2318 60.2338 34.2271 60.1555 34.2266 60.078C34.2241 58.8461 34.222 57.6142 34.2204 56.3824C34.2176 55.3982 34.2105 54.414 34.211 53.4298C34.2117 53.2513 34.2276 53.0732 34.2584 52.8967C34.2935 52.6953 34.4153 52.5276 34.5846 52.3861C35.516 51.6021 36.6318 51.1321 37.9042 50.9295C38.7015 50.8031 39.5187 50.8021 40.3165 50.9267C40.3587 50.9332 40.4009 50.9414 40.4422 50.9505C40.4626 50.955 40.482 50.9636 40.5214 50.9767C40.252 51.5689 39.9238 52.1348 39.6147 52.6941C39.2452 52.6941 38.8953 52.6847 38.5462 52.6962C37.9435 52.7135 37.3518 52.8409 36.8101 53.0702C36.6565 53.1354 36.5991 53.2165 36.5996 53.3695C36.6062 55.6113 36.6078 57.853 36.6043 60.0948L36.6058 60.3195Z" fill="#E20010"/>
<path d="M32.4811 51.1133C32.5062 54.1856 32.4787 57.2399 32.5015 60.313H30.1811C30.1754 60.2388 30.1641 60.1613 30.1641 60.0838C30.1641 58.1523 30.1641 56.2205 30.1641 54.2885C30.1641 53.4032 30.1726 52.5178 30.1769 51.6324C30.1769 51.5652 30.1769 51.4979 30.1769 51.4135L32.4811 51.1133Z" fill="#E20010"/>
<path d="M31.2304 50.207C30.0975 50.2045 29.3881 49.2293 29.858 48.3087C30.1468 47.744 30.6428 47.5296 31.3584 47.5332C32.3173 47.5402 33.0282 48.3649 32.7996 49.1707C32.617 49.8145 32.0195 50.2086 31.2304 50.207Z" fill="#E20010"/>
</svg>
