<svg width="80" height="80" viewBox="0 0 80 80" fill="none" xmlns="http://www.w3.org/2000/svg">
<rect width="80" height="80" rx="40" fill="#5B45FF" fill-opacity="0.25"/>
<path fill-rule="evenodd" clip-rule="evenodd" d="M37.0559 27.7088L36.612 26.666H34.5C33.1193 26.666 32 27.7853 32 29.166V50.8327C32 52.2134 33.1193 53.3327 34.5 53.3327H45.5C46.8807 53.3327 48 52.2134 48 50.8327V29.166C48 27.7853 46.8807 26.666 45.5 26.666H43.388L42.9441 27.7088C42.7557 28.1515 42.3211 28.4388 41.84 28.4388H38.16C37.6789 28.4388 37.2443 28.1515 37.0559 27.7088ZM36 48.5827C35.5858 48.5827 35.25 48.9185 35.25 49.3327C35.25 49.7469 35.5858 50.0827 36 50.0827H44C44.4142 50.0827 44.75 49.7469 44.75 49.3327C44.75 48.9185 44.4142 48.5827 44 48.5827H36Z" fill="#5B45FF"/>
</svg>
