<svg width="60" height="61" viewBox="0 0 60 61" fill="none" xmlns="http://www.w3.org/2000/svg">
<path fill-rule="evenodd" clip-rule="evenodd" d="M27.041 60.1836H5.75805C2.59094 60.1836 0 57.5928 0 54.427V38.1307L0.12233 38.2396L8.5961 45.7614L14.3823 50.8979C15.8625 52.2117 18.1415 52.0759 19.4553 50.5957L41.4942 25.7697C42.808 24.2895 45.087 24.1538 46.5672 25.4675L49.6658 28.2186C51.146 29.5324 51.2818 31.8114 49.968 33.2927L27.9291 58.1188C27.3994 58.7157 27.1046 59.4436 27.0397 60.1836H27.041Z" fill="#E1AFFD"/>
<path fill-rule="evenodd" clip-rule="evenodd" d="M59.9978 39.0596V54.4262C59.9978 57.5932 57.4068 60.1828 54.2397 60.1828H41.2446L59.9965 39.0596H59.9978Z" fill="#E1AFFD"/>
<path fill-rule="evenodd" clip-rule="evenodd" d="M32.9571 0.184817H54.2412C57.4071 0.184817 59.9993 2.77568 59.9993 5.9427V22.239L59.8769 22.1301L51.4032 14.607L45.617 9.47058C44.1368 8.1568 41.8578 8.29136 40.544 9.7715L18.5051 34.5976C17.1912 36.0777 14.9122 36.2135 13.4308 34.8997L10.3322 32.1486C8.85202 30.8348 8.71624 28.5559 10.0301 27.0757L32.069 2.24968C32.5986 1.65273 32.8935 0.924889 32.9583 0.183594L32.9571 0.184817Z" fill="#E1AFFD"/>
<path fill-rule="evenodd" clip-rule="evenodd" d="M5.75683 0.183594H18.7519L0 21.3081V5.94148C0 2.77446 2.59094 0.183594 5.75805 0.183594L5.75683 0.183594Z" fill="#E1AFFD"/>
</svg>
