<svg width="28" height="28" viewBox="0 0 28 28" fill="none" xmlns="http://www.w3.org/2000/svg">
<path d="M25.0066 3.01199C24.4231 2.41304 23.5594 2.1899 22.754 2.42478L3.97469 7.88579C3.12501 8.12184 2.52277 8.79948 2.36053 9.66032C2.1948 10.5364 2.7737 11.6486 3.53001 12.1137L9.40192 15.7226C10.0042 16.0926 10.7815 15.9998 11.2799 15.4971L18.0038 8.73136C18.3422 8.37904 18.9025 8.37904 19.2409 8.73136C19.5794 9.07194 19.5794 9.62391 19.2409 9.97623L12.5054 16.7432C12.0058 17.2447 11.9124 18.0256 12.2801 18.6316L15.8679 24.5624C16.2881 25.267 17.0117 25.6663 17.8054 25.6663C17.8987 25.6663 18.0038 25.6663 18.0971 25.6546C19.0075 25.5372 19.7311 24.9147 19.9996 24.0339L25.5669 5.2786C25.812 4.48 25.5902 3.61094 25.0066 3.01199Z" fill="white"/>
</svg>
