<svg width="17" height="16" viewBox="0 0 17 16" fill="none" xmlns="http://www.w3.org/2000/svg">
<path d="M6.974 15.816C5.642 15.816 4.478 15.558 3.482 15.042C2.486 14.538 1.712 13.818 1.16 12.882C0.608 11.958 0.332 10.86 0.332 9.588C0.332 8.256 0.566 7.02 1.034 5.88C1.502 4.74 2.156 3.75 2.996 2.91C3.848 2.058 4.844 1.398 5.984 0.93C7.124 0.461999 8.372 0.227999 9.728 0.227999C11.12 0.227999 12.32 0.491999 13.328 1.02C14.348 1.536 15.134 2.262 15.686 3.198C16.238 4.134 16.514 5.214 16.514 6.438C16.514 7.158 16.418 7.86 16.226 8.544C16.046 9.216 15.776 9.822 15.416 10.362C15.068 10.89 14.63 11.31 14.102 11.622C13.586 11.934 12.992 12.09 12.32 12.09C11.696 12.09 11.198 11.952 10.826 11.676C10.454 11.4 10.22 11.022 10.124 10.542C9.776 11.034 9.326 11.424 8.774 11.712C8.234 11.988 7.652 12.126 7.028 12.126C6.116 12.126 5.408 11.856 4.904 11.316C4.4 10.764 4.148 10.02 4.148 9.084C4.148 8.436 4.25 7.812 4.454 7.212C4.658 6.6 4.946 6.06 5.318 5.592C5.702 5.112 6.152 4.734 6.668 4.458C7.196 4.182 7.772 4.044 8.396 4.044C9.512 4.044 10.244 4.47 10.592 5.322L10.79 4.206H12.68L11.834 9.03C11.762 9.498 11.774 9.876 11.87 10.164C11.978 10.44 12.236 10.578 12.644 10.578C12.992 10.578 13.292 10.458 13.544 10.218C13.808 9.966 14.024 9.642 14.192 9.246C14.372 8.838 14.504 8.4 14.588 7.932C14.684 7.452 14.732 6.984 14.732 6.528C14.732 5.064 14.27 3.912 13.346 3.072C12.422 2.22 11.138 1.794 9.494 1.794C8.426 1.794 7.442 1.992 6.542 2.388C5.654 2.772 4.874 3.312 4.202 4.008C3.542 4.704 3.026 5.514 2.654 6.438C2.294 7.35 2.114 8.334 2.114 9.39C2.114 10.926 2.57 12.114 3.482 12.954C4.394 13.806 5.654 14.232 7.262 14.232C7.802 14.232 8.336 14.178 8.864 14.07C9.404 13.962 9.896 13.806 10.34 13.602L10.718 15.096C9.59 15.576 8.342 15.816 6.974 15.816ZM7.748 10.434C8.18 10.434 8.576 10.314 8.936 10.074C9.296 9.834 9.59 9.51 9.818 9.102C10.046 8.682 10.172 8.214 10.196 7.698C10.232 7.146 10.112 6.678 9.836 6.294C9.572 5.91 9.152 5.718 8.576 5.718C8.096 5.718 7.676 5.862 7.316 6.15C6.956 6.438 6.674 6.81 6.47 7.266C6.266 7.71 6.164 8.19 6.164 8.706C6.164 9.222 6.296 9.642 6.56 9.966C6.836 10.278 7.232 10.434 7.748 10.434Z" fill="#5B45FF"/>
</svg>
