<svg width="18" height="23" viewBox="0 0 18 23" fill="none" xmlns="http://www.w3.org/2000/svg">
<path fill-rule="evenodd" clip-rule="evenodd" d="M8.09998 0.119141C4.70442 0.119141 2.07724 3.09517 2.49841 6.4645L2.57776 7.09935C2.69388 8.02831 2.35455 8.9562 1.66654 9.59109C0.240863 10.9067 -0.155232 13.0006 0.691418 14.7461L0.794769 14.9591C1.58394 16.5861 3.23324 17.6191 5.04147 17.6191H13.2623C14.822 17.6191 16.2736 16.8223 17.1111 15.5065C18.2932 13.6491 17.9801 11.2124 16.3668 9.7141L16.3229 9.67335C15.5844 8.98747 15.2208 7.98827 15.3458 6.98815L15.4104 6.47122C15.832 3.09832 13.202 0.119141 9.80289 0.119141H8.09998ZM3.98682 6.27845C3.67757 3.8044 5.60667 1.61914 8.09998 1.61914H9.80289C12.2998 1.61914 14.2317 3.80755 13.922 6.28517L13.8574 6.8021C13.6725 8.28088 14.2102 9.75833 15.3022 10.7725L15.3461 10.8132C16.4289 11.8189 16.6391 13.4544 15.8456 14.7011C15.2835 15.5843 14.3092 16.1191 13.2623 16.1191H5.04147C3.8079 16.1191 2.68275 15.4144 2.14438 14.3045L2.04102 14.0914C1.48294 12.9409 1.74404 11.5606 2.68379 10.6934C3.72755 9.73028 4.24234 8.32259 4.06618 6.9133L3.98682 6.27845Z" fill="#FAFAFA"/>
<path d="M6.78339 19.4191C6.53486 19.0878 6.06476 19.0206 5.73339 19.2691C5.40202 19.5177 5.33487 19.9878 5.58339 20.3191L5.88339 20.7191C7.53339 22.9191 10.8334 22.9191 12.4834 20.7191L12.7834 20.3191C13.0319 19.9878 12.9648 19.5177 12.6334 19.2691C12.302 19.0206 11.8319 19.0878 11.5834 19.4191L11.2834 19.8191C10.2334 21.2191 8.13339 21.2191 7.08339 19.8191L6.78339 19.4191Z" fill="#FAFAFA"/>
<path fill-rule="evenodd" clip-rule="evenodd" d="M8.09998 0.119141C4.70442 0.119141 2.07724 3.09517 2.49841 6.4645L2.57776 7.09935C2.69388 8.02831 2.35455 8.9562 1.66654 9.59109C0.240863 10.9067 -0.155232 13.0006 0.691418 14.7461L0.794769 14.9591C1.58394 16.5861 3.23324 17.6191 5.04147 17.6191H13.2623C14.822 17.6191 16.2736 16.8223 17.1111 15.5065C18.2932 13.6491 17.9801 11.2124 16.3668 9.7141L16.3229 9.67335C15.5844 8.98747 15.2208 7.98827 15.3458 6.98815L15.4104 6.47122C15.832 3.09832 13.202 0.119141 9.80289 0.119141H8.09998ZM3.98682 6.27845C3.67757 3.8044 5.60667 1.61914 8.09998 1.61914H9.80289C12.2998 1.61914 14.2317 3.80755 13.922 6.28517L13.8574 6.8021C13.6725 8.28088 14.2102 9.75833 15.3022 10.7725L15.3461 10.8132C16.4289 11.8189 16.6391 13.4544 15.8456 14.7011C15.2835 15.5843 14.3092 16.1191 13.2623 16.1191H5.04147C3.8079 16.1191 2.68275 15.4144 2.14438 14.3045L2.04102 14.0914C1.48294 12.9409 1.74404 11.5606 2.68379 10.6934C3.72755 9.73028 4.24234 8.32259 4.06618 6.9133L3.98682 6.27845Z" stroke="#FAFAFA"/>
<path d="M6.78339 19.4191C6.53486 19.0878 6.06476 19.0206 5.73339 19.2691C5.40202 19.5177 5.33487 19.9878 5.58339 20.3191L5.88339 20.7191C7.53339 22.9191 10.8334 22.9191 12.4834 20.7191L12.7834 20.3191C13.0319 19.9878 12.9648 19.5177 12.6334 19.2691C12.302 19.0206 11.8319 19.0878 11.5834 19.4191L11.2834 19.8191C10.2334 21.2191 8.13339 21.2191 7.08339 19.8191L6.78339 19.4191Z" stroke="#FAFAFA"/>
</svg>
