<svg width="56" height="56" viewBox="0 0 56 56" fill="none" xmlns="http://www.w3.org/2000/svg">
<rect width="56" height="56" rx="28" fill="white"/>
<path d="M29.2422 23.6043C29.2474 23.5955 29.2534 23.5955 29.2606 23.6043L29.2498 23.6131L29.2422 23.6043Z" fill="#0124DD"/>
<path d="M20.0545 26.677C20.1701 26.3274 20.2797 25.997 20.3869 25.6694C20.4001 25.6294 20.4269 25.6202 20.4617 25.6138C21.0405 25.5058 21.6217 25.4138 22.2129 25.443C22.6301 25.4626 23.0313 25.5478 23.3905 25.7718C23.8777 26.075 24.1005 26.5318 24.1321 27.0918C24.1505 27.4138 24.0981 27.7318 24.0521 28.047C23.9565 28.6894 23.8581 29.331 23.7657 29.9734C23.7632 30.0003 23.7535 30.0261 23.7376 30.048C23.7217 30.0699 23.7002 30.0871 23.6753 30.0978C23.2985 30.3046 22.8897 30.4178 22.4697 30.4866C21.95 30.5766 21.4198 30.5901 20.8961 30.5266C20.4597 30.4718 20.0529 30.3362 19.7361 30.0154C19.5986 29.8746 19.4919 29.7068 19.4227 29.5226C19.3535 29.3384 19.3234 29.1418 19.3342 28.9453C19.345 28.7489 19.3965 28.5568 19.4854 28.3813C19.5744 28.2058 19.6989 28.0506 19.8509 27.9258C20.1757 27.6586 20.5597 27.5258 20.9641 27.4398C21.5765 27.3102 22.1945 27.3278 22.8129 27.375C22.8901 27.3806 22.9069 27.357 22.9105 27.2882C22.9381 26.8058 22.6485 26.4594 22.1401 26.3662C21.7873 26.3014 21.4409 26.3574 21.0945 26.4142C20.7411 26.4723 20.3932 26.5602 20.0545 26.677ZM22.2177 28.1322C21.9976 28.1307 21.7777 28.1469 21.5601 28.1806C21.3249 28.2206 21.0965 28.2826 20.9069 28.4386C20.6925 28.615 20.6353 28.8518 20.6777 29.1126C20.7177 29.3506 20.8841 29.481 21.0997 29.5578C21.1986 29.5925 21.3014 29.6147 21.4057 29.6238C21.7913 29.661 22.1657 29.5938 22.5377 29.5018C22.563 29.4985 22.5861 29.486 22.6028 29.4667C22.6194 29.4475 22.6284 29.4228 22.6281 29.3974C22.6789 29.0194 22.7293 28.641 22.7853 28.2638C22.7949 28.1986 22.7733 28.1862 22.7189 28.1758C22.5532 28.1484 22.3857 28.1338 22.2177 28.1322Z" fill="#114185"/>
<path d="M37.9138 29.3111C37.8498 29.5055 37.7938 29.6795 37.7346 29.8535C37.6874 29.9963 37.637 30.1379 37.5922 30.2819C37.5879 30.3039 37.5771 30.3242 37.5613 30.3401C37.5455 30.3561 37.5254 30.367 37.5034 30.3715C36.8914 30.5347 36.2714 30.6231 35.6394 30.5435C34.9194 30.4527 34.3242 30.1435 33.9594 29.4831C33.735 29.0743 33.6638 28.6291 33.6942 28.1703C33.7522 27.2975 34.1158 26.5739 34.7918 26.0135C35.2026 25.6727 35.6818 25.4975 36.209 25.4455C36.5726 25.4099 36.9342 25.4167 37.289 25.5155C38.0114 25.7155 38.493 26.2775 38.5854 27.0215C38.6386 27.4491 38.5854 27.8691 38.5162 28.2895C38.5078 28.3419 38.4814 28.3435 38.4414 28.3435C38.2474 28.3435 38.053 28.3435 37.859 28.3435C36.9256 28.3435 35.9923 28.3435 35.059 28.3435C34.9838 28.3435 34.9618 28.3619 34.9606 28.4391C34.9502 29.0679 35.2974 29.4831 35.9154 29.5891C36.3722 29.6691 36.8166 29.5999 37.2602 29.5031C37.482 29.4534 37.7003 29.3893 37.9138 29.3111ZM36.2818 27.5271H37.1778C37.4514 27.5271 37.4514 27.5271 37.4606 27.2535C37.4794 26.6995 37.1406 26.3383 36.5898 26.3075C35.931 26.2703 35.3098 26.7475 35.1498 27.4555C35.1366 27.5143 35.1498 27.5287 35.2098 27.5283C35.5662 27.5255 35.9218 27.5271 36.2818 27.5271Z" fill="#114185"/>
<path d="M40.2119 30.5606C39.6245 30.5567 39.0415 30.4595 38.4847 30.2726C38.4291 30.2534 38.4143 30.2374 38.4343 30.177C38.5257 29.9 38.6133 29.6216 38.6971 29.3418C38.7179 29.273 38.7423 29.2786 38.7975 29.305C39.3323 29.5667 39.9364 29.6518 40.5227 29.5482C40.6602 29.5273 40.7908 29.4738 40.9035 29.3922C40.9556 29.3561 40.999 29.3087 41.0304 29.2536C41.0618 29.1985 41.0805 29.137 41.085 29.0737C41.0895 29.0105 41.0798 28.947 41.0566 28.8879C41.0333 28.8289 40.9971 28.7758 40.9507 28.7326C40.849 28.6385 40.7349 28.5589 40.6115 28.4958C40.3055 28.3246 39.9943 28.1642 39.7035 27.9658C38.9223 27.431 39.0175 26.3178 39.7867 25.8294C40.1275 25.613 40.5007 25.5046 40.8971 25.4634C41.5579 25.395 42.1967 25.5082 42.8263 25.6978C42.8839 25.715 42.8987 25.7306 42.8767 25.7918C42.7819 26.0546 42.6903 26.319 42.6043 26.585C42.5815 26.655 42.5543 26.6498 42.5003 26.625C42.1064 26.4392 41.6753 26.3462 41.2399 26.353C41.0287 26.3582 40.8227 26.393 40.6439 26.5178C40.5679 26.5663 40.5099 26.6384 40.4788 26.723C40.4477 26.8076 40.4453 26.9001 40.4719 26.9862C40.5063 27.0828 40.5713 27.1656 40.6571 27.2218C40.8423 27.361 41.0543 27.455 41.2571 27.5662C41.5052 27.6958 41.742 27.8459 41.9651 28.015C42.6243 28.5382 42.5575 29.535 41.9251 30.0414C41.5171 30.3674 41.0395 30.4978 40.5315 30.5442C40.4039 30.5554 40.2771 30.5574 40.2119 30.5606Z" fill="#114185"/>
<path d="M44.525 30.5603C43.9454 30.5547 43.3704 30.4584 42.8206 30.2751C42.757 30.2539 42.7406 30.2351 42.7642 30.1679C42.8546 29.8967 42.9402 29.6239 43.0234 29.3503C43.0434 29.2839 43.0634 29.2743 43.1282 29.3055C43.6607 29.5646 44.2613 29.65 44.845 29.5495C44.9701 29.5298 45.0899 29.4852 45.1974 29.4183C45.4626 29.2491 45.495 28.9383 45.271 28.7207C45.177 28.6362 45.0726 28.5643 44.9602 28.5067C44.6402 28.3251 44.3078 28.1627 44.0066 27.9467C43.3118 27.4447 43.3982 26.5363 43.823 26.0803C44.1094 25.7735 44.471 25.6087 44.8722 25.5203C45.4046 25.4003 45.9366 25.4291 46.4682 25.5275C46.6922 25.5675 46.9114 25.6283 47.1306 25.6875C47.2034 25.7079 47.2298 25.7295 47.199 25.8127C47.1066 26.0635 47.0226 26.3171 46.941 26.5727C46.9182 26.6427 46.8954 26.6527 46.8266 26.6227C46.438 26.4402 46.0134 26.3474 45.5842 26.3511C45.3842 26.3547 45.191 26.3843 45.0166 26.4891C44.8514 26.5879 44.7678 26.7315 44.7926 26.9291C44.8082 27.0547 44.8838 27.1423 44.979 27.2143C45.179 27.3659 45.409 27.4659 45.6266 27.5859C45.8746 27.7231 46.1194 27.8659 46.3358 28.0503C46.9422 28.5703 46.8738 29.5343 46.2654 30.0303C45.9386 30.2971 45.5594 30.4355 45.1502 30.5071C44.9434 30.5406 44.7344 30.5584 44.525 30.5603Z" fill="#114185"/>
<path d="M28.6819 29.383C28.6615 29.503 28.6099 29.6106 28.5719 29.7238C28.4995 29.9394 28.4223 30.153 28.3507 30.369C28.3454 30.3906 28.3335 30.41 28.3165 30.4243C28.2995 30.4387 28.2785 30.4473 28.2563 30.449C27.7763 30.529 27.2911 30.5798 26.8035 30.543C26.0759 30.4882 25.4519 30.223 25.0231 29.603C24.7207 29.1662 24.6139 28.6698 24.6407 28.147C24.6855 27.275 25.0551 26.5614 25.7363 26.015C26.1267 25.7022 26.5859 25.5486 27.0751 25.4846C27.6806 25.3987 28.2973 25.4356 28.8883 25.593C29.0011 25.6238 29.1099 25.667 29.2207 25.703C29.2607 25.7158 29.2711 25.733 29.2563 25.7766C29.1619 26.0526 29.0683 26.3294 28.9799 26.6074C28.9603 26.6686 28.9327 26.6562 28.8931 26.6406C28.6107 26.5248 28.3116 26.4547 28.0071 26.433C27.3483 26.3958 26.7755 26.577 26.3643 27.1254C25.9791 27.6394 25.9195 28.493 26.3319 29.009C26.5883 29.329 26.9267 29.4986 27.3283 29.5454C27.7615 29.5958 28.1803 29.5122 28.5939 29.3934C28.6203 29.3858 28.6471 29.3806 28.6739 29.3742L28.6819 29.383Z" fill="#114185"/>
<path d="M33.2394 29.3772C33.1474 29.642 33.0418 29.904 32.9662 30.1744C32.9114 30.3716 32.819 30.4652 32.6038 30.4868C32.0038 30.5468 31.4038 30.614 30.8038 30.4552C29.8602 30.2044 29.2438 29.4516 29.1926 28.4732C29.1366 27.41 29.5438 26.5604 30.4002 25.932C30.7602 25.6684 31.1802 25.5436 31.6186 25.4864C32.224 25.4008 32.8404 25.4376 33.4314 25.5944C33.541 25.6244 33.6462 25.6692 33.7554 25.7008C33.8126 25.7176 33.8142 25.7436 33.7954 25.7936C33.7038 26.0612 33.613 26.3288 33.5278 26.5984C33.5074 26.6628 33.483 26.6604 33.4306 26.6404C33.0114 26.4804 32.5826 26.3936 32.1302 26.4404C31.3618 26.5228 30.777 27.0308 30.6294 27.7784C30.523 28.318 30.6206 28.8116 31.0506 29.1936C31.3934 29.4976 31.8106 29.5824 32.255 29.5564C32.5685 29.5357 32.8783 29.4766 33.1774 29.3804C33.1954 29.3772 33.2114 29.3624 33.2394 29.3772Z" fill="#114185"/>
<path d="M17.9997 28.2758L13.0169 23.293V24.0578L17.2349 28.2758L17.2365 28.2774L13.5829 31.931L13.5785 31.9266L9.92733 28.2758L9.92413 28.2726L11.7165 26.4802H10.9385L9.14453 28.2742L9.14613 28.2758L13.5769 32.7066L13.5785 32.705L18.0037 28.2798L17.9997 28.2758Z" fill="#FE6309"/>
<path d="M13.0162 24.584V25.3488L15.9446 28.2772L13.5854 30.6364L11.2242 28.2756L11.221 28.2724L13.0134 26.48H12.2354L10.4414 28.274L10.443 28.2756L13.1946 31.0272L13.5794 31.412L13.9706 31.0212L16.7118 28.2796L13.0162 24.584Z" fill="#FE6309"/>
<path d="M15.4199 28.2754L13.9588 26.8126L13.5699 26.4238L13.1876 26.8062L11.7188 28.2738L13.1884 29.7434L13.5732 30.1282L13.9635 29.7374L15.424 28.2794L15.4199 28.2754ZM13.5799 29.3554L12.4999 28.2754L12.4967 28.2722L13.574 27.195L14.654 28.275L13.5799 29.3554Z" fill="#FE6309"/>
</svg>
