<svg width="25" height="24" viewBox="0 0 25 24" fill="none" xmlns="http://www.w3.org/2000/svg">
<path d="M15.501 12.001H20.501" stroke="#8BC255" stroke-width="1.5" stroke-linecap="round" stroke-linejoin="round"/>
<path d="M12.501 20.001V18.001" stroke="#8BC255" stroke-width="1.5" stroke-linecap="round" stroke-linejoin="round"/>
<path d="M9.50098 12.001H10.501C11.6055 12.001 12.501 12.8964 12.501 14.001V15.001" stroke="#8BC255" stroke-width="1.5" stroke-linecap="round" stroke-linejoin="round"/>
<path d="M4.50098 12.001H6.50098" stroke="#8BC255" stroke-width="1.5" stroke-linecap="round" stroke-linejoin="round"/>
<path d="M12.501 4.00098V9.00098" stroke="#8BC255" stroke-width="1.5" stroke-linecap="round" stroke-linejoin="round"/>
<path d="M17.001 17.001C17.2771 17.001 17.501 16.7771 17.501 16.501C17.501 16.2248 17.2771 16.001 17.001 16.001C16.7248 16.001 16.501 16.2248 16.501 16.501C16.501 16.7771 16.7248 17.001 17.001 17.001Z" fill="#8BC255" stroke="#8BC255" stroke-width="1.5" stroke-linecap="round" stroke-linejoin="round"/>
<path d="M20.501 15.001V18.001C20.501 19.1055 19.6055 20.001 18.501 20.001H15.501" stroke="#8BC255" stroke-width="1.5" stroke-linecap="round" stroke-linejoin="round"/>
<path d="M8.001 4H6C5.17157 4 4.5 4.67157 4.5 5.5V7.501C4.5 8.32943 5.17157 9.001 6 9.001H8.001C8.82943 9.001 9.501 8.32943 9.501 7.501V5.5C9.501 4.67157 8.82943 4 8.001 4Z" stroke="#8BC255" stroke-width="1.5" stroke-linecap="round" stroke-linejoin="round"/>
<path d="M8 15.001H6C5.17157 15.001 4.5 15.6725 4.5 16.501V18.501C4.5 19.3294 5.17157 20.001 6 20.001H8C8.82843 20.001 9.5 19.3294 9.5 18.501V16.501C9.5 15.6725 8.82843 15.001 8 15.001Z" stroke="#8BC255" stroke-width="1.5" stroke-linecap="round" stroke-linejoin="round"/>
<path d="M19.001 4H17.001C16.1725 4 15.501 4.67157 15.501 5.5V7.5C15.501 8.32843 16.1725 9 17.001 9H19.001C19.8294 9 20.501 8.32843 20.501 7.5V5.5C20.501 4.67157 19.8294 4 19.001 4Z" stroke="#8BC255" stroke-width="1.5" stroke-linecap="round" stroke-linejoin="round"/>
</svg>
