<svg width="20" height="20" viewBox="0 0 20 20" fill="none" xmlns="http://www.w3.org/2000/svg">
<path fill-rule="evenodd" clip-rule="evenodd" d="M8.66797 1.66699C7.5634 1.66699 6.66797 2.56242 6.66797 3.66699V5.57424H11.7513C13.1872 5.57424 14.3513 6.7383 14.3513 8.17424V13.3337H16.3346C17.4392 13.3337 18.3346 12.4382 18.3346 11.3337V3.66699C18.3346 2.56242 17.4392 1.66699 16.3346 1.66699H8.66797ZM13.1513 17.1713V14.4253V8.17424C13.1513 7.40104 12.5245 6.77424 11.7513 6.77424H6.2513V6.66699H3.66797C2.5634 6.66699 1.66797 7.56243 1.66797 8.66699V16.3337C1.66797 17.4382 2.5634 18.3337 3.66797 18.3337H11.3346C12.1401 18.3337 12.8344 17.8575 13.1513 17.1713Z" fill="white"/>
</svg>
