<svg width="32" height="32" viewBox="0 0 32 32" fill="none" xmlns="http://www.w3.org/2000/svg">
<path fill-rule="evenodd" clip-rule="evenodd" d="M25.4298 25.4258C21.3549 29.5011 15.321 30.3816 10.3832 28.098C9.65424 27.8046 9.05661 27.5674 8.48847 27.5674C6.90595 27.5767 4.93619 29.1112 3.91245 28.0887C2.88871 27.0648 4.42432 25.0935 4.42432 23.5014C4.42432 22.9332 4.19652 22.3462 3.90307 21.6159C1.61841 16.6788 2.50011 10.6429 6.57498 6.56896C11.7768 1.36526 20.228 1.36526 25.4298 6.56762C30.6409 11.7794 30.6316 20.2235 25.4298 25.4258Z" stroke="white" stroke-width="1.5" stroke-linecap="round" stroke-linejoin="round"/>
<path d="M21.2544 16.5495H21.2664" stroke="white" stroke-width="2" stroke-linecap="round" stroke-linejoin="round"/>
<path d="M15.9068 16.5495H15.9188" stroke="white" stroke-width="2" stroke-linecap="round" stroke-linejoin="round"/>
<path d="M10.563 16.5495H10.575" stroke="white" stroke-width="2" stroke-linecap="round" stroke-linejoin="round"/>
</svg>
