<svg width="16" height="17" viewBox="0 0 16 17" fill="none" xmlns="http://www.w3.org/2000/svg">
<path d="M10.9142 2.77437V3.0023L11.1412 3.02331C11.9946 3.10233 12.6011 3.39275 13.0106 3.82746C13.4217 4.26389 13.6584 4.87149 13.7218 5.62856L13.7217 5.62856L13.7223 5.63434C13.7236 5.64688 13.7198 5.66443 13.7028 5.68231C13.6856 5.70048 13.6617 5.71104 13.6375 5.71104H2.35755C2.33621 5.71104 2.31349 5.7017 2.29614 5.68364C2.2795 5.66634 2.27218 5.64581 2.27362 5.62491L2.02422 5.60771L2.27334 5.62856C2.3367 4.87149 2.57342 4.26389 2.98453 3.82746C3.39401 3.39275 4.00054 3.10233 4.85393 3.02331L5.08088 3.0023V2.77437V1.73437C5.08088 1.59911 5.19562 1.48438 5.33088 1.48438C5.46614 1.48438 5.58088 1.59911 5.58088 1.73437V2.73437V2.98437H5.83088H10.1642H10.4142V2.73437V1.73437C10.4142 1.59911 10.529 1.48438 10.6642 1.48438C10.7995 1.48438 10.9142 1.59911 10.9142 1.73437V2.77437Z" fill="#FAFAFA" stroke="#EEECFF" stroke-width="0.5"/>
<path d="M6.29617 12.7362L6.30963 12.7254L6.32149 12.7129C6.48249 12.5429 6.58333 12.3091 6.58333 12.0676C6.58333 11.8261 6.48249 11.5923 6.32149 11.4223L6.30963 11.4098L6.29617 11.3991L6.24618 11.3591L6.19617 11.3191L6.1877 11.3123L6.17868 11.3063C6.12772 11.2723 6.0735 11.2439 6.01605 11.223C5.96193 11.1975 5.90491 11.1787 5.84529 11.1684C5.66737 11.1335 5.48476 11.1504 5.31767 11.2232C5.19746 11.2704 5.10679 11.3358 5.02609 11.4084L5.01869 11.4151L5.01185 11.4223C4.85084 11.5923 4.75 11.8261 4.75 12.0676C4.75 12.3091 4.85084 12.5429 5.01185 12.7129L5.01869 12.7201L5.02609 12.7268C5.10739 12.7999 5.19881 12.8657 5.32034 12.913C5.42513 12.9563 5.54332 12.9843 5.66667 12.9843C5.72749 12.9843 5.78208 12.9762 5.82111 12.9705C5.82612 12.9698 5.83088 12.9691 5.83536 12.9684L5.83536 12.9685L5.8411 12.9675C5.90224 12.9573 5.96067 12.9383 6.01605 12.9122C6.07188 12.8919 6.12465 12.8645 6.17434 12.8318C6.20707 12.8115 6.23452 12.7887 6.25191 12.7739C6.26227 12.7651 6.26941 12.7589 6.27519 12.7539C6.28312 12.747 6.28851 12.7423 6.29617 12.7362ZM6.31194 10.3891L6.31219 10.3894L6.32149 10.3795C6.48249 10.2096 6.58333 9.97579 6.58333 9.73427C6.58333 9.49275 6.48249 9.25895 6.32149 9.089L6.32155 9.08894L6.31678 9.08416C6.23097 8.99836 6.12877 8.93406 6.01447 8.88943C5.6729 8.74409 5.2731 8.82762 5.01656 9.08416L5.01649 9.0841L5.01185 9.089C4.85084 9.25895 4.75 9.49275 4.75 9.73427C4.75 9.97579 4.85084 10.2096 5.01185 10.3795L5.01158 10.3798L5.0214 10.3891C5.19134 10.5501 5.42515 10.6509 5.66667 10.6509C5.90819 10.6509 6.14199 10.5501 6.31194 10.3891ZM8.64527 12.7224L8.64552 12.7227L8.65482 12.7129C8.81582 12.5429 8.91667 12.3091 8.91667 12.0676C8.91667 11.8261 8.81582 11.5923 8.65482 11.4223L8.65489 11.4223L8.65011 11.4175C8.47272 11.2401 8.23042 11.1593 8 11.1593C7.76958 11.1593 7.52728 11.2401 7.34989 11.4175L7.34983 11.4174L7.34518 11.4223C7.18418 11.5923 7.08333 11.8261 7.08333 12.0676C7.08333 12.3091 7.18418 12.5429 7.34518 12.7129L7.34491 12.7131L7.35473 12.7224C7.52468 12.8834 7.75848 12.9843 8 12.9843C8.24152 12.9843 8.47532 12.8834 8.64527 12.7224ZM8.62951 10.4028L8.64297 10.3921L8.65482 10.3795C8.81582 10.2096 8.91667 9.97579 8.91667 9.73427C8.91667 9.49275 8.81582 9.25895 8.65482 9.089L8.65489 9.08894L8.65011 9.08416C8.39357 8.82762 7.99377 8.74409 7.65219 8.88943C7.5379 8.93406 7.43569 8.99836 7.34989 9.08416L7.34983 9.0841L7.34518 9.089C7.18418 9.25895 7.08333 9.49275 7.08333 9.73427C7.08333 9.97579 7.18418 10.2096 7.34518 10.3795L7.34491 10.3798L7.35473 10.3891C7.52468 10.5501 7.75848 10.6509 8 10.6509C8.06082 10.6509 8.11541 10.6429 8.15444 10.6372C8.15945 10.6364 8.16421 10.6357 8.16869 10.6351L8.1687 10.6352L8.17443 10.6342C8.23557 10.624 8.294 10.6049 8.34938 10.5789C8.40684 10.558 8.46105 10.5296 8.51201 10.4956L8.52104 10.4896L8.52951 10.4828L8.57951 10.4428L8.62951 10.4028ZM10.9786 12.7224L10.9789 12.7227L10.9882 12.7129C11.1492 12.5429 11.25 12.3091 11.25 12.0676C11.25 11.8261 11.1492 11.5923 10.9882 11.4223L10.9882 11.4223L10.9834 11.4175C10.8061 11.2401 10.5638 11.1593 10.3333 11.1593C10.1029 11.1593 9.86061 11.2401 9.68322 11.4175L9.68316 11.4174L9.67851 11.4223C9.51751 11.5923 9.41667 11.8261 9.41667 12.0676C9.41667 12.3091 9.51751 12.5429 9.67851 12.7129L9.67825 12.7131L9.68806 12.7224C9.85801 12.8834 10.0918 12.9843 10.3333 12.9843C10.5749 12.9843 10.8087 12.8834 10.9786 12.7224ZM10.9628 10.4028L10.9763 10.3921L10.9882 10.3795C11.1492 10.2096 11.25 9.97579 11.25 9.73427C11.25 9.49275 11.1492 9.25895 10.9882 9.089L10.9763 9.07649L10.9628 9.06572L10.8628 8.98572L10.8544 8.97894L10.8453 8.97292C10.7944 8.93895 10.7402 8.91055 10.6827 8.88968C10.6286 8.8642 10.5716 8.8454 10.5119 8.83505C10.334 8.80021 10.1514 8.81712 9.98433 8.8899C9.86413 8.93711 9.77346 9.00248 9.69276 9.07511L9.68536 9.08177L9.67851 9.089C9.51751 9.25895 9.41667 9.49275 9.41667 9.73427C9.41667 9.97579 9.51751 10.2096 9.67851 10.3795L9.67825 10.3798L9.68806 10.3891C9.85801 10.5501 10.0918 10.6509 10.3333 10.6509C10.3916 10.6509 10.4537 10.642 10.4954 10.636L10.502 10.6351L10.502 10.6352L10.5078 10.6342C10.5689 10.624 10.6273 10.6049 10.6827 10.5789C10.7402 10.558 10.7944 10.5296 10.8453 10.4956L10.8544 10.4896L10.8628 10.4828L10.9628 10.4028ZM2.66667 7.21094H13.3333C13.5619 7.21094 13.75 7.39901 13.75 7.6276V11.7343C13.75 12.6959 13.5095 13.4592 13.0251 13.9808C12.5438 14.4991 11.7857 14.8176 10.6667 14.8176H5.33333C4.21432 14.8176 3.45616 14.4991 2.97487 13.9808C2.49046 13.4592 2.25 12.6959 2.25 11.7343V7.6276C2.25 7.39901 2.43807 7.21094 2.66667 7.21094Z" fill="#FAFAFA" stroke="#EEECFF" stroke-width="0.5"/>
</svg>
