<svg width="57" height="56" viewBox="0 0 57 56" fill="none" xmlns="http://www.w3.org/2000/svg">
<rect x="0.5" width="56" height="56" rx="28" fill="#1A1A21"/>
<path d="M36 19.67C36 19.66 36 19.65 35.98 19.64C35.76 19.36 35.47 19.21 35.13 19.21C34.6 19.21 33.96 19.56 33.27 20.3C32.45 21.18 31.19 21.11 30.47 20.15L29.46 18.81C29.06 18.27 28.53 18 28 18C27.47 18 26.94 18.27 26.54 18.81L25.52 20.16C24.81 21.11 23.56 21.18 22.74 20.31L22.73 20.3C21.6 19.09 20.59 18.91 20.02 19.64C20 19.65 20 19.66 20 19.67C19.64 20.44 19.5 21.52 19.5 23.04V32.96C19.5 34.48 19.64 35.56 20 36.33C20 36.34 20.01 36.36 20.02 36.37C20.6 37.09 21.6 36.91 22.73 35.7L22.74 35.69C23.56 34.82 24.81 34.89 25.52 35.84L26.54 37.19C26.94 37.73 27.47 38 28 38C28.53 38 29.06 37.73 29.46 37.19L30.47 35.85C31.19 34.89 32.45 34.82 33.27 35.7C33.96 36.44 34.6 36.79 35.13 36.79C35.47 36.79 35.76 36.65 35.98 36.37C35.99 36.36 36 36.34 36 36.33C36.36 35.56 36.5 34.48 36.5 32.96V23.04C36.5 21.52 36.36 20.44 36 19.67ZM30.5 30.5H24.5C24.09 30.5 23.75 30.16 23.75 29.75C23.75 29.34 24.09 29 24.5 29H30.5C30.91 29 31.25 29.34 31.25 29.75C31.25 30.16 30.91 30.5 30.5 30.5ZM32.5 27H24.5C24.09 27 23.75 26.66 23.75 26.25C23.75 25.84 24.09 25.5 24.5 25.5H32.5C32.91 25.5 33.25 25.84 33.25 26.25C33.25 26.66 32.91 27 32.5 27Z" fill="url(#paint0_linear_1824_42286)"/>
<defs>
<linearGradient id="paint0_linear_1824_42286" x1="36.5" y1="38" x2="15.8267" y2="32.9051" gradientUnits="userSpaceOnUse">
<stop stop-color="#5B45FF"/>
<stop offset="1" stop-color="#AB9FFF"/>
</linearGradient>
</defs>
</svg>
