<svg width="32" height="32" viewBox="0 0 32 32" fill="none" xmlns="http://www.w3.org/2000/svg">
<rect width="32" height="32" rx="11" fill="#35383F"/>
<path fill-rule="evenodd" clip-rule="evenodd" d="M13.3764 24.0279L22.1628 12.6654C22.6403 12.0527 22.8101 11.3443 22.6509 10.623C22.513 9.96726 22.1097 9.34377 21.5049 8.87078L20.0299 7.69906C18.7459 6.67784 17.1541 6.78534 16.2415 7.95706L15.2546 9.23735C15.1273 9.39752 15.1591 9.63401 15.3183 9.76301C15.3183 9.76301 17.812 11.7625 17.8651 11.8055C18.0349 11.9667 18.1622 12.1817 18.1941 12.4397C18.2471 12.9449 17.8969 13.4179 17.377 13.4824C17.1329 13.5147 16.8994 13.4394 16.7297 13.2997L14.1086 11.2142C13.9813 11.1186 13.7902 11.139 13.6841 11.268L7.45514 19.3303C7.0519 19.8355 6.91395 20.4912 7.0519 21.1255L7.84777 24.5761C7.89021 24.7589 8.04939 24.8879 8.24039 24.8879L11.7422 24.8449C12.3789 24.8341 12.9732 24.5439 13.3764 24.0279ZM18.2797 22.9533H23.9898C24.5469 22.9533 25 23.4123 25 23.9766C25 24.5421 24.5469 25 23.9898 25H18.2797C17.7226 25 17.2695 24.5421 17.2695 23.9766C17.2695 23.4123 17.7226 22.9533 18.2797 22.9533Z" fill="#EEECFF"/>
</svg>
