<svg width="80" height="81" viewBox="0 0 80 81" fill="none" xmlns="http://www.w3.org/2000/svg">
<rect y="0.666748" width="80" height="80" rx="40" fill="#335EF7" fill-opacity="0.08"/>
<path fill-rule="evenodd" clip-rule="evenodd" d="M46.5866 28.6667C48.3746 28.6667 50.0946 29.3734 51.36 30.6414C52.6266 31.9067 53.3346 33.6134 53.3346 35.4001V45.9334C53.3346 49.6534 50.308 52.6667 46.5866 52.6667H33.4146C29.6933 52.6667 26.668 49.6534 26.668 45.9334V35.4001C26.668 31.6801 29.68 28.6667 33.4146 28.6667H46.5866ZM48.708 37.3867L48.8146 37.2801C49.1333 36.8934 49.1333 36.3334 48.8 35.9467C48.6146 35.7481 48.36 35.6267 48.0946 35.6001C47.8146 35.5854 47.548 35.6801 47.3466 35.8667L41.3346 40.6667C40.5613 41.3081 39.4533 41.3081 38.668 40.6667L32.668 35.8667C32.2533 35.5601 31.68 35.6001 31.3346 35.9601C30.9746 36.3201 30.9346 36.8934 31.24 37.2934L31.4146 37.4667L37.4813 42.2001C38.228 42.7867 39.1333 43.1067 40.0813 43.1067C41.0266 43.1067 41.948 42.7867 42.6933 42.2001L48.708 37.3867Z" fill="url(#paint0_linear_1370_25481)"/>
<defs>
<linearGradient id="paint0_linear_1370_25481" x1="53.3346" y1="52.6667" x2="22.1706" y2="42.627" gradientUnits="userSpaceOnUse">
<stop stop-color="#5B45FF"/>
<stop offset="1" stop-color="#AB9FFF"/>
</linearGradient>
</defs>
</svg>
