<svg width="24" height="24" viewBox="0 0 24 24" fill="none" xmlns="http://www.w3.org/2000/svg">
<path fill-rule="evenodd" clip-rule="evenodd" d="M11.7758 13.4655C11.1068 13.4655 10.4398 13.2445 9.88176 12.8025L5.39676 9.18648C5.07376 8.92648 5.02376 8.45348 5.28276 8.13148C5.54376 7.81048 6.01576 7.75948 6.33776 8.01848L10.8188 11.6305C11.3818 12.0765 12.1748 12.0765 12.7418 11.6265L17.1778 8.02048C17.4998 7.75748 17.9718 7.80748 18.2338 8.12948C18.4948 8.45048 18.4458 8.92248 18.1248 9.18448L13.6808 12.7965C13.1188 13.2425 12.4468 13.4655 11.7758 13.4655Z" fill="white"/>
<mask id="mask0_1965_50495" style="mask-type:luminance" maskUnits="userSpaceOnUse" x="1" y="2" width="22" height="20">
<path fill-rule="evenodd" clip-rule="evenodd" d="M1 2H22.4999V21.5H1V2Z" fill="white"/>
</mask>
<g mask="url(#mask0_1965_50495)">
<path fill-rule="evenodd" clip-rule="evenodd" d="M6.839 20H16.659C16.661 19.998 16.669 20 16.675 20C17.816 20 18.828 19.592 19.604 18.817C20.505 17.92 21 16.631 21 15.188V8.32C21 5.527 19.174 3.5 16.659 3.5H6.841C4.326 3.5 2.5 5.527 2.5 8.32V15.188C2.5 16.631 2.996 17.92 3.896 18.817C4.672 19.592 5.685 20 6.825 20H6.839ZM6.822 21.5C5.279 21.5 3.901 20.94 2.837 19.88C1.652 18.698 1 17.032 1 15.188V8.32C1 4.717 3.511 2 6.841 2H16.659C19.989 2 22.5 4.717 22.5 8.32V15.188C22.5 17.032 21.848 18.698 20.663 19.88C19.6 20.939 18.221 21.5 16.675 21.5H16.659H6.841H6.822Z" fill="white"/>
</g>
</svg>
