<svg width="80" height="80" viewBox="0 0 80 80" fill="none" xmlns="http://www.w3.org/2000/svg">
<rect width="80" height="80" rx="40" fill="#FF0000" fill-opacity="0.25"/>
<path d="M40 27C37.4288 27 34.9154 27.7624 32.7776 29.1909C30.6398 30.6194 28.9735 32.6497 27.9896 35.0251C27.0056 37.4006 26.7482 40.0144 27.2498 42.5362C27.7514 45.0579 28.9895 47.3743 30.8076 49.1924C32.6257 51.0105 34.9421 52.2486 37.4638 52.7502C39.9856 53.2518 42.5995 52.9944 44.9749 52.0104C47.3503 51.0265 49.3807 49.3603 50.8091 47.2224C52.2376 45.0846 53 42.5712 53 40C52.9964 36.5533 51.6256 33.2488 49.1884 30.8116C46.7512 28.3744 43.4467 27.0036 40 27ZM41 31.9225L44.0988 29.7913C45.8729 30.5059 47.4312 31.6688 48.6213 33.1663L47.6213 36.5337C47.5963 36.5337 47.57 36.5463 47.545 36.555L44.6925 37.4812C44.6497 37.4949 44.6079 37.5116 44.5675 37.5312L41 35.0775V31.9225ZM35.905 29.7913L39 31.9225V35.0775L35.43 37.5363C35.3896 37.5166 35.3478 37.4999 35.305 37.4862L32.4525 36.56C32.4275 36.5513 32.4013 36.545 32.3763 36.5387L31.3763 33.1713C32.5674 31.6711 34.128 30.5064 35.905 29.7913ZM34.28 45.9275H30.7375C29.7005 44.3152 29.1061 42.4585 29.0138 40.5438L31.7638 38.4338C31.7874 38.4442 31.8116 38.4534 31.8363 38.4613L34.69 39.3888C34.7282 39.4003 34.767 39.4095 34.8063 39.4163L36.155 43.3438C36.1363 43.3662 36.1175 43.3888 36.1 43.4125L34.3375 45.8388C34.3167 45.8673 34.2976 45.8969 34.28 45.9275ZM42.8363 50.625C40.9778 51.12 39.0222 51.12 37.1638 50.625L35.9063 47.075C35.9225 47.055 35.94 47.0362 35.955 47.015L37.7188 44.5875C37.7395 44.5594 37.7587 44.5302 37.7763 44.5H42.2238C42.2413 44.5302 42.2605 44.5594 42.2813 44.5875L44.045 47.015C44.06 47.0362 44.0775 47.055 44.0938 47.075L42.8363 50.625ZM45.72 45.9237C45.7025 45.8931 45.6833 45.8635 45.6625 45.835L43.8988 43.4125C43.8813 43.3888 43.8625 43.3662 43.8438 43.3438L45.1925 39.4163C45.2318 39.4095 45.2706 39.4003 45.3088 39.3888L48.1625 38.4613C48.1871 38.4534 48.2113 38.4442 48.235 38.4338L50.985 40.5438C50.8927 42.4585 50.2982 44.3152 49.2613 45.9275L45.72 45.9237Z" fill="#F75555"/>
</svg>
