<svg width="80" height="81" viewBox="0 0 80 81" fill="none" xmlns="http://www.w3.org/2000/svg">
<rect y="0.5" width="80" height="80" rx="40" fill="white"/>
<path d="M39.9644 64.5818C53.2234 64.5818 63.9719 53.8332 63.9719 40.5741C63.9719 27.315 53.2234 16.5664 39.9644 16.5664C26.7055 16.5664 15.957 27.315 15.957 40.5741C15.957 53.8332 26.7055 64.5818 39.9644 64.5818Z" fill="#50B651"/>
<path opacity="0.663" fill-rule="evenodd" clip-rule="evenodd" d="M63.8968 40.5156C63.8968 53.8164 53.1147 64.5986 39.8171 64.5986C26.5195 64.5986 15.7344 53.8164 15.7344 40.5156C15.7344 34.6319 15.8993 33.7571 18.2152 30.4074C18.2152 30.4074 18.0957 34.1909 20.87 36.4424C22.595 37.8412 24.3953 36.8313 27.6906 35.3137C31.2553 33.6705 34.1533 32.6105 36.4143 32.8901C39.8201 33.312 50.3178 39.6164 55.7964 38.361C60.1731 37.3601 59.7113 27.041 59.7113 27.041C64.4914 31.7088 63.8968 34.8637 63.8968 40.5156Z" fill="url(#paint0_linear_1816_32081)"/>
<path opacity="0.586" fill-rule="evenodd" clip-rule="evenodd" d="M50.1328 58.1937C58.8425 50.0009 60.2903 40.6151 54.4761 30.0362C54.5056 30.0577 54.8653 28.8165 55.5552 26.3125C58.6495 30.0597 60.2949 34.6849 60.4913 40.1881C60.4897 47.3161 57.0369 53.3179 50.1328 58.1937Z" fill="url(#paint1_linear_1816_32081)"/>
<path opacity="0.744" fill-rule="evenodd" clip-rule="evenodd" d="M46.0297 26.3851C41.8256 24.0584 37.0025 19.378 37.6436 18.3951C38.2848 17.4122 46.6063 17.5813 50.811 19.908C55.0157 22.2348 58.5942 29.2144 57.9537 30.1973C57.3131 31.1802 50.2338 28.7119 46.0297 26.3851Z" fill="url(#paint2_radial_1816_32081)"/>
<path fill-rule="evenodd" clip-rule="evenodd" d="M49.6667 46.4914C46.179 46.4914 43.3516 43.5833 43.3516 39.9964C43.3516 36.4095 46.179 33.502 49.6667 33.502C53.1543 33.502 55.9824 36.4095 55.9824 39.9964C55.9824 43.5833 53.1549 46.4914 49.6667 46.4914ZM49.7115 44.4312C51.8882 44.4312 53.6551 42.4456 53.6551 39.9964C53.6551 37.5472 51.8882 35.5634 49.7115 35.5634C47.5347 35.5634 45.7679 37.5489 45.7679 39.9976C45.7679 42.4462 47.5347 44.4312 49.7115 44.4312Z" fill="white"/>
<path fill-rule="evenodd" clip-rule="evenodd" d="M36.6719 28.2695H41.2225V46.4162H38.7243V30.2599H36.6719V28.2695Z" fill="white"/>
<path fill-rule="evenodd" clip-rule="evenodd" d="M33.2916 33.7021H35.6535V48.8564C35.6535 50.2372 34.201 51.6755 32.7855 52.2945C32.1163 52.5869 30.8814 52.7606 29.0809 52.8155V51.308C30.842 51.1116 32.0306 50.7198 32.6468 50.1327C33.0024 49.6385 33.2247 49.0611 33.2922 48.456V44.0039C32.6608 45.3436 31.8657 46.2317 30.9069 46.6683C29.9102 47.206 27.8817 47.1176 27.0535 46.6683C26.2254 46.2189 25.0106 45.0358 24.4538 43.2738C24.2996 42.7874 23.916 41.4639 23.956 40.0615C23.9919 38.726 24.434 37.3129 24.8015 36.7321C25.4325 35.7402 26.4273 34.498 27.9343 33.9788C28.6704 33.725 30.0347 33.6338 32.0272 33.7051V35.2043C30.5466 35.1043 29.6228 35.1543 29.256 35.3543C28.7057 35.653 27.4634 36.0217 27.0535 38.729C26.6436 41.4364 27.0655 43.652 28.3651 44.3457C28.8102 44.5847 29.5977 44.8673 30.3255 44.6182C31.7237 44.1402 33.0394 42.4354 33.1398 41.2804C33.241 40.1085 33.2916 37.5824 33.2916 33.7021Z" fill="white"/>
<path fill-rule="evenodd" clip-rule="evenodd" d="M63.155 45.3205C60.9245 56.0609 51.4074 64.131 40.0062 64.131C26.9488 64.131 16.3633 53.5454 16.3633 40.4878C16.3633 32.3759 20.4485 25.2183 26.6733 20.9609C21.6154 25.1555 18.3948 31.4922 18.3948 38.5782C18.3948 51.2175 28.641 61.4631 41.2795 61.4631C51.5723 61.4631 60.2768 54.6687 63.155 45.3205Z" fill="url(#paint3_radial_1816_32081)"/>
<path fill-rule="evenodd" clip-rule="evenodd" d="M40 12.5C24.5364 12.5 12 25.0359 12 40.4997C12 55.9635 24.5364 68.5 40 68.5C55.4636 68.5 68 55.9635 68 40.4997C68 25.0359 55.4636 12.5 40 12.5ZM40 64.1435C26.9426 64.1435 16.3571 53.5579 16.3571 40.5003C16.3571 32.3884 20.4422 25.2307 26.6671 20.9734C30.593 18.2846 35.2417 16.8492 40 16.8565C53.0574 16.8565 63.6429 27.4415 63.6429 40.4997C63.6438 42.1233 63.4782 43.7426 63.1488 45.3324C60.9183 56.0728 51.4011 64.1429 40 64.1429V64.1435Z" fill="white"/>
<defs>
<linearGradient id="paint0_linear_1816_32081" x1="38.8868" y1="30.3298" x2="41.9736" y2="58.2057" gradientUnits="userSpaceOnUse">
<stop stop-color="#123214"/>
<stop offset="0.46" stop-color="#3E7C37"/>
<stop offset="0.91" stop-color="#5FBB46"/>
</linearGradient>
<linearGradient id="paint1_linear_1816_32081" x1="56.701" y1="28.5062" x2="56.701" y2="51.0478" gradientUnits="userSpaceOnUse">
<stop stop-color="white" stop-opacity="0"/>
<stop offset="0.64" stop-color="white" stop-opacity="0.43"/>
<stop offset="1" stop-color="white" stop-opacity="0.42"/>
</linearGradient>
<radialGradient id="paint2_radial_1816_32081" cx="0" cy="0" r="1" gradientUnits="userSpaceOnUse" gradientTransform="translate(48.3103 24.4541) rotate(26.7608) scale(11.8632 4.94085)">
<stop offset="0.13" stop-color="white"/>
<stop offset="0.29" stop-color="white" stop-opacity="0.69"/>
<stop offset="0.45" stop-color="white" stop-opacity="0.4"/>
<stop offset="0.59" stop-color="white" stop-opacity="0.18"/>
<stop offset="0.69" stop-color="white" stop-opacity="0.05"/>
<stop offset="0.74" stop-color="white" stop-opacity="0"/>
</radialGradient>
<radialGradient id="paint3_radial_1816_32081" cx="0" cy="0" r="1" gradientUnits="userSpaceOnUse" gradientTransform="translate(44.0605 35.0404) rotate(39.8403) scale(26.5852 28.9779)">
<stop offset="0.86" stop-opacity="0"/>
<stop offset="0.98" stop-opacity="0.47"/>
<stop offset="1"/>
</radialGradient>
</defs>
</svg>
