<svg width="80" height="81" viewBox="0 0 80 81" fill="none" xmlns="http://www.w3.org/2000/svg">
<rect y="0.5" width="80" height="80" rx="40" fill="white"/>
<g clip-path="url(#clip0_3056_49378)">
<path d="M16.7711 33.8175C18.3183 33.8185 19.8658 33.8378 21.4124 33.8089C22.0157 33.7976 22.1539 34.0636 22.1631 34.5995C22.1727 35.1619 21.9252 35.3017 21.4103 35.3041C19.2993 35.314 17.1866 35.2181 15.0776 35.3918C13.7447 35.5016 12.4522 35.7705 11.2567 36.3834C9.60053 37.2326 8.48373 38.4843 8.4393 40.4245C8.3941 42.3987 9.4504 43.7418 11.1413 44.6021C13.2852 45.6929 15.589 45.9258 17.9505 45.591C18.9029 45.456 19.2277 45.0129 19.2378 44.0447C19.2446 43.3873 19.2175 42.7291 19.2414 42.0725C19.2598 41.5648 19.0379 41.3704 18.5424 41.3795C17.7815 41.3935 17.0182 41.3459 16.2593 41.3875C15.646 41.4212 15.3783 41.2685 15.3853 40.5902C15.3921 39.9356 15.678 39.8384 16.2357 39.8426C18.6913 39.8613 21.1474 39.8299 23.6028 39.8601C24.1971 39.8674 24.4498 39.7313 24.5657 39.1029C25.0058 36.7167 26.5892 35.1711 28.782 34.4506C32.5539 33.2114 36.4317 33.1469 40.2019 34.4751C44.6601 36.0458 46.072 41.408 43.0076 44.7758C41.9345 45.9551 40.5539 46.65 39.0139 46.9679C35.4009 47.7138 31.8049 47.8056 28.3068 46.3906C27.2452 45.9612 26.35 45.2895 25.6485 44.3779C25.5454 44.244 25.4303 44.0791 25.2463 44.0908C25.0631 44.1024 25.0449 44.2889 25.0491 44.4301C25.0957 45.9809 23.9907 46.5064 22.778 46.8974C22.2933 47.0537 21.7695 47.1525 21.2609 47.1642C17.7276 47.246 14.1885 47.4249 10.6707 46.9245C8.79112 46.6572 6.96328 46.1952 5.32769 45.1747C1.44821 42.7541 1.58541 37.9255 5.58636 35.7098C7.67063 34.5555 9.95296 34.161 12.2808 33.9453C13.7729 33.807 15.2726 33.802 16.7711 33.8175ZM30.3452 40.0043C30.3435 41.817 30.6091 42.8275 31.2598 43.9576C32.7289 46.5091 35.6959 46.7025 37.4852 44.3666C37.8131 43.9384 37.942 43.4251 38.1616 42.9511C39.1511 40.8157 38.6088 37.6659 36.8996 36.0659C35.4396 34.6993 33.4547 34.6997 32.0253 36.1013C30.8032 37.2996 30.3668 38.8142 30.3452 40.0043Z" fill="#DD0514"/>
<path d="M49.3736 47.2357C48.9322 47.2352 48.4872 47.2372 48.05 47.1865C46.3901 46.9939 45.3989 45.9003 45.3946 44.2446C45.3863 41.1285 45.3928 38.0123 45.3978 34.8961C45.3992 33.9985 45.5741 33.821 46.4663 33.8156C47.7921 33.8077 49.1179 33.8055 50.4436 33.814C51.2479 33.8192 51.443 34.0188 51.4508 34.8028C51.4569 35.4114 51.4854 36.0222 51.4443 36.6281C51.4022 37.2483 51.6612 37.4221 52.2596 37.418C55.4267 37.3962 58.5944 37.4343 61.761 37.3901C62.6144 37.3781 63.1466 37.6341 63.6332 38.3499C65.1683 40.6081 66.7833 42.8131 68.3723 45.0352C68.8942 45.765 68.9371 45.7624 69.4947 45.0406C71.2842 42.7241 73.07 40.4048 74.8606 38.0892C75.2991 37.5221 76.6773 37.1612 77.3144 37.4508C77.7008 37.6264 77.3777 37.818 77.2782 37.9502C76.325 39.2177 71.9292 44.8892 70.7374 46.4961C70.3296 47.0459 69.8669 47.2599 69.1872 47.2552C65.75 47.2314 52.5409 47.2395 49.3736 47.2357ZM57.5347 45.8007C59.105 45.8007 60.6754 45.802 62.2458 45.7986C62.4105 45.7983 62.6188 45.8491 62.7077 45.6636C62.7956 45.4803 62.6217 45.349 62.5245 45.2227C61.0075 43.2506 59.4813 41.2855 57.9668 39.3116C57.7245 38.9958 57.4431 38.8315 57.0357 38.8346C55.4161 38.8469 53.7962 38.8589 52.1767 38.8392C51.5778 38.832 51.4312 39.0982 51.4413 39.642C51.4693 41.1503 51.4485 42.6594 51.4563 44.1681C51.463 45.4678 51.7769 45.7875 53.1173 45.804C54.5895 45.8222 57.5347 45.8032 57.5347 45.8007Z" fill="#05893B"/>
</g>
<defs>
<clipPath id="clip0_3056_49378">
<rect width="75" height="14" fill="white" transform="translate(2.5 33.5)"/>
</clipPath>
</defs>
</svg>
