<svg width="192" height="176" viewBox="0 0 192 176" fill="none" xmlns="http://www.w3.org/2000/svg">
<rect x="1" y="1" width="190" height="174" rx="9" fill="#35383F"/>
<path fill-rule="evenodd" clip-rule="evenodd" d="M78.5481 23.582C68.2401 23.582 61.5801 30.65 61.5801 41.554V74.41C61.5801 77.4699 62.1481 80.202 63.1201 82.5659C63.1621 82.5158 64.0788 81.3988 65.2741 79.942C67.608 77.0979 71.0043 72.9591 71.0281 72.938C73.7961 69.778 78.9921 65.0659 85.8121 67.9179C87.3066 68.5376 88.635 69.3865 89.8578 70.1679C89.9769 70.244 90.095 70.3194 90.2121 70.394C92.5041 71.9259 93.8521 72.646 95.2521 72.526C95.8321 72.4459 96.3761 72.274 96.8921 71.954C98.8386 70.754 103.885 63.6035 105.396 61.4623C105.618 61.1482 105.763 60.9419 105.812 60.878C110.172 55.198 116.892 53.678 122.492 57.038C123.244 57.486 128.632 61.25 130.416 62.762V41.554C130.416 30.65 123.756 23.582 113.412 23.582H78.5481ZM113.412 18.002C126.92 18.002 135.996 27.45 135.996 41.554V74.41C135.996 74.7647 135.959 75.0973 135.922 75.4298C135.895 75.6634 135.869 75.8969 135.856 76.138C135.848 76.2837 135.843 76.4294 135.839 76.5751C135.834 76.7694 135.828 76.9637 135.812 77.158C135.804 77.234 135.789 77.307 135.774 77.38C135.759 77.4529 135.744 77.526 135.736 77.602C135.604 78.858 135.4 80.058 135.116 81.222C135.049 81.5128 134.971 81.7932 134.893 82.0762L134.876 82.138C134.556 83.266 134.18 84.3419 133.728 85.3699C133.649 85.5428 133.565 85.7113 133.482 85.8798C133.426 85.9921 133.37 86.1044 133.316 86.218C132.828 87.198 132.3 88.138 131.688 89.01C131.575 89.1714 131.454 89.3226 131.334 89.4742C131.254 89.5743 131.174 89.6745 131.096 89.778C130.46 90.602 129.796 91.3899 129.044 92.1059C128.894 92.2487 128.732 92.3794 128.569 92.51C128.468 92.5917 128.367 92.6733 128.268 92.7579C127.496 93.422 126.708 94.058 125.84 94.602C125.651 94.721 125.449 94.8208 125.249 94.9203C125.119 94.9846 124.99 95.0488 124.864 95.118C123.98 95.6059 123.088 96.082 122.116 96.45C121.882 96.5388 121.633 96.6031 121.384 96.6675C121.207 96.7133 121.029 96.7591 120.856 96.8139C120.77 96.8408 120.683 96.8676 120.597 96.8945C119.728 97.1646 118.863 97.4339 117.928 97.594C117.386 97.6889 116.812 97.7253 116.236 97.7618C115.987 97.7776 115.739 97.7934 115.492 97.8139C115.227 97.8337 114.967 97.8657 114.707 97.8977C114.284 97.9498 113.86 98.002 113.412 98.002H78.5481C77.0441 98.002 75.6081 97.85 74.2201 97.622C74.1681 97.614 74.1201 97.606 74.0721 97.598C68.6601 96.666 64.1681 94.054 61.0201 90.114C60.9982 90.114 60.9896 90.0992 60.9782 90.0795C60.9708 90.0668 60.9622 90.0521 60.9481 90.038C57.7841 86.054 55.9961 80.698 55.9961 74.41V41.554C55.9961 27.45 65.0801 18.002 78.5481 18.002H113.412ZM91.9985 44.0602C91.9985 49.48 87.4636 54.0004 82.0179 54.0004C77.2311 54.0004 73.1497 50.503 72.2349 45.9749C72.0838 45.2955 71.9985 44.5968 71.9985 43.8749C71.9985 38.4165 76.4326 34.0004 81.9132 34.0004C84.7039 34.0004 87.2311 35.1739 89.0411 37.0461C90.859 38.8527 91.9985 41.3426 91.9985 44.0602Z" fill="#9E9E9E"/>
<path d="M24.662 131.168C23.962 131.168 23.3273 131.033 22.758 130.762C22.198 130.482 21.75 130.057 21.414 129.488C21.0873 128.919 20.924 128.195 20.924 127.318V121.2H22.408V127.332C22.408 128.191 22.6133 128.821 23.024 129.222C23.4347 129.623 23.99 129.824 24.69 129.824C25.3807 129.824 25.9313 129.623 26.342 129.222C26.7527 128.821 26.958 128.191 26.958 127.332V121.2H28.442V127.318C28.442 128.195 28.2693 128.919 27.924 129.488C27.588 130.057 27.1307 130.482 26.552 130.762C25.9827 131.033 25.3527 131.168 24.662 131.168ZM30.4896 134.08V124.056H31.8196L31.9736 125.134C32.1976 124.807 32.5056 124.518 32.8976 124.266C33.2896 124.014 33.7936 123.888 34.4096 123.888C35.0816 123.888 35.6742 124.047 36.1876 124.364C36.7009 124.681 37.1022 125.115 37.3916 125.666C37.6902 126.217 37.8396 126.842 37.8396 127.542C37.8396 128.242 37.6902 128.867 37.3916 129.418C37.1022 129.959 36.7009 130.389 36.1876 130.706C35.6742 131.014 35.0769 131.168 34.3956 131.168C33.8542 131.168 33.3736 131.061 32.9536 130.846C32.5429 130.631 32.2162 130.328 31.9736 129.936V134.08H30.4896ZM34.1436 129.88C34.7782 129.88 35.3009 129.665 35.7116 129.236C36.1222 128.797 36.3276 128.228 36.3276 127.528C36.3276 127.071 36.2342 126.665 36.0476 126.31C35.8609 125.955 35.6042 125.68 35.2776 125.484C34.9509 125.279 34.5729 125.176 34.1436 125.176C33.5089 125.176 32.9862 125.395 32.5756 125.834C32.1742 126.273 31.9736 126.837 31.9736 127.528C31.9736 128.228 32.1742 128.797 32.5756 129.236C32.9862 129.665 33.5089 129.88 34.1436 129.88ZM39.6446 131V120.92H41.1286V131H39.6446ZM46.4559 131.168C45.7933 131.168 45.1959 131.019 44.6639 130.72C44.1413 130.412 43.7259 129.987 43.4179 129.446C43.1099 128.895 42.9559 128.256 42.9559 127.528C42.9559 126.8 43.1099 126.165 43.4179 125.624C43.7353 125.073 44.1599 124.649 44.6919 124.35C45.2239 124.042 45.8166 123.888 46.4699 123.888C47.1326 123.888 47.7253 124.042 48.2479 124.35C48.7799 124.649 49.1999 125.073 49.5079 125.624C49.8253 126.165 49.9839 126.8 49.9839 127.528C49.9839 128.256 49.8253 128.895 49.5079 129.446C49.1999 129.987 48.7799 130.412 48.2479 130.72C47.7159 131.019 47.1186 131.168 46.4559 131.168ZM46.4559 129.894C46.8106 129.894 47.1373 129.805 47.4359 129.628C47.7439 129.451 47.9913 129.189 48.1779 128.844C48.3646 128.489 48.4579 128.051 48.4579 127.528C48.4579 127.005 48.3646 126.571 48.1779 126.226C48.0006 125.871 47.7579 125.605 47.4499 125.428C47.1513 125.251 46.8246 125.162 46.4699 125.162C46.1153 125.162 45.7839 125.251 45.4759 125.428C45.1773 125.605 44.9346 125.871 44.7479 126.226C44.5613 126.571 44.4679 127.005 44.4679 127.528C44.4679 128.051 44.5613 128.489 44.7479 128.844C44.9346 129.189 45.1773 129.451 45.4759 129.628C45.7746 129.805 46.1013 129.894 46.4559 129.894ZM54.1408 131.168C53.5528 131.168 53.0674 131.07 52.6848 130.874C52.3021 130.678 52.0174 130.421 51.8308 130.104C51.6441 129.777 51.5508 129.423 51.5508 129.04C51.5508 128.368 51.8121 127.836 52.3348 127.444C52.8574 127.052 53.6041 126.856 54.5748 126.856H56.3948V126.73C56.3948 126.189 56.2454 125.783 55.9468 125.512C55.6574 125.241 55.2794 125.106 54.8128 125.106C54.4021 125.106 54.0428 125.209 53.7348 125.414C53.4361 125.61 53.2541 125.904 53.1888 126.296H51.7048C51.7514 125.792 51.9194 125.363 52.2088 125.008C52.5074 124.644 52.8808 124.369 53.3288 124.182C53.7861 123.986 54.2854 123.888 54.8268 123.888C55.7974 123.888 56.5488 124.145 57.0808 124.658C57.6128 125.162 57.8788 125.853 57.8788 126.73V131H56.5908L56.4648 129.81C56.2688 130.193 55.9841 130.515 55.6108 130.776C55.2374 131.037 54.7474 131.168 54.1408 131.168ZM54.4348 129.964C54.8361 129.964 55.1721 129.871 55.4428 129.684C55.7228 129.488 55.9374 129.231 56.0868 128.914C56.2454 128.597 56.3434 128.247 56.3808 127.864H54.7288C54.1408 127.864 53.7208 127.967 53.4688 128.172C53.2261 128.377 53.1048 128.634 53.1048 128.942C53.1048 129.259 53.2214 129.511 53.4548 129.698C53.6974 129.875 54.0241 129.964 54.4348 129.964ZM62.9731 131.168C62.3011 131.168 61.7084 131.009 61.1951 130.692C60.6818 130.375 60.2804 129.941 59.9911 129.39C59.7018 128.839 59.5571 128.214 59.5571 127.514C59.5571 126.814 59.7018 126.193 59.9911 125.652C60.2804 125.101 60.6818 124.672 61.1951 124.364C61.7178 124.047 62.3151 123.888 62.9871 123.888C63.5378 123.888 64.0184 123.995 64.4291 124.21C64.8491 124.425 65.1758 124.728 65.4091 125.12V120.92H66.8931V131H65.5631L65.4091 129.922C65.1851 130.249 64.8771 130.538 64.4851 130.79C64.0931 131.042 63.5891 131.168 62.9731 131.168ZM63.2391 129.88C63.8738 129.88 64.3918 129.661 64.7931 129.222C65.2038 128.783 65.4091 128.219 65.4091 127.528C65.4091 126.828 65.2038 126.263 64.7931 125.834C64.3918 125.395 63.8738 125.176 63.2391 125.176C62.6044 125.176 62.0818 125.395 61.6711 125.834C61.2604 126.263 61.0551 126.828 61.0551 127.528C61.0551 127.985 61.1484 128.391 61.3351 128.746C61.5218 129.101 61.7784 129.381 62.1051 129.586C62.4411 129.782 62.8191 129.88 63.2391 129.88ZM75.0435 131.168C74.4555 131.168 73.9702 131.07 73.5875 130.874C73.2049 130.678 72.9202 130.421 72.7335 130.104C72.5469 129.777 72.4535 129.423 72.4535 129.04C72.4535 128.368 72.7149 127.836 73.2375 127.444C73.7602 127.052 74.5069 126.856 75.4775 126.856H77.2975V126.73C77.2975 126.189 77.1482 125.783 76.8495 125.512C76.5602 125.241 76.1822 125.106 75.7155 125.106C75.3049 125.106 74.9455 125.209 74.6375 125.414C74.3389 125.61 74.1569 125.904 74.0915 126.296H72.6075C72.6542 125.792 72.8222 125.363 73.1115 125.008C73.4102 124.644 73.7835 124.369 74.2315 124.182C74.6889 123.986 75.1882 123.888 75.7295 123.888C76.7002 123.888 77.4515 124.145 77.9835 124.658C78.5155 125.162 78.7815 125.853 78.7815 126.73V131H77.4935L77.3675 129.81C77.1715 130.193 76.8869 130.515 76.5135 130.776C76.1402 131.037 75.6502 131.168 75.0435 131.168ZM75.3375 129.964C75.7389 129.964 76.0749 129.871 76.3455 129.684C76.6255 129.488 76.8402 129.231 76.9895 128.914C77.1482 128.597 77.2462 128.247 77.2835 127.864H75.6315C75.0435 127.864 74.6235 127.967 74.3715 128.172C74.1289 128.377 74.0075 128.634 74.0075 128.942C74.0075 129.259 74.1242 129.511 74.3575 129.698C74.6002 129.875 74.9269 129.964 75.3375 129.964ZM87.7292 131.168C87.0478 131.168 86.4365 131.014 85.8952 130.706C85.3632 130.398 84.9432 129.973 84.6352 129.432C84.3365 128.881 84.1872 128.247 84.1872 127.528C84.1872 126.809 84.3365 126.179 84.6352 125.638C84.9432 125.087 85.3632 124.658 85.8952 124.35C86.4365 124.042 87.0478 123.888 87.7292 123.888C88.5878 123.888 89.3065 124.112 89.8852 124.56C90.4732 125.008 90.8512 125.615 91.0192 126.38H89.4652C89.3718 125.997 89.1665 125.699 88.8492 125.484C88.5318 125.269 88.1585 125.162 87.7292 125.162C87.3652 125.162 87.0292 125.255 86.7212 125.442C86.4132 125.619 86.1658 125.885 85.9792 126.24C85.7925 126.585 85.6992 127.015 85.6992 127.528C85.6992 128.041 85.7925 128.475 85.9792 128.83C86.1658 129.175 86.4132 129.441 86.7212 129.628C87.0292 129.815 87.3652 129.908 87.7292 129.908C88.1585 129.908 88.5318 129.801 88.8492 129.586C89.1665 129.371 89.3718 129.068 89.4652 128.676H91.0192C90.8605 129.423 90.4872 130.025 89.8992 130.482C89.3112 130.939 88.5878 131.168 87.7292 131.168ZM96.0766 131.168C95.414 131.168 94.8166 131.019 94.2846 130.72C93.762 130.412 93.3466 129.987 93.0386 129.446C92.7306 128.895 92.5766 128.256 92.5766 127.528C92.5766 126.8 92.7306 126.165 93.0386 125.624C93.356 125.073 93.7806 124.649 94.3126 124.35C94.8446 124.042 95.4373 123.888 96.0906 123.888C96.7533 123.888 97.346 124.042 97.8686 124.35C98.4006 124.649 98.8206 125.073 99.1286 125.624C99.446 126.165 99.6046 126.8 99.6046 127.528C99.6046 128.256 99.446 128.895 99.1286 129.446C98.8206 129.987 98.4006 130.412 97.8686 130.72C97.3366 131.019 96.7393 131.168 96.0766 131.168ZM96.0766 129.894C96.4313 129.894 96.758 129.805 97.0566 129.628C97.3646 129.451 97.612 129.189 97.7986 128.844C97.9853 128.489 98.0786 128.051 98.0786 127.528C98.0786 127.005 97.9853 126.571 97.7986 126.226C97.6213 125.871 97.3786 125.605 97.0706 125.428C96.772 125.251 96.4453 125.162 96.0906 125.162C95.736 125.162 95.4046 125.251 95.0966 125.428C94.798 125.605 94.5553 125.871 94.3686 126.226C94.182 126.571 94.0886 127.005 94.0886 127.528C94.0886 128.051 94.182 128.489 94.3686 128.844C94.5553 129.189 94.798 129.451 95.0966 129.628C95.3953 129.805 95.722 129.894 96.0766 129.894ZM103 131L100.396 124.056H101.95L103.882 129.586L105.814 124.056H107.354L104.764 131H103ZM111.666 131.168C110.985 131.168 110.378 131.019 109.846 130.72C109.323 130.412 108.913 129.987 108.614 129.446C108.315 128.905 108.166 128.275 108.166 127.556C108.166 126.828 108.311 126.189 108.6 125.638C108.899 125.087 109.309 124.658 109.832 124.35C110.364 124.042 110.98 123.888 111.68 123.888C112.361 123.888 112.954 124.042 113.458 124.35C113.962 124.649 114.354 125.05 114.634 125.554C114.914 126.058 115.054 126.613 115.054 127.22C115.054 127.313 115.049 127.416 115.04 127.528C115.04 127.631 115.035 127.747 115.026 127.878H109.622C109.669 128.55 109.888 129.063 110.28 129.418C110.681 129.763 111.143 129.936 111.666 129.936C112.086 129.936 112.436 129.843 112.716 129.656C113.005 129.46 113.22 129.199 113.36 128.872H114.844C114.657 129.525 114.284 130.071 113.724 130.51C113.173 130.949 112.487 131.168 111.666 131.168ZM111.666 125.106C111.171 125.106 110.733 125.255 110.35 125.554C109.967 125.843 109.734 126.282 109.65 126.87H113.57C113.542 126.329 113.351 125.899 112.996 125.582C112.641 125.265 112.198 125.106 111.666 125.106ZM116.794 131V124.056H118.124L118.25 125.372C118.493 124.915 118.829 124.555 119.258 124.294C119.697 124.023 120.224 123.888 120.84 123.888V125.442H120.434C120.023 125.442 119.655 125.512 119.328 125.652C119.011 125.783 118.754 126.011 118.558 126.338C118.371 126.655 118.278 127.099 118.278 127.668V131H116.794ZM20.938 154.08V144.056H22.268L22.422 145.134C22.646 144.807 22.954 144.518 23.346 144.266C23.738 144.014 24.242 143.888 24.858 143.888C25.53 143.888 26.1227 144.047 26.636 144.364C27.1493 144.681 27.5507 145.115 27.84 145.666C28.1387 146.217 28.288 146.842 28.288 147.542C28.288 148.242 28.1387 148.867 27.84 149.418C27.5507 149.959 27.1493 150.389 26.636 150.706C26.1227 151.014 25.5253 151.168 24.844 151.168C24.3027 151.168 23.822 151.061 23.402 150.846C22.9913 150.631 22.6647 150.328 22.422 149.936V154.08H20.938ZM24.592 149.88C25.2267 149.88 25.7493 149.665 26.16 149.236C26.5707 148.797 26.776 148.228 26.776 147.528C26.776 147.071 26.6827 146.665 26.496 146.31C26.3093 145.955 26.0527 145.68 25.726 145.484C25.3993 145.279 25.0213 145.176 24.592 145.176C23.9573 145.176 23.4347 145.395 23.024 145.834C22.6227 146.273 22.422 146.837 22.422 147.528C22.422 148.228 22.6227 148.797 23.024 149.236C23.4347 149.665 23.9573 149.88 24.592 149.88ZM30.9331 142.74C30.6531 142.74 30.4197 142.656 30.2331 142.488C30.0557 142.311 29.9671 142.091 29.9671 141.83C29.9671 141.569 30.0557 141.354 30.2331 141.186C30.4197 141.009 30.6531 140.92 30.9331 140.92C31.2131 140.92 31.4417 141.009 31.6191 141.186C31.8057 141.354 31.8991 141.569 31.8991 141.83C31.8991 142.091 31.8057 142.311 31.6191 142.488C31.4417 142.656 31.2131 142.74 30.9331 142.74ZM30.1911 151V144.056H31.6751V151H30.1911ZM37.1241 151.168C36.4428 151.168 35.8314 151.014 35.2901 150.706C34.7581 150.398 34.3381 149.973 34.0301 149.432C33.7314 148.881 33.5821 148.247 33.5821 147.528C33.5821 146.809 33.7314 146.179 34.0301 145.638C34.3381 145.087 34.7581 144.658 35.2901 144.35C35.8314 144.042 36.4428 143.888 37.1241 143.888C37.9828 143.888 38.7014 144.112 39.2801 144.56C39.8681 145.008 40.2461 145.615 40.4141 146.38H38.8601C38.7668 145.997 38.5614 145.699 38.2441 145.484C37.9268 145.269 37.5534 145.162 37.1241 145.162C36.7601 145.162 36.4241 145.255 36.1161 145.442C35.8081 145.619 35.5608 145.885 35.3741 146.24C35.1874 146.585 35.0941 147.015 35.0941 147.528C35.0941 148.041 35.1874 148.475 35.3741 148.83C35.5608 149.175 35.8081 149.441 36.1161 149.628C36.4241 149.815 36.7601 149.908 37.1241 149.908C37.5534 149.908 37.9268 149.801 38.2441 149.586C38.5614 149.371 38.7668 149.068 38.8601 148.676H40.4141C40.2554 149.423 39.8821 150.025 39.2941 150.482C38.7061 150.939 37.9828 151.168 37.1241 151.168ZM44.9988 151C44.3175 151 43.7762 150.837 43.3748 150.51C42.9735 150.174 42.7728 149.581 42.7728 148.732V145.302H41.5828V144.056H42.7728L42.9548 142.292H44.2568V144.056H46.2168V145.302H44.2568V148.732C44.2568 149.115 44.3362 149.381 44.4948 149.53C44.6628 149.67 44.9475 149.74 45.3488 149.74H46.1468V151H44.9988ZM50.509 151.168C49.669 151.168 49.0063 150.907 48.521 150.384C48.045 149.861 47.807 149.082 47.807 148.046V144.056H49.291V147.892C49.291 149.236 49.8417 149.908 50.943 149.908C51.4937 149.908 51.9463 149.712 52.301 149.32C52.6557 148.928 52.833 148.368 52.833 147.64V144.056H54.317V151H53.001L52.889 149.782C52.6743 150.211 52.357 150.552 51.937 150.804C51.5263 151.047 51.0503 151.168 50.509 151.168ZM56.4048 151V144.056H57.7348L57.8608 145.372C58.1035 144.915 58.4395 144.555 58.8688 144.294C59.3075 144.023 59.8348 143.888 60.4508 143.888V145.442H60.0448C59.6341 145.442 59.2655 145.512 58.9388 145.652C58.6215 145.783 58.3648 146.011 58.1688 146.338C57.9821 146.655 57.8888 147.099 57.8888 147.668V151H56.4048ZM64.9798 151.168C64.2984 151.168 63.6918 151.019 63.1598 150.72C62.6371 150.412 62.2264 149.987 61.9278 149.446C61.6291 148.905 61.4798 148.275 61.4798 147.556C61.4798 146.828 61.6244 146.189 61.9138 145.638C62.2124 145.087 62.6231 144.658 63.1458 144.35C63.6778 144.042 64.2938 143.888 64.9938 143.888C65.6751 143.888 66.2678 144.042 66.7718 144.35C67.2758 144.649 67.6678 145.05 67.9478 145.554C68.2278 146.058 68.3678 146.613 68.3678 147.22C68.3678 147.313 68.3631 147.416 68.3538 147.528C68.3538 147.631 68.3491 147.747 68.3398 147.878H62.9358C62.9824 148.55 63.2018 149.063 63.5938 149.418C63.9951 149.763 64.4571 149.936 64.9798 149.936C65.3998 149.936 65.7498 149.843 66.0298 149.656C66.3191 149.46 66.5338 149.199 66.6738 148.872H68.1578C67.9711 149.525 67.5978 150.071 67.0378 150.51C66.4871 150.949 65.8011 151.168 64.9798 151.168ZM64.9798 145.106C64.4851 145.106 64.0464 145.255 63.6638 145.554C63.2811 145.843 63.0478 146.282 62.9638 146.87H66.8838C66.8558 146.329 66.6644 145.899 66.3098 145.582C65.9551 145.265 65.5118 145.106 64.9798 145.106ZM74.1849 151V145.302H73.1909V144.056H74.1849V143.048C74.1849 142.292 74.3715 141.751 74.7449 141.424C75.1275 141.088 75.6642 140.92 76.3549 140.92H77.0829V142.18H76.5789C76.2522 142.18 76.0189 142.25 75.8789 142.39C75.7389 142.521 75.6689 142.745 75.6689 143.062V144.056H77.2649V145.302H75.6689V151H74.1849ZM81.8493 151.168C81.1866 151.168 80.5893 151.019 80.0573 150.72C79.5346 150.412 79.1193 149.987 78.8113 149.446C78.5033 148.895 78.3493 148.256 78.3493 147.528C78.3493 146.8 78.5033 146.165 78.8113 145.624C79.1286 145.073 79.5533 144.649 80.0853 144.35C80.6173 144.042 81.2099 143.888 81.8633 143.888C82.5259 143.888 83.1186 144.042 83.6413 144.35C84.1733 144.649 84.5933 145.073 84.9013 145.624C85.2186 146.165 85.3773 146.8 85.3773 147.528C85.3773 148.256 85.2186 148.895 84.9013 149.446C84.5933 149.987 84.1733 150.412 83.6413 150.72C83.1093 151.019 82.5119 151.168 81.8493 151.168ZM81.8493 149.894C82.2039 149.894 82.5306 149.805 82.8293 149.628C83.1373 149.451 83.3846 149.189 83.5713 148.844C83.7579 148.489 83.8513 148.051 83.8513 147.528C83.8513 147.005 83.7579 146.571 83.5713 146.226C83.3939 145.871 83.1513 145.605 82.8433 145.428C82.5446 145.251 82.2179 145.162 81.8633 145.162C81.5086 145.162 81.1773 145.251 80.8693 145.428C80.5706 145.605 80.3279 145.871 80.1413 146.226C79.9546 146.571 79.8613 147.005 79.8613 147.528C79.8613 148.051 79.9546 148.489 80.1413 148.844C80.3279 149.189 80.5706 149.451 80.8693 149.628C81.1679 149.805 81.4946 149.894 81.8493 149.894ZM87.1821 151V144.056H88.5121L88.6381 145.372C88.8808 144.915 89.2168 144.555 89.6461 144.294C90.0848 144.023 90.6121 143.888 91.2281 143.888V145.442H90.8221C90.4115 145.442 90.0428 145.512 89.7161 145.652C89.3988 145.783 89.1421 146.011 88.9461 146.338C88.7595 146.655 88.6661 147.099 88.6661 147.668V151H87.1821ZM99.3398 151C98.6585 151 98.1172 150.837 97.7158 150.51C97.3145 150.174 97.1138 149.581 97.1138 148.732V145.302H95.9238V144.056H97.1138L97.2958 142.292H98.5978V144.056H100.558V145.302H98.5978V148.732C98.5978 149.115 98.6772 149.381 98.8358 149.53C99.0038 149.67 99.2885 149.74 99.6898 149.74H100.488V151H99.3398ZM102.288 151V140.92H103.772V145.176C104.005 144.775 104.327 144.462 104.738 144.238C105.158 144.005 105.62 143.888 106.124 143.888C106.955 143.888 107.608 144.149 108.084 144.672C108.56 145.195 108.798 145.974 108.798 147.01V151H107.328V147.164C107.328 145.82 106.791 145.148 105.718 145.148C105.158 145.148 104.691 145.344 104.318 145.736C103.954 146.128 103.772 146.688 103.772 147.416V151H102.288ZM111.586 142.74C111.306 142.74 111.072 142.656 110.886 142.488C110.708 142.311 110.62 142.091 110.62 141.83C110.62 141.569 110.708 141.354 110.886 141.186C111.072 141.009 111.306 140.92 111.586 140.92C111.866 140.92 112.094 141.009 112.272 141.186C112.458 141.354 112.552 141.569 112.552 141.83C112.552 142.091 112.458 142.311 112.272 142.488C112.094 142.656 111.866 142.74 111.586 142.74ZM110.844 151V144.056H112.328V151H110.844ZM117.259 151.168C116.381 151.168 115.658 150.953 115.089 150.524C114.519 150.095 114.193 149.525 114.109 148.816H115.607C115.681 149.133 115.859 149.409 116.139 149.642C116.419 149.866 116.787 149.978 117.245 149.978C117.693 149.978 118.019 149.885 118.225 149.698C118.43 149.511 118.533 149.297 118.533 149.054C118.533 148.699 118.388 148.461 118.099 148.34C117.819 148.209 117.427 148.093 116.923 147.99C116.531 147.906 116.139 147.794 115.747 147.654C115.364 147.514 115.042 147.318 114.781 147.066C114.529 146.805 114.403 146.455 114.403 146.016C114.403 145.409 114.636 144.905 115.103 144.504C115.569 144.093 116.223 143.888 117.063 143.888C117.837 143.888 118.463 144.075 118.939 144.448C119.424 144.821 119.709 145.349 119.793 146.03H118.365C118.318 145.731 118.178 145.498 117.945 145.33C117.721 145.162 117.417 145.078 117.035 145.078C116.661 145.078 116.372 145.157 116.167 145.316C115.961 145.465 115.859 145.661 115.859 145.904C115.859 146.147 115.999 146.338 116.279 146.478C116.568 146.618 116.946 146.744 117.413 146.856C117.879 146.959 118.309 147.08 118.701 147.22C119.102 147.351 119.424 147.547 119.667 147.808C119.909 148.069 120.031 148.452 120.031 148.956C120.04 149.591 119.793 150.118 119.289 150.538C118.794 150.958 118.117 151.168 117.259 151.168ZM128.826 151.168C128.145 151.168 127.538 151.019 127.006 150.72C126.484 150.412 126.073 149.987 125.774 149.446C125.476 148.905 125.326 148.275 125.326 147.556C125.326 146.828 125.471 146.189 125.76 145.638C126.059 145.087 126.47 144.658 126.992 144.35C127.524 144.042 128.14 143.888 128.84 143.888C129.522 143.888 130.114 144.042 130.618 144.35C131.122 144.649 131.514 145.05 131.794 145.554C132.074 146.058 132.214 146.613 132.214 147.22C132.214 147.313 132.21 147.416 132.2 147.528C132.2 147.631 132.196 147.747 132.186 147.878H126.782C126.829 148.55 127.048 149.063 127.44 149.418C127.842 149.763 128.304 149.936 128.826 149.936C129.246 149.936 129.596 149.843 129.876 149.656C130.166 149.46 130.38 149.199 130.52 148.872H132.004C131.818 149.525 131.444 150.071 130.884 150.51C130.334 150.949 129.648 151.168 128.826 151.168ZM128.826 145.106C128.332 145.106 127.893 145.255 127.51 145.554C127.128 145.843 126.894 146.282 126.81 146.87H130.73C130.702 146.329 130.511 145.899 130.156 145.582C129.802 145.265 129.358 145.106 128.826 145.106ZM135.627 151L133.023 144.056H134.577L136.509 149.586L138.441 144.056H139.981L137.391 151H135.627ZM144.293 151.168C143.611 151.168 143.005 151.019 142.473 150.72C141.95 150.412 141.539 149.987 141.241 149.446C140.942 148.905 140.793 148.275 140.793 147.556C140.793 146.828 140.937 146.189 141.227 145.638C141.525 145.087 141.936 144.658 142.459 144.35C142.991 144.042 143.607 143.888 144.307 143.888C144.988 143.888 145.581 144.042 146.085 144.35C146.589 144.649 146.981 145.05 147.261 145.554C147.541 146.058 147.681 146.613 147.681 147.22C147.681 147.313 147.676 147.416 147.667 147.528C147.667 147.631 147.662 147.747 147.653 147.878H142.249C142.295 148.55 142.515 149.063 142.907 149.418C143.308 149.763 143.77 149.936 144.293 149.936C144.713 149.936 145.063 149.843 145.343 149.656C145.632 149.46 145.847 149.199 145.987 148.872H147.471C147.284 149.525 146.911 150.071 146.351 150.51C145.8 150.949 145.114 151.168 144.293 151.168ZM144.293 145.106C143.798 145.106 143.359 145.255 142.977 145.554C142.594 145.843 142.361 146.282 142.277 146.87H146.197C146.169 146.329 145.977 145.899 145.623 145.582C145.268 145.265 144.825 145.106 144.293 145.106ZM149.42 151V144.056H150.736L150.848 145.274C151.063 144.845 151.376 144.509 151.786 144.266C152.206 144.014 152.687 143.888 153.228 143.888C154.068 143.888 154.726 144.149 155.202 144.672C155.688 145.195 155.93 145.974 155.93 147.01V151H154.46V147.164C154.46 145.82 153.91 145.148 152.808 145.148C152.258 145.148 151.8 145.344 151.436 145.736C151.082 146.128 150.904 146.688 150.904 147.416V151H149.42ZM160.79 151C160.109 151 159.568 150.837 159.166 150.51C158.765 150.174 158.564 149.581 158.564 148.732V145.302H157.374V144.056H158.564L158.746 142.292H160.048V144.056H162.008V145.302H160.048V148.732C160.048 149.115 160.128 149.381 160.286 149.53C160.454 149.67 160.739 149.74 161.14 149.74H161.938V151H160.79Z" fill="#FAFAFA"/>
<rect x="1" y="1" width="190" height="174" rx="9" stroke="#BDBDBD" stroke-width="2" stroke-dasharray="13 13"/>
</svg>
