<svg width="192" height="206" viewBox="0 0 192 206" fill="none" xmlns="http://www.w3.org/2000/svg">
<rect x="1" y="1" width="190" height="204" rx="9" fill="#35383F"/>
<rect x="1" y="1" width="190" height="204" rx="9" stroke="#BDBDBD" stroke-width="2" stroke-dasharray="13 13"/>
<path fill-rule="evenodd" clip-rule="evenodd" d="M78.5481 23.582C68.2401 23.582 61.5801 30.65 61.5801 41.554V74.41C61.5801 77.4699 62.1481 80.202 63.1201 82.5659C63.1621 82.5158 64.0788 81.3988 65.2741 79.942C67.608 77.0979 71.0043 72.9591 71.0281 72.938C73.7961 69.778 78.9921 65.0659 85.8121 67.9179C87.3066 68.5376 88.635 69.3865 89.8578 70.1679C89.9769 70.244 90.095 70.3194 90.2121 70.394C92.5041 71.9259 93.8521 72.646 95.2521 72.526C95.8321 72.4459 96.3761 72.274 96.8921 71.954C98.8386 70.754 103.885 63.6035 105.396 61.4623C105.618 61.1482 105.763 60.9419 105.812 60.878C110.172 55.198 116.892 53.678 122.492 57.038C123.244 57.486 128.632 61.25 130.416 62.762V41.554C130.416 30.65 123.756 23.582 113.412 23.582H78.5481ZM113.412 18.002C126.92 18.002 135.996 27.45 135.996 41.554V74.41C135.996 74.7647 135.959 75.0973 135.922 75.4298C135.895 75.6634 135.869 75.8969 135.856 76.138C135.848 76.2837 135.843 76.4294 135.839 76.5751C135.834 76.7694 135.828 76.9637 135.812 77.158C135.804 77.234 135.789 77.307 135.774 77.38C135.759 77.4529 135.744 77.526 135.736 77.602C135.604 78.858 135.4 80.058 135.116 81.222C135.049 81.5128 134.971 81.7932 134.893 82.0762L134.876 82.138C134.556 83.266 134.18 84.3419 133.728 85.3699C133.649 85.5428 133.565 85.7113 133.482 85.8798C133.426 85.9921 133.37 86.1044 133.316 86.218C132.828 87.198 132.3 88.138 131.688 89.01C131.575 89.1714 131.454 89.3226 131.334 89.4742C131.254 89.5743 131.174 89.6745 131.096 89.778C130.46 90.602 129.796 91.3899 129.044 92.1059C128.894 92.2487 128.732 92.3794 128.569 92.51C128.468 92.5917 128.367 92.6733 128.268 92.7579C127.496 93.422 126.708 94.058 125.84 94.602C125.651 94.721 125.449 94.8208 125.249 94.9203C125.119 94.9846 124.99 95.0488 124.864 95.118C123.98 95.6059 123.088 96.082 122.116 96.45C121.882 96.5388 121.633 96.6031 121.384 96.6675C121.207 96.7133 121.029 96.7591 120.856 96.8139C120.77 96.8408 120.683 96.8676 120.597 96.8945C119.728 97.1646 118.863 97.4339 117.928 97.594C117.386 97.6889 116.812 97.7253 116.236 97.7618C115.987 97.7776 115.739 97.7934 115.492 97.8139C115.227 97.8337 114.967 97.8657 114.707 97.8977C114.284 97.9498 113.86 98.002 113.412 98.002H78.5481C77.0441 98.002 75.6081 97.85 74.2201 97.622C74.1681 97.614 74.1201 97.606 74.0721 97.598C68.6601 96.666 64.1681 94.054 61.0201 90.114C60.9982 90.114 60.9896 90.0992 60.9782 90.0795C60.9708 90.0668 60.9622 90.0521 60.9481 90.038C57.7841 86.054 55.9961 80.698 55.9961 74.41V41.554C55.9961 27.45 65.0801 18.002 78.5481 18.002H113.412ZM91.9985 44.0602C91.9985 49.48 87.4636 54.0004 82.0179 54.0004C77.2311 54.0004 73.1497 50.503 72.2349 45.9749C72.0838 45.2955 71.9985 44.5968 71.9985 43.8749C71.9985 38.4165 76.4326 34.0004 81.9132 34.0004C84.7039 34.0004 87.2311 35.1739 89.0411 37.0461C90.859 38.8527 91.9985 41.3426 91.9985 44.0602Z" fill="#9E9E9E"/>
<path d="M49.9749 131.168C49.2749 131.168 48.6402 131.033 48.0709 130.762C47.5109 130.482 47.0629 130.057 46.7269 129.488C46.4002 128.919 46.2369 128.195 46.2369 127.318V121.2H47.7209V127.332C47.7209 128.191 47.9262 128.821 48.3369 129.222C48.7476 129.623 49.3029 129.824 50.0029 129.824C50.6936 129.824 51.2442 129.623 51.6549 129.222C52.0656 128.821 52.2709 128.191 52.2709 127.332V121.2H53.7549V127.318C53.7549 128.195 53.5822 128.919 53.2369 129.488C52.9009 130.057 52.4436 130.482 51.8649 130.762C51.2956 131.033 50.6656 131.168 49.9749 131.168ZM55.8025 134.08V124.056H57.1325L57.2865 125.134C57.5105 124.807 57.8185 124.518 58.2105 124.266C58.6025 124.014 59.1065 123.888 59.7225 123.888C60.3945 123.888 60.9871 124.047 61.5005 124.364C62.0138 124.681 62.4151 125.115 62.7045 125.666C63.0031 126.217 63.1525 126.842 63.1525 127.542C63.1525 128.242 63.0031 128.867 62.7045 129.418C62.4151 129.959 62.0138 130.389 61.5005 130.706C60.9871 131.014 60.3898 131.168 59.7085 131.168C59.1671 131.168 58.6865 131.061 58.2665 130.846C57.8558 130.631 57.5291 130.328 57.2865 129.936V134.08H55.8025ZM59.4565 129.88C60.0911 129.88 60.6138 129.665 61.0245 129.236C61.4351 128.797 61.6405 128.228 61.6405 127.528C61.6405 127.071 61.5471 126.665 61.3605 126.31C61.1738 125.955 60.9171 125.68 60.5905 125.484C60.2638 125.279 59.8858 125.176 59.4565 125.176C58.8218 125.176 58.2991 125.395 57.8885 125.834C57.4871 126.273 57.2865 126.837 57.2865 127.528C57.2865 128.228 57.4871 128.797 57.8885 129.236C58.2991 129.665 58.8218 129.88 59.4565 129.88ZM64.9575 131V120.92H66.4415V131H64.9575ZM71.7688 131.168C71.1061 131.168 70.5088 131.019 69.9768 130.72C69.4541 130.412 69.0388 129.987 68.7308 129.446C68.4228 128.895 68.2688 128.256 68.2688 127.528C68.2688 126.8 68.4228 126.165 68.7308 125.624C69.0481 125.073 69.4728 124.649 70.0048 124.35C70.5368 124.042 71.1295 123.888 71.7828 123.888C72.4455 123.888 73.0381 124.042 73.5608 124.35C74.0928 124.649 74.5128 125.073 74.8208 125.624C75.1381 126.165 75.2968 126.8 75.2968 127.528C75.2968 128.256 75.1381 128.895 74.8208 129.446C74.5128 129.987 74.0928 130.412 73.5608 130.72C73.0288 131.019 72.4315 131.168 71.7688 131.168ZM71.7688 129.894C72.1235 129.894 72.4501 129.805 72.7488 129.628C73.0568 129.451 73.3041 129.189 73.4908 128.844C73.6775 128.489 73.7708 128.051 73.7708 127.528C73.7708 127.005 73.6775 126.571 73.4908 126.226C73.3135 125.871 73.0708 125.605 72.7628 125.428C72.4641 125.251 72.1375 125.162 71.7828 125.162C71.4281 125.162 71.0968 125.251 70.7888 125.428C70.4901 125.605 70.2475 125.871 70.0608 126.226C69.8741 126.571 69.7808 127.005 69.7808 127.528C69.7808 128.051 69.8741 128.489 70.0608 128.844C70.2475 129.189 70.4901 129.451 70.7888 129.628C71.0875 129.805 71.4141 129.894 71.7688 129.894ZM79.4537 131.168C78.8657 131.168 78.3803 131.07 77.9977 130.874C77.615 130.678 77.3303 130.421 77.1437 130.104C76.957 129.777 76.8637 129.423 76.8637 129.04C76.8637 128.368 77.125 127.836 77.6477 127.444C78.1703 127.052 78.917 126.856 79.8877 126.856H81.7077V126.73C81.7077 126.189 81.5583 125.783 81.2597 125.512C80.9703 125.241 80.5923 125.106 80.1257 125.106C79.715 125.106 79.3557 125.209 79.0477 125.414C78.749 125.61 78.567 125.904 78.5017 126.296H77.0177C77.0643 125.792 77.2323 125.363 77.5217 125.008C77.8203 124.644 78.1937 124.369 78.6417 124.182C79.099 123.986 79.5983 123.888 80.1397 123.888C81.1103 123.888 81.8617 124.145 82.3937 124.658C82.9257 125.162 83.1917 125.853 83.1917 126.73V131H81.9037L81.7777 129.81C81.5817 130.193 81.297 130.515 80.9237 130.776C80.5503 131.037 80.0603 131.168 79.4537 131.168ZM79.7477 129.964C80.149 129.964 80.485 129.871 80.7557 129.684C81.0357 129.488 81.2503 129.231 81.3997 128.914C81.5583 128.597 81.6563 128.247 81.6937 127.864H80.0417C79.4537 127.864 79.0337 127.967 78.7817 128.172C78.539 128.377 78.4177 128.634 78.4177 128.942C78.4177 129.259 78.5343 129.511 78.7677 129.698C79.0103 129.875 79.337 129.964 79.7477 129.964ZM88.286 131.168C87.614 131.168 87.0213 131.009 86.508 130.692C85.9946 130.375 85.5933 129.941 85.304 129.39C85.0146 128.839 84.87 128.214 84.87 127.514C84.87 126.814 85.0146 126.193 85.304 125.652C85.5933 125.101 85.9946 124.672 86.508 124.364C87.0306 124.047 87.628 123.888 88.3 123.888C88.8506 123.888 89.3313 123.995 89.742 124.21C90.162 124.425 90.4886 124.728 90.722 125.12V120.92H92.206V131H90.876L90.722 129.922C90.498 130.249 90.19 130.538 89.798 130.79C89.406 131.042 88.902 131.168 88.286 131.168ZM88.552 129.88C89.1866 129.88 89.7046 129.661 90.106 129.222C90.5166 128.783 90.722 128.219 90.722 127.528C90.722 126.828 90.5166 126.263 90.106 125.834C89.7046 125.395 89.1866 125.176 88.552 125.176C87.9173 125.176 87.3946 125.395 86.984 125.834C86.5733 126.263 86.368 126.828 86.368 127.528C86.368 127.985 86.4613 128.391 86.648 128.746C86.8346 129.101 87.0913 129.381 87.418 129.586C87.754 129.782 88.132 129.88 88.552 129.88ZM100.356 131.168C99.7684 131.168 99.2831 131.07 98.9004 130.874C98.5177 130.678 98.2331 130.421 98.0464 130.104C97.8597 129.777 97.7664 129.423 97.7664 129.04C97.7664 128.368 98.0277 127.836 98.5504 127.444C99.0731 127.052 99.8197 126.856 100.79 126.856H102.61V126.73C102.61 126.189 102.461 125.783 102.162 125.512C101.873 125.241 101.495 125.106 101.028 125.106C100.618 125.106 100.258 125.209 99.9504 125.414C99.6517 125.61 99.4697 125.904 99.4044 126.296H97.9204C97.9671 125.792 98.1351 125.363 98.4244 125.008C98.7231 124.644 99.0964 124.369 99.5444 124.182C100.002 123.986 100.501 123.888 101.042 123.888C102.013 123.888 102.764 124.145 103.296 124.658C103.828 125.162 104.094 125.853 104.094 126.73V131H102.806L102.68 129.81C102.484 130.193 102.2 130.515 101.826 130.776C101.453 131.037 100.963 131.168 100.356 131.168ZM100.65 129.964C101.052 129.964 101.388 129.871 101.658 129.684C101.938 129.488 102.153 129.231 102.302 128.914C102.461 128.597 102.559 128.247 102.596 127.864H100.944C100.356 127.864 99.9364 127.967 99.6844 128.172C99.4417 128.377 99.3204 128.634 99.3204 128.942C99.3204 129.259 99.4371 129.511 99.6704 129.698C99.9131 129.875 100.24 129.964 100.65 129.964ZM113.042 131.168C112.361 131.168 111.749 131.014 111.208 130.706C110.676 130.398 110.256 129.973 109.948 129.432C109.649 128.881 109.5 128.247 109.5 127.528C109.5 126.809 109.649 126.179 109.948 125.638C110.256 125.087 110.676 124.658 111.208 124.35C111.749 124.042 112.361 123.888 113.042 123.888C113.901 123.888 114.619 124.112 115.198 124.56C115.786 125.008 116.164 125.615 116.332 126.38H114.778C114.685 125.997 114.479 125.699 114.162 125.484C113.845 125.269 113.471 125.162 113.042 125.162C112.678 125.162 112.342 125.255 112.034 125.442C111.726 125.619 111.479 125.885 111.292 126.24C111.105 126.585 111.012 127.015 111.012 127.528C111.012 128.041 111.105 128.475 111.292 128.83C111.479 129.175 111.726 129.441 112.034 129.628C112.342 129.815 112.678 129.908 113.042 129.908C113.471 129.908 113.845 129.801 114.162 129.586C114.479 129.371 114.685 129.068 114.778 128.676H116.332C116.173 129.423 115.8 130.025 115.212 130.482C114.624 130.939 113.901 131.168 113.042 131.168ZM121.39 131.168C120.727 131.168 120.13 131.019 119.598 130.72C119.075 130.412 118.66 129.987 118.352 129.446C118.044 128.895 117.89 128.256 117.89 127.528C117.89 126.8 118.044 126.165 118.352 125.624C118.669 125.073 119.094 124.649 119.626 124.35C120.158 124.042 120.75 123.888 121.404 123.888C122.066 123.888 122.659 124.042 123.182 124.35C123.714 124.649 124.134 125.073 124.442 125.624C124.759 126.165 124.918 126.8 124.918 127.528C124.918 128.256 124.759 128.895 124.442 129.446C124.134 129.987 123.714 130.412 123.182 130.72C122.65 131.019 122.052 131.168 121.39 131.168ZM121.39 129.894C121.744 129.894 122.071 129.805 122.37 129.628C122.678 129.451 122.925 129.189 123.112 128.844C123.298 128.489 123.392 128.051 123.392 127.528C123.392 127.005 123.298 126.571 123.112 126.226C122.934 125.871 122.692 125.605 122.384 125.428C122.085 125.251 121.758 125.162 121.404 125.162C121.049 125.162 120.718 125.251 120.41 125.428C120.111 125.605 119.868 125.871 119.682 126.226C119.495 126.571 119.402 127.005 119.402 127.528C119.402 128.051 119.495 128.489 119.682 128.844C119.868 129.189 120.111 129.451 120.41 129.628C120.708 129.805 121.035 129.894 121.39 129.894ZM128.313 131L125.709 124.056H127.263L129.195 129.586L131.127 124.056H132.667L130.077 131H128.313ZM136.979 131.168C136.298 131.168 135.691 131.019 135.159 130.72C134.636 130.412 134.226 129.987 133.927 129.446C133.628 128.905 133.479 128.275 133.479 127.556C133.479 126.828 133.624 126.189 133.913 125.638C134.212 125.087 134.622 124.658 135.145 124.35C135.677 124.042 136.293 123.888 136.993 123.888C137.674 123.888 138.267 124.042 138.771 124.35C139.275 124.649 139.667 125.05 139.947 125.554C140.227 126.058 140.367 126.613 140.367 127.22C140.367 127.313 140.362 127.416 140.353 127.528C140.353 127.631 140.348 127.747 140.339 127.878H134.935C134.982 128.55 135.201 129.063 135.593 129.418C135.994 129.763 136.456 129.936 136.979 129.936C137.399 129.936 137.749 129.843 138.029 129.656C138.318 129.46 138.533 129.199 138.673 128.872H140.157C139.97 129.525 139.597 130.071 139.037 130.51C138.486 130.949 137.8 131.168 136.979 131.168ZM136.979 125.106C136.484 125.106 136.046 125.255 135.663 125.554C135.28 125.843 135.047 126.282 134.963 126.87H138.883C138.855 126.329 138.664 125.899 138.309 125.582C137.954 125.265 137.511 125.106 136.979 125.106ZM142.107 131V124.056H143.437L143.563 125.372C143.805 124.915 144.141 124.555 144.571 124.294C145.009 124.023 145.537 123.888 146.153 123.888V125.442H145.747C145.336 125.442 144.967 125.512 144.641 125.652C144.323 125.783 144.067 126.011 143.871 126.338C143.684 126.655 143.591 127.099 143.591 127.668V131H142.107ZM25.6378 154.08V144.056H26.9678L27.1218 145.134C27.3458 144.807 27.6538 144.518 28.0458 144.266C28.4378 144.014 28.9418 143.888 29.5578 143.888C30.2298 143.888 30.8225 144.047 31.3358 144.364C31.8491 144.681 32.2505 145.115 32.5398 145.666C32.8385 146.217 32.9878 146.842 32.9878 147.542C32.9878 148.242 32.8385 148.867 32.5398 149.418C32.2505 149.959 31.8491 150.389 31.3358 150.706C30.8225 151.014 30.2251 151.168 29.5438 151.168C29.0025 151.168 28.5218 151.061 28.1018 150.846C27.6911 150.631 27.3645 150.328 27.1218 149.936V154.08H25.6378ZM29.2918 149.88C29.9265 149.88 30.4491 149.665 30.8598 149.236C31.2705 148.797 31.4758 148.228 31.4758 147.528C31.4758 147.071 31.3825 146.665 31.1958 146.31C31.0091 145.955 30.7525 145.68 30.4258 145.484C30.0991 145.279 29.7211 145.176 29.2918 145.176C28.6571 145.176 28.1345 145.395 27.7238 145.834C27.3225 146.273 27.1218 146.837 27.1218 147.528C27.1218 148.228 27.3225 148.797 27.7238 149.236C28.1345 149.665 28.6571 149.88 29.2918 149.88ZM35.6329 142.74C35.3529 142.74 35.1196 142.656 34.9329 142.488C34.7556 142.311 34.6669 142.091 34.6669 141.83C34.6669 141.569 34.7556 141.354 34.9329 141.186C35.1196 141.009 35.3529 140.92 35.6329 140.92C35.9129 140.92 36.1416 141.009 36.3189 141.186C36.5056 141.354 36.5989 141.569 36.5989 141.83C36.5989 142.091 36.5056 142.311 36.3189 142.488C36.1416 142.656 35.9129 142.74 35.6329 142.74ZM34.8909 151V144.056H36.3749V151H34.8909ZM41.8239 151.168C41.1426 151.168 40.5312 151.014 39.9899 150.706C39.4579 150.398 39.0379 149.973 38.7299 149.432C38.4312 148.881 38.2819 148.247 38.2819 147.528C38.2819 146.809 38.4312 146.179 38.7299 145.638C39.0379 145.087 39.4579 144.658 39.9899 144.35C40.5312 144.042 41.1426 143.888 41.8239 143.888C42.6826 143.888 43.4012 144.112 43.9799 144.56C44.5679 145.008 44.9459 145.615 45.1139 146.38H43.5599C43.4666 145.997 43.2612 145.699 42.9439 145.484C42.6266 145.269 42.2532 145.162 41.8239 145.162C41.4599 145.162 41.1239 145.255 40.8159 145.442C40.5079 145.619 40.2606 145.885 40.0739 146.24C39.8872 146.585 39.7939 147.015 39.7939 147.528C39.7939 148.041 39.8872 148.475 40.0739 148.83C40.2606 149.175 40.5079 149.441 40.8159 149.628C41.1239 149.815 41.4599 149.908 41.8239 149.908C42.2532 149.908 42.6266 149.801 42.9439 149.586C43.2612 149.371 43.4666 149.068 43.5599 148.676H45.1139C44.9552 149.423 44.5819 150.025 43.9939 150.482C43.4059 150.939 42.6826 151.168 41.8239 151.168ZM49.6986 151C49.0173 151 48.476 150.837 48.0746 150.51C47.6733 150.174 47.4726 149.581 47.4726 148.732V145.302H46.2826V144.056H47.4726L47.6546 142.292H48.9566V144.056H50.9166V145.302H48.9566V148.732C48.9566 149.115 49.036 149.381 49.1946 149.53C49.3626 149.67 49.6473 149.74 50.0486 149.74H50.8466V151H49.6986ZM55.2088 151.168C54.3688 151.168 53.7061 150.907 53.2208 150.384C52.7448 149.861 52.5068 149.082 52.5068 148.046V144.056H53.9908V147.892C53.9908 149.236 54.5415 149.908 55.6428 149.908C56.1935 149.908 56.6461 149.712 57.0008 149.32C57.3555 148.928 57.5328 148.368 57.5328 147.64V144.056H59.0168V151H57.7008L57.5888 149.782C57.3741 150.211 57.0568 150.552 56.6368 150.804C56.2261 151.047 55.7501 151.168 55.2088 151.168ZM61.1046 151V144.056H62.4346L62.5606 145.372C62.8033 144.915 63.1393 144.555 63.5686 144.294C64.0073 144.023 64.5346 143.888 65.1506 143.888V145.442H64.7446C64.3339 145.442 63.9653 145.512 63.6386 145.652C63.3213 145.783 63.0646 146.011 62.8686 146.338C62.6819 146.655 62.5886 147.099 62.5886 147.668V151H61.1046ZM69.6796 151.168C68.9982 151.168 68.3916 151.019 67.8596 150.72C67.3369 150.412 66.9262 149.987 66.6276 149.446C66.3289 148.905 66.1796 148.275 66.1796 147.556C66.1796 146.828 66.3242 146.189 66.6136 145.638C66.9122 145.087 67.3229 144.658 67.8456 144.35C68.3776 144.042 68.9936 143.888 69.6936 143.888C70.3749 143.888 70.9676 144.042 71.4716 144.35C71.9756 144.649 72.3676 145.05 72.6476 145.554C72.9276 146.058 73.0676 146.613 73.0676 147.22C73.0676 147.313 73.0629 147.416 73.0536 147.528C73.0536 147.631 73.0489 147.747 73.0396 147.878H67.6356C67.6822 148.55 67.9016 149.063 68.2936 149.418C68.6949 149.763 69.1569 149.936 69.6796 149.936C70.0996 149.936 70.4496 149.843 70.7296 149.656C71.0189 149.46 71.2336 149.199 71.3736 148.872H72.8576C72.6709 149.525 72.2976 150.071 71.7376 150.51C71.1869 150.949 70.5009 151.168 69.6796 151.168ZM69.6796 145.106C69.1849 145.106 68.7462 145.255 68.3636 145.554C67.9809 145.843 67.7476 146.282 67.6636 146.87H71.5836C71.5556 146.329 71.3642 145.899 71.0096 145.582C70.6549 145.265 70.2116 145.106 69.6796 145.106ZM78.8847 151V145.302H77.8907V144.056H78.8847V143.048C78.8847 142.292 79.0713 141.751 79.4447 141.424C79.8273 141.088 80.364 140.92 81.0547 140.92H81.7827V142.18H81.2787C80.952 142.18 80.7187 142.25 80.5787 142.39C80.4387 142.521 80.3687 142.745 80.3687 143.062V144.056H81.9647V145.302H80.3687V151H78.8847ZM86.5491 151.168C85.8864 151.168 85.2891 151.019 84.7571 150.72C84.2344 150.412 83.8191 149.987 83.5111 149.446C83.2031 148.895 83.0491 148.256 83.0491 147.528C83.0491 146.8 83.2031 146.165 83.5111 145.624C83.8284 145.073 84.2531 144.649 84.7851 144.35C85.3171 144.042 85.9098 143.888 86.5631 143.888C87.2258 143.888 87.8184 144.042 88.3411 144.35C88.8731 144.649 89.2931 145.073 89.6011 145.624C89.9184 146.165 90.0771 146.8 90.0771 147.528C90.0771 148.256 89.9184 148.895 89.6011 149.446C89.2931 149.987 88.8731 150.412 88.3411 150.72C87.8091 151.019 87.2118 151.168 86.5491 151.168ZM86.5491 149.894C86.9038 149.894 87.2304 149.805 87.5291 149.628C87.8371 149.451 88.0844 149.189 88.2711 148.844C88.4578 148.489 88.5511 148.051 88.5511 147.528C88.5511 147.005 88.4578 146.571 88.2711 146.226C88.0938 145.871 87.8511 145.605 87.5431 145.428C87.2444 145.251 86.9178 145.162 86.5631 145.162C86.2084 145.162 85.8771 145.251 85.5691 145.428C85.2704 145.605 85.0278 145.871 84.8411 146.226C84.6544 146.571 84.5611 147.005 84.5611 147.528C84.5611 148.051 84.6544 148.489 84.8411 148.844C85.0278 149.189 85.2704 149.451 85.5691 149.628C85.8678 149.805 86.1944 149.894 86.5491 149.894ZM91.8819 151V144.056H93.2119L93.3379 145.372C93.5806 144.915 93.9166 144.555 94.3459 144.294C94.7846 144.023 95.3119 143.888 95.9279 143.888V145.442H95.5219C95.1113 145.442 94.7426 145.512 94.4159 145.652C94.0986 145.783 93.8419 146.011 93.6459 146.338C93.4593 146.655 93.3659 147.099 93.3659 147.668V151H91.8819ZM104.04 151C103.358 151 102.817 150.837 102.416 150.51C102.014 150.174 101.814 149.581 101.814 148.732V145.302H100.624V144.056H101.814L101.996 142.292H103.298V144.056H105.258V145.302H103.298V148.732C103.298 149.115 103.377 149.381 103.536 149.53C103.704 149.67 103.988 149.74 104.39 149.74H105.188V151H104.04ZM106.988 151V140.92H108.472V145.176C108.705 144.775 109.027 144.462 109.438 144.238C109.858 144.005 110.32 143.888 110.824 143.888C111.654 143.888 112.308 144.149 112.784 144.672C113.26 145.195 113.498 145.974 113.498 147.01V151H112.028V147.164C112.028 145.82 111.491 145.148 110.418 145.148C109.858 145.148 109.391 145.344 109.018 145.736C108.654 146.128 108.472 146.688 108.472 147.416V151H106.988ZM116.286 142.74C116.006 142.74 115.772 142.656 115.586 142.488C115.408 142.311 115.32 142.091 115.32 141.83C115.32 141.569 115.408 141.354 115.586 141.186C115.772 141.009 116.006 140.92 116.286 140.92C116.566 140.92 116.794 141.009 116.972 141.186C117.158 141.354 117.252 141.569 117.252 141.83C117.252 142.091 117.158 142.311 116.972 142.488C116.794 142.656 116.566 142.74 116.286 142.74ZM115.544 151V144.056H117.028V151H115.544ZM121.959 151.168C121.081 151.168 120.358 150.953 119.789 150.524C119.219 150.095 118.893 149.525 118.809 148.816H120.307C120.381 149.133 120.559 149.409 120.839 149.642C121.119 149.866 121.487 149.978 121.945 149.978C122.393 149.978 122.719 149.885 122.925 149.698C123.13 149.511 123.233 149.297 123.233 149.054C123.233 148.699 123.088 148.461 122.799 148.34C122.519 148.209 122.127 148.093 121.623 147.99C121.231 147.906 120.839 147.794 120.447 147.654C120.064 147.514 119.742 147.318 119.481 147.066C119.229 146.805 119.103 146.455 119.103 146.016C119.103 145.409 119.336 144.905 119.803 144.504C120.269 144.093 120.923 143.888 121.763 143.888C122.537 143.888 123.163 144.075 123.639 144.448C124.124 144.821 124.409 145.349 124.493 146.03H123.065C123.018 145.731 122.878 145.498 122.645 145.33C122.421 145.162 122.117 145.078 121.735 145.078C121.361 145.078 121.072 145.157 120.867 145.316C120.661 145.465 120.559 145.661 120.559 145.904C120.559 146.147 120.699 146.338 120.979 146.478C121.268 146.618 121.646 146.744 122.113 146.856C122.579 146.959 123.009 147.08 123.401 147.22C123.802 147.351 124.124 147.547 124.367 147.808C124.609 148.069 124.731 148.452 124.731 148.956C124.74 149.591 124.493 150.118 123.989 150.538C123.494 150.958 122.817 151.168 121.959 151.168ZM133.526 151.168C132.845 151.168 132.238 151.019 131.706 150.72C131.183 150.412 130.773 149.987 130.474 149.446C130.175 148.905 130.026 148.275 130.026 147.556C130.026 146.828 130.171 146.189 130.46 145.638C130.759 145.087 131.169 144.658 131.692 144.35C132.224 144.042 132.84 143.888 133.54 143.888C134.221 143.888 134.814 144.042 135.318 144.35C135.822 144.649 136.214 145.05 136.494 145.554C136.774 146.058 136.914 146.613 136.914 147.22C136.914 147.313 136.909 147.416 136.9 147.528C136.9 147.631 136.895 147.747 136.886 147.878H131.482C131.529 148.55 131.748 149.063 132.14 149.418C132.541 149.763 133.003 149.936 133.526 149.936C133.946 149.936 134.296 149.843 134.576 149.656C134.865 149.46 135.08 149.199 135.22 148.872H136.704C136.517 149.525 136.144 150.071 135.584 150.51C135.033 150.949 134.347 151.168 133.526 151.168ZM133.526 145.106C133.031 145.106 132.593 145.255 132.21 145.554C131.827 145.843 131.594 146.282 131.51 146.87H135.43C135.402 146.329 135.211 145.899 134.856 145.582C134.501 145.265 134.058 145.106 133.526 145.106ZM140.326 151L137.722 144.056H139.276L141.208 149.586L143.14 144.056H144.68L142.09 151H140.326ZM148.992 151.168C148.311 151.168 147.704 151.019 147.172 150.72C146.65 150.412 146.239 149.987 145.94 149.446C145.642 148.905 145.492 148.275 145.492 147.556C145.492 146.828 145.637 146.189 145.926 145.638C146.225 145.087 146.636 144.658 147.158 144.35C147.69 144.042 148.306 143.888 149.006 143.888C149.688 143.888 150.28 144.042 150.784 144.35C151.288 144.649 151.68 145.05 151.96 145.554C152.24 146.058 152.38 146.613 152.38 147.22C152.38 147.313 152.376 147.416 152.366 147.528C152.366 147.631 152.362 147.747 152.352 147.878H146.948C146.995 148.55 147.214 149.063 147.606 149.418C148.008 149.763 148.47 149.936 148.992 149.936C149.412 149.936 149.762 149.843 150.042 149.656C150.332 149.46 150.546 149.199 150.686 148.872H152.17C151.984 149.525 151.61 150.071 151.05 150.51C150.5 150.949 149.814 151.168 148.992 151.168ZM148.992 145.106C148.498 145.106 148.059 145.255 147.676 145.554C147.294 145.843 147.06 146.282 146.976 146.87H150.896C150.868 146.329 150.677 145.899 150.322 145.582C149.968 145.265 149.524 145.106 148.992 145.106ZM154.12 151V144.056H155.436L155.548 145.274C155.763 144.845 156.076 144.509 156.486 144.266C156.906 144.014 157.387 143.888 157.928 143.888C158.768 143.888 159.426 144.149 159.902 144.672C160.388 145.195 160.63 145.974 160.63 147.01V151H159.16V147.164C159.16 145.82 158.61 145.148 157.508 145.148C156.958 145.148 156.5 145.344 156.136 145.736C155.782 146.128 155.604 146.688 155.604 147.416V151H154.12ZM165.49 151C164.809 151 164.267 150.837 163.866 150.51C163.465 150.174 163.264 149.581 163.264 148.732V145.302H162.074V144.056H163.264L163.446 142.292H164.748V144.056H166.708V145.302H164.748V148.732C164.748 149.115 164.827 149.381 164.986 149.53C165.154 149.67 165.439 149.74 165.84 149.74H166.638V151H165.49Z" fill="#FAFAFA"/>
<path d="M50.4928 181.168C49.7742 181.168 49.1442 181.042 48.6028 180.79C48.0615 180.538 47.6368 180.179 47.3288 179.712C47.0302 179.245 46.8762 178.69 46.8668 178.046H48.4348C48.4442 178.569 48.6262 179.012 48.9808 179.376C49.3355 179.74 49.8348 179.922 50.4788 179.922C51.0482 179.922 51.4915 179.787 51.8088 179.516C52.1355 179.236 52.2988 178.881 52.2988 178.452C52.2988 178.107 52.2195 177.827 52.0608 177.612C51.9115 177.397 51.7015 177.22 51.4308 177.08C51.1695 176.94 50.8662 176.814 50.5208 176.702C50.1755 176.59 49.8115 176.469 49.4288 176.338C48.6728 176.086 48.1035 175.759 47.7208 175.358C47.3475 174.957 47.1608 174.429 47.1608 173.776C47.1515 173.225 47.2775 172.745 47.5388 172.334C47.8095 171.923 48.1828 171.606 48.6588 171.382C49.1442 171.149 49.7088 171.032 50.3528 171.032C50.9875 171.032 51.5428 171.149 52.0188 171.382C52.5042 171.615 52.8822 171.942 53.1528 172.362C53.4235 172.773 53.5635 173.253 53.5728 173.804H52.0048C52.0048 173.552 51.9395 173.314 51.8088 173.09C51.6782 172.857 51.4868 172.665 51.2348 172.516C50.9828 172.367 50.6748 172.292 50.3108 172.292C49.8442 172.283 49.4568 172.399 49.1488 172.642C48.8502 172.885 48.7008 173.221 48.7008 173.65C48.7008 174.033 48.8128 174.327 49.0368 174.532C49.2608 174.737 49.5688 174.91 49.9608 175.05C50.3528 175.181 50.8008 175.335 51.3048 175.512C51.7902 175.671 52.2242 175.862 52.6068 176.086C52.9895 176.31 53.2928 176.604 53.5168 176.968C53.7502 177.332 53.8668 177.794 53.8668 178.354C53.8668 178.849 53.7408 179.311 53.4888 179.74C53.2368 180.16 52.8588 180.505 52.3548 180.776C51.8508 181.037 51.2302 181.168 50.4928 181.168ZM56.4733 172.74C56.1933 172.74 55.96 172.656 55.7733 172.488C55.596 172.311 55.5073 172.091 55.5073 171.83C55.5073 171.569 55.596 171.354 55.7733 171.186C55.96 171.009 56.1933 170.92 56.4733 170.92C56.7533 170.92 56.982 171.009 57.1593 171.186C57.346 171.354 57.4393 171.569 57.4393 171.83C57.4393 172.091 57.346 172.311 57.1593 172.488C56.982 172.656 56.7533 172.74 56.4733 172.74ZM55.7313 181V174.056H57.2153V181H55.7313ZM58.9123 181V179.796L62.6223 175.288H58.9683V174.056H64.3023V175.26L60.5643 179.768H64.3723V181H58.9123ZM69.3438 181.168C68.6625 181.168 68.0558 181.019 67.5238 180.72C67.0011 180.412 66.5905 179.987 66.2918 179.446C65.9931 178.905 65.8438 178.275 65.8438 177.556C65.8438 176.828 65.9885 176.189 66.2778 175.638C66.5765 175.087 66.9871 174.658 67.5098 174.35C68.0418 174.042 68.6578 173.888 69.3578 173.888C70.0391 173.888 70.6318 174.042 71.1358 174.35C71.6398 174.649 72.0318 175.05 72.3118 175.554C72.5918 176.058 72.7318 176.613 72.7318 177.22C72.7318 177.313 72.7271 177.416 72.7178 177.528C72.7178 177.631 72.7131 177.747 72.7038 177.878H67.2998C67.3465 178.55 67.5658 179.063 67.9578 179.418C68.3591 179.763 68.8211 179.936 69.3438 179.936C69.7638 179.936 70.1138 179.843 70.3938 179.656C70.6831 179.46 70.8978 179.199 71.0378 178.872H72.5218C72.3351 179.525 71.9618 180.071 71.4018 180.51C70.8511 180.949 70.1651 181.168 69.3438 181.168ZM69.3438 175.106C68.8491 175.106 68.4105 175.255 68.0278 175.554C67.6451 175.843 67.4118 176.282 67.3278 176.87H71.2478C71.2198 176.329 71.0285 175.899 70.6738 175.582C70.3191 175.265 69.8758 175.106 69.3438 175.106ZM75.0596 181.084C74.7796 181.084 74.5463 180.995 74.3596 180.818C74.1823 180.631 74.0936 180.412 74.0936 180.16C74.0936 179.899 74.1823 179.679 74.3596 179.502C74.5463 179.315 74.7796 179.222 75.0596 179.222C75.3396 179.222 75.5683 179.315 75.7456 179.502C75.9229 179.679 76.0116 179.899 76.0116 180.16C76.0116 180.412 75.9229 180.631 75.7456 180.818C75.5683 180.995 75.3396 181.084 75.0596 181.084ZM75.0596 175.75C74.7796 175.75 74.5463 175.661 74.3596 175.484C74.1823 175.297 74.0936 175.078 74.0936 174.826C74.0936 174.565 74.1823 174.345 74.3596 174.168C74.5463 173.981 74.7796 173.888 75.0596 173.888C75.3396 173.888 75.5683 173.981 75.7456 174.168C75.9229 174.345 76.0116 174.565 76.0116 174.826C76.0116 175.078 75.9229 175.297 75.7456 175.484C75.5683 175.661 75.3396 175.75 75.0596 175.75ZM84.9471 181.168C84.2564 181.168 83.6591 181.047 83.1551 180.804C82.6511 180.552 82.2498 180.211 81.9511 179.782C81.6618 179.343 81.4844 178.849 81.4191 178.298H82.8751C82.9684 178.765 83.2018 179.152 83.5751 179.46C83.9484 179.759 84.4104 179.908 84.9611 179.908C85.3718 179.908 85.7264 179.81 86.0251 179.614C86.3238 179.409 86.5571 179.138 86.7251 178.802C86.8931 178.466 86.9771 178.088 86.9771 177.668C86.9771 177.005 86.7904 176.478 86.4171 176.086C86.0438 175.685 85.5724 175.484 85.0031 175.484C84.5178 175.484 84.1024 175.601 83.7571 175.834C83.4118 176.058 83.1598 176.343 83.0011 176.688H81.5871L82.4271 171.2H87.7191V172.502H83.5471L83.0431 175.12C83.2578 174.877 83.5518 174.677 83.9251 174.518C84.3078 174.35 84.7371 174.266 85.2131 174.266C85.8758 174.266 86.4451 174.42 86.9211 174.728C87.3971 175.027 87.7611 175.433 88.0131 175.946C88.2744 176.459 88.4051 177.029 88.4051 177.654C88.4051 178.307 88.2651 178.9 87.9851 179.432C87.7051 179.964 87.3038 180.389 86.7811 180.706C86.2678 181.014 85.6564 181.168 84.9471 181.168ZM94.2781 181.168C93.3914 181.168 92.6261 180.958 91.9821 180.538C91.3474 180.109 90.8574 179.516 90.5121 178.76C90.1761 177.995 90.0081 177.108 90.0081 176.1C90.0081 175.092 90.1761 174.21 90.5121 173.454C90.8574 172.689 91.3474 172.096 91.9821 171.676C92.6261 171.247 93.3914 171.032 94.2781 171.032C95.1647 171.032 95.9254 171.247 96.5601 171.676C97.1947 172.096 97.6801 172.689 98.0161 173.454C98.3614 174.21 98.5341 175.092 98.5341 176.1C98.5341 177.108 98.3614 177.995 98.0161 178.76C97.6801 179.516 97.1947 180.109 96.5601 180.538C95.9254 180.958 95.1647 181.168 94.2781 181.168ZM94.2781 179.838C94.8101 179.838 95.2814 179.689 95.6921 179.39C96.1121 179.091 96.4387 178.662 96.6721 178.102C96.9054 177.542 97.0221 176.875 97.0221 176.1C97.0221 175.325 96.9054 174.658 96.6721 174.098C96.4387 173.538 96.1121 173.109 95.6921 172.81C95.2814 172.511 94.8101 172.362 94.2781 172.362C93.7367 172.362 93.2607 172.511 92.8501 172.81C92.4394 173.109 92.1174 173.538 91.8841 174.098C91.6507 174.658 91.5341 175.325 91.5341 176.1C91.5341 176.875 91.6507 177.542 91.8841 178.102C92.1174 178.662 92.4394 179.091 92.8501 179.39C93.2607 179.689 93.7367 179.838 94.2781 179.838ZM104.308 181.168C103.421 181.168 102.656 180.958 102.012 180.538C101.377 180.109 100.887 179.516 100.542 178.76C100.206 177.995 100.038 177.108 100.038 176.1C100.038 175.092 100.206 174.21 100.542 173.454C100.887 172.689 101.377 172.096 102.012 171.676C102.656 171.247 103.421 171.032 104.308 171.032C105.195 171.032 105.955 171.247 106.59 171.676C107.225 172.096 107.71 172.689 108.046 173.454C108.391 174.21 108.564 175.092 108.564 176.1C108.564 177.108 108.391 177.995 108.046 178.76C107.71 179.516 107.225 180.109 106.59 180.538C105.955 180.958 105.195 181.168 104.308 181.168ZM104.308 179.838C104.84 179.838 105.311 179.689 105.722 179.39C106.142 179.091 106.469 178.662 106.702 178.102C106.935 177.542 107.052 176.875 107.052 176.1C107.052 175.325 106.935 174.658 106.702 174.098C106.469 173.538 106.142 173.109 105.722 172.81C105.311 172.511 104.84 172.362 104.308 172.362C103.767 172.362 103.291 172.511 102.88 172.81C102.469 173.109 102.147 173.538 101.914 174.098C101.681 174.658 101.564 175.325 101.564 176.1C101.564 176.875 101.681 177.542 101.914 178.102C102.147 178.662 102.469 179.091 102.88 179.39C103.291 179.689 103.767 179.838 104.308 179.838ZM109.69 181L112.154 177.528L109.69 174.056H111.272L113.134 176.716L114.982 174.056H116.578L114.114 177.528L116.578 181H114.982L113.134 178.34L111.272 181H109.69ZM121.458 181.168C120.767 181.168 120.17 181.047 119.666 180.804C119.162 180.552 118.761 180.211 118.462 179.782C118.173 179.343 117.995 178.849 117.93 178.298H119.386C119.479 178.765 119.713 179.152 120.086 179.46C120.459 179.759 120.921 179.908 121.472 179.908C121.883 179.908 122.237 179.81 122.536 179.614C122.835 179.409 123.068 179.138 123.236 178.802C123.404 178.466 123.488 178.088 123.488 177.668C123.488 177.005 123.301 176.478 122.928 176.086C122.555 175.685 122.083 175.484 121.514 175.484C121.029 175.484 120.613 175.601 120.268 175.834C119.923 176.058 119.671 176.343 119.512 176.688H118.098L118.938 171.2H124.23V172.502H120.058L119.554 175.12C119.769 174.877 120.063 174.677 120.436 174.518C120.819 174.35 121.248 174.266 121.724 174.266C122.387 174.266 122.956 174.42 123.432 174.728C123.908 175.027 124.272 175.433 124.524 175.946C124.785 176.459 124.916 177.029 124.916 177.654C124.916 178.307 124.776 178.9 124.496 179.432C124.216 179.964 123.815 180.389 123.292 180.706C122.779 181.014 122.167 181.168 121.458 181.168ZM130.789 181.168C129.902 181.168 129.137 180.958 128.493 180.538C127.858 180.109 127.368 179.516 127.023 178.76C126.687 177.995 126.519 177.108 126.519 176.1C126.519 175.092 126.687 174.21 127.023 173.454C127.368 172.689 127.858 172.096 128.493 171.676C129.137 171.247 129.902 171.032 130.789 171.032C131.676 171.032 132.436 171.247 133.071 171.676C133.706 172.096 134.191 172.689 134.527 173.454C134.872 174.21 135.045 175.092 135.045 176.1C135.045 177.108 134.872 177.995 134.527 178.76C134.191 179.516 133.706 180.109 133.071 180.538C132.436 180.958 131.676 181.168 130.789 181.168ZM130.789 179.838C131.321 179.838 131.792 179.689 132.203 179.39C132.623 179.091 132.95 178.662 133.183 178.102C133.416 177.542 133.533 176.875 133.533 176.1C133.533 175.325 133.416 174.658 133.183 174.098C132.95 173.538 132.623 173.109 132.203 172.81C131.792 172.511 131.321 172.362 130.789 172.362C130.248 172.362 129.772 172.511 129.361 172.81C128.95 173.109 128.628 173.538 128.395 174.098C128.162 174.658 128.045 175.325 128.045 176.1C128.045 176.875 128.162 177.542 128.395 178.102C128.628 178.662 128.95 179.091 129.361 179.39C129.772 179.689 130.248 179.838 130.789 179.838ZM140.819 181.168C139.932 181.168 139.167 180.958 138.523 180.538C137.888 180.109 137.398 179.516 137.053 178.76C136.717 177.995 136.549 177.108 136.549 176.1C136.549 175.092 136.717 174.21 137.053 173.454C137.398 172.689 137.888 172.096 138.523 171.676C139.167 171.247 139.932 171.032 140.819 171.032C141.706 171.032 142.466 171.247 143.101 171.676C143.736 172.096 144.221 172.689 144.557 173.454C144.902 174.21 145.075 175.092 145.075 176.1C145.075 177.108 144.902 177.995 144.557 178.76C144.221 179.516 143.736 180.109 143.101 180.538C142.466 180.958 141.706 181.168 140.819 181.168ZM140.819 179.838C141.351 179.838 141.822 179.689 142.233 179.39C142.653 179.091 142.98 178.662 143.213 178.102C143.446 177.542 143.563 176.875 143.563 176.1C143.563 175.325 143.446 174.658 143.213 174.098C142.98 173.538 142.653 173.109 142.233 172.81C141.822 172.511 141.351 172.362 140.819 172.362C140.278 172.362 139.802 172.511 139.391 172.81C138.98 173.109 138.658 173.538 138.425 174.098C138.192 174.658 138.075 175.325 138.075 176.1C138.075 176.875 138.192 177.542 138.425 178.102C138.658 178.662 138.98 179.091 139.391 179.39C139.802 179.689 140.278 179.838 140.819 179.838Z" fill="#FAFAFA"/>
</svg>
