<svg width="32" height="32" viewBox="0 0 32 32" fill="none" xmlns="http://www.w3.org/2000/svg">
<path d="M15.9974 9.83594C14.3622 9.83594 12.794 10.4855 11.6378 11.6417C10.4816 12.7979 9.83203 14.3661 9.83203 16.0013C9.83203 17.6364 10.4816 19.2046 11.6378 20.3608C12.794 21.517 14.3622 22.1666 15.9974 22.1666C17.6325 22.1666 19.2007 21.517 20.3569 20.3608C21.5131 19.2046 22.1627 17.6364 22.1627 16.0013C22.1627 14.3661 21.5131 12.7979 20.3569 11.6417C19.2007 10.4855 17.6325 9.83594 15.9974 9.83594ZM15.9974 20.0053C14.9351 20.0053 13.9163 19.5833 13.1652 18.8321C12.414 18.081 11.992 17.0622 11.992 15.9999C11.992 14.9377 12.414 13.9189 13.1652 13.1677C13.9163 12.4166 14.9351 11.9946 15.9974 11.9946C17.0596 11.9946 18.0784 12.4166 18.8296 13.1677C19.5807 13.9189 20.0027 14.9377 20.0027 15.9999C20.0027 17.0622 19.5807 18.081 18.8296 18.8321C18.0784 19.5833 17.0596 20.0053 15.9974 20.0053Z" fill="white"/>
<path d="M22.4061 11.0465C23.1999 11.0465 23.8434 10.403 23.8434 9.60921C23.8434 8.81539 23.1999 8.17188 22.4061 8.17188C21.6123 8.17188 20.9688 8.81539 20.9688 9.60921C20.9688 10.403 21.6123 11.0465 22.4061 11.0465Z" fill="white"/>
<path d="M27.3786 8.14719C27.0699 7.3501 26.5982 6.62624 25.9937 6.02194C25.3892 5.41764 24.6651 4.94622 23.8679 4.63786C22.935 4.28767 21.9495 4.09831 20.9532 4.07786C19.6692 4.02186 19.2626 4.00586 16.0066 4.00586C12.7506 4.00586 12.3332 4.00586 11.0599 4.07786C10.0644 4.09727 9.07958 4.28666 8.14791 4.63786C7.35049 4.94586 6.62626 5.41715 6.02169 6.0215C5.41711 6.62584 4.94554 7.34989 4.63724 8.14719C4.28698 9.08001 4.09806 10.0656 4.07857 11.0619C4.02124 12.3445 4.00391 12.7512 4.00391 16.0085C4.00391 19.2645 4.00391 19.6792 4.07857 20.9552C4.09857 21.9525 4.28657 22.9365 4.63724 23.8712C4.94641 24.6682 5.41843 25.392 6.02315 25.9962C6.62787 26.6005 7.35199 27.072 8.14924 27.3805C9.07915 27.7448 10.0644 27.9477 11.0626 27.9805C12.3466 28.0365 12.7532 28.0539 16.0092 28.0539C19.2652 28.0539 19.6826 28.0539 20.9559 27.9805C21.952 27.9603 22.9375 27.7714 23.8706 27.4219C24.6676 27.1128 25.3914 26.641 25.9959 26.0365C26.6003 25.432 27.0722 24.7082 27.3812 23.9112C27.7319 22.9779 27.9199 21.9939 27.9399 20.9965C27.9972 19.7139 28.0146 19.3072 28.0146 16.0499C28.0146 12.7925 28.0146 12.3792 27.9399 11.1032C27.9244 10.0929 27.7345 9.09286 27.3786 8.14719ZM25.7546 20.8565C25.746 21.6249 25.6057 22.3862 25.3399 23.1072C25.1397 23.6257 24.8331 24.0965 24.44 24.4894C24.0469 24.8823 23.5758 25.1886 23.0572 25.3885C22.3442 25.6531 21.5911 25.7934 20.8306 25.8032C19.5639 25.8619 19.2066 25.8765 15.9586 25.8765C12.7079 25.8765 12.3759 25.8765 11.0852 25.8032C10.3251 25.7939 9.57234 25.6536 8.85991 25.3885C8.33949 25.1898 7.86658 24.8841 7.47176 24.4911C7.07694 24.0982 6.76902 23.6267 6.56791 23.1072C6.30583 22.3939 6.16565 21.6416 6.15324 20.8819C6.09591 19.6152 6.08257 19.2579 6.08257 16.0099C6.08257 12.7605 6.08257 12.4285 6.15324 11.1365C6.16186 10.3686 6.30211 9.60775 6.56791 8.88719C6.97457 7.83519 7.80791 7.00719 8.85991 6.60453C9.57269 6.34071 10.3253 6.20048 11.0852 6.18986C12.3532 6.13253 12.7092 6.11653 15.9586 6.11653C19.2079 6.11653 19.5412 6.11653 20.8306 6.18986C21.5911 6.19901 22.3444 6.33929 23.0572 6.60453C23.5758 6.80489 24.0468 7.11146 24.4399 7.50457C24.833 7.89767 25.1395 8.36862 25.3399 8.88719C25.602 9.60046 25.7422 10.3527 25.7546 11.1125C25.8119 12.3805 25.8266 12.7365 25.8266 15.9859C25.8266 19.2339 25.8266 19.5832 25.7692 20.8579H25.7546V20.8565Z" fill="white"/>
</svg>
