<svg width="80" height="80" viewBox="0 0 80 80" fill="none" xmlns="http://www.w3.org/2000/svg">
<rect width="80" height="80" rx="40" fill="#00BCD4" fill-opacity="0.25"/>
<path d="M49.4539 40.7859C49.2406 40.7859 49.0272 40.7192 48.8406 40.5726C43.4672 36.4259 36.5206 36.4259 31.1472 40.5726C30.7072 40.9059 30.0806 40.8259 29.7472 40.3992C29.4139 39.9592 29.4939 39.3326 29.9206 38.9992C36.0406 34.2659 43.9472 34.2659 50.0539 38.9992C50.4939 39.3326 50.5739 39.9592 50.2272 40.3992C50.0539 40.6526 49.7606 40.7859 49.4539 40.7859Z" fill="#00BCD3"/>
<path d="M53.3333 36.1459C53.12 36.1459 52.9067 36.0792 52.72 35.9326C44.9867 29.9592 35 29.9592 27.28 35.9326C26.84 36.2659 26.2133 36.1859 25.88 35.7592C25.5333 35.3326 25.6133 34.6926 26.0533 34.3592C34.52 27.8126 45.4667 27.8126 53.9467 34.3592C54.3867 34.6926 54.4667 35.3192 54.12 35.7592C53.9333 36.0126 53.6267 36.1459 53.3333 36.1459Z" fill="#00BCD3"/>
<path d="M46.9468 45.6537C46.7334 45.6537 46.5201 45.587 46.3334 45.4404C42.4934 42.467 37.5201 42.467 33.6668 45.4404C33.2268 45.7737 32.6001 45.6937 32.2668 45.267C31.9334 44.827 32.0134 44.2004 32.4401 43.867C37.0268 40.3204 42.9601 40.3204 47.5468 43.867C47.9868 44.2004 48.0668 44.827 47.7201 45.267C47.5334 45.5204 47.2401 45.6537 46.9468 45.6537Z" fill="#00BCD3"/>
<path d="M43.4669 50.5333C43.2536 50.5333 43.0402 50.4666 42.8536 50.32C41.1202 48.9733 38.8669 48.9733 37.1336 50.32C36.6936 50.6533 36.0669 50.5733 35.7336 50.1466C35.4002 49.7066 35.4802 49.08 35.9069 48.7466C38.3869 46.8266 41.5869 46.8266 44.0669 48.7466C44.5069 49.08 44.5869 49.7066 44.2402 50.1466C44.0669 50.3866 43.7736 50.5333 43.4669 50.5333Z" fill="#00BCD3"/>
</svg>
