<svg width="44" height="45" viewBox="0 0 44 45" fill="none" xmlns="http://www.w3.org/2000/svg">
<rect y="0.5" width="44" height="44" rx="6" fill="#FAFAFA"/>
<path fill-rule="evenodd" clip-rule="evenodd" d="M22.8046 31.6333C24.6442 29.5713 29 24.199 29 19.5588C29 15.6603 25.866 12.5 22 12.5C18.134 12.5 15 15.6603 15 19.5588C15 24.199 19.3558 29.5713 21.1954 31.6333C21.6305 32.121 22.3695 32.121 22.8046 31.6333ZM22 22.5C23.6569 22.5 25 21.1569 25 19.5C25 17.8431 23.6569 16.5 22 16.5C20.3431 16.5 19 17.8431 19 19.5C19 21.1569 20.3431 22.5 22 22.5Z" fill="#5B45FF"/>
</svg>
