<svg width="10" height="14" viewBox="0 0 10 14" fill="none" xmlns="http://www.w3.org/2000/svg">
<path fill-rule="evenodd" clip-rule="evenodd" d="M5.39903 13.6348C6.53294 12.3859 9.66146 8.64919 9.66146 5.4383C9.66146 2.83932 7.57212 0.732422 4.99479 0.732422C2.41746 0.732422 0.328125 2.83932 0.328125 5.4383C0.328125 8.64919 3.45664 12.3859 4.59056 13.6348C4.81023 13.8767 5.17935 13.8767 5.39903 13.6348ZM4.99414 7.39893C6.09871 7.39893 6.99414 6.5035 6.99414 5.39893C6.99414 4.29436 6.09871 3.39893 4.99414 3.39893C3.88957 3.39893 2.99414 4.29436 2.99414 5.39893C2.99414 6.5035 3.88957 7.39893 4.99414 7.39893Z" fill="white"/>
</svg>
