<svg width="20" height="20" viewBox="0 0 20 20" fill="none" xmlns="http://www.w3.org/2000/svg">
<path fill-rule="evenodd" clip-rule="evenodd" d="M14.6016 6.16336V7.44114C16.0369 7.88915 17.0827 9.18847 17.0827 10.7404V14.8544C17.0827 16.7757 15.4899 18.3334 13.5262 18.3334H6.47335C4.50881 18.3334 2.91602 16.7757 2.91602 14.8544V10.7404C2.91602 9.18847 3.96264 7.88915 5.39709 7.44114V6.16336C5.40556 3.67901 7.46324 1.66669 9.98665 1.66669C12.5439 1.66669 14.6016 3.67901 14.6016 6.16336ZM10.0036 3.11589C11.7226 3.11589 13.1197 4.48228 13.1197 6.16336V7.26144H6.87896V6.1468C6.88742 4.474 8.28462 3.11589 10.0036 3.11589ZM10.7403 13.7125C10.7403 14.1182 10.41 14.4412 9.99511 14.4412C9.58866 14.4412 9.25841 14.1182 9.25841 13.7125V11.874C9.25841 11.4766 9.58866 11.1536 9.99511 11.1536C10.41 11.1536 10.7403 11.4766 10.7403 11.874V13.7125Z" fill="#9E9E9E"/>
</svg>
