<svg width="72" height="72" viewBox="0 0 72 72" fill="none" xmlns="http://www.w3.org/2000/svg">
<rect width="72" height="72.0005" rx="4" fill="#09090B"/>
<path fill-rule="evenodd" clip-rule="evenodd" d="M32.4495 71.9994H6.90975C3.10917 71.9994 0 68.8903 0 65.0913V45.5356L0.146797 45.6662L10.3154 54.6925L17.259 60.8563C19.0352 62.4329 21.77 62.27 23.3466 60.4938L49.7936 30.7021C51.3702 28.926 54.1051 28.763 55.8813 30.3396L59.5997 33.6409C61.3759 35.2175 61.5389 37.9522 59.9623 39.7299L33.5153 69.5215C32.8797 70.2379 32.5259 71.1113 32.4481 71.9994H32.4495Z" fill="#E1AFFD"/>
<path fill-rule="evenodd" clip-rule="evenodd" d="M71.9982 46.6523V65.0925C71.9982 68.8929 68.889 72.0005 65.0884 72.0005H49.4941L71.9967 46.6523H71.9982Z" fill="#E1AFFD"/>
<path fill-rule="evenodd" clip-rule="evenodd" d="M39.5491 0.00146793H65.0904C68.8895 0.00146793 72.0001 3.11054 72.0001 6.91101V26.4668L71.8533 26.3361L61.6847 17.3084L54.7412 11.1445C52.9649 9.56796 50.2301 9.72943 48.6535 11.5056L22.2065 41.2972C20.6299 43.0734 17.8951 43.2364 16.1173 41.6598L12.399 38.3585C10.6227 36.7819 10.4598 34.0471 12.0364 32.271L38.4834 2.47933C39.119 1.76298 39.4728 0.889565 39.5506 0L39.5491 0.00146793Z" fill="#E1AFFD"/>
<path fill-rule="evenodd" clip-rule="evenodd" d="M6.90828 0H22.5026L0 25.3497V6.90954C0 3.10907 3.10917 0 6.90975 0L6.90828 0Z" fill="#E1AFFD"/>
</svg>
