<svg width="24" height="25" viewBox="0 0 24 25" fill="none" xmlns="http://www.w3.org/2000/svg">
<path d="M8.91919 3.11914C8.06717 3.11908 7.54819 3.11904 7.10051 3.18994C4.64013 3.57963 2.71049 5.50927 2.3208 7.96965C2.2499 8.41733 2.24994 8.93631 2.25 9.78833L2.25 15.95C2.24994 16.802 2.2499 17.321 2.3208 17.7686C2.71049 20.229 4.64013 22.1587 7.10051 22.5484C7.54819 22.6193 8.06718 22.6192 8.91921 22.6192L10 22.6191C11.2936 22.6191 12.4894 22.1911 13.4504 21.4692C13.7816 21.2204 13.8485 20.7503 13.5997 20.4191C13.3509 20.0879 12.8808 20.0211 12.5496 20.2698C11.8393 20.8033 10.9576 21.1191 10 21.1191H9.00001C8.04234 21.1191 7.65083 21.1168 7.33516 21.0668C5.51662 20.7788 4.09036 19.3525 3.80233 17.534C3.75234 17.2183 3.75001 16.8268 3.75001 15.8691L3.75001 9.86915C3.75001 8.91148 3.75234 8.51997 3.80233 8.2043C4.09036 6.38576 5.51662 4.9595 7.33516 4.67147C7.65083 4.62148 8.04234 4.61915 9.00001 4.61915H10C10.9576 4.61915 11.8393 4.93498 12.5496 5.46846C12.8808 5.71723 13.3509 5.65041 13.5997 5.31922C13.8485 4.98803 13.7816 4.51788 13.4504 4.26911C12.4894 3.54721 11.2936 3.11915 10 3.11915L8.91919 3.11914Z" fill="#F75555"/>
<path d="M17.466 8.28147C17.1414 8.02412 16.6697 8.07861 16.4123 8.40318C16.155 8.72775 16.2095 9.19948 16.534 9.45683L18.297 10.8547C19.001 11.4129 19.483 11.7965 19.8105 12.1192L7.00001 12.1191C6.58579 12.1191 6.25001 12.4549 6.25001 12.8691C6.25001 13.2834 6.58579 13.6191 7.00001 13.6191L19.8105 13.6192C19.483 13.9418 19.001 14.3254 18.297 14.8836L16.534 16.2815C16.2095 16.5388 16.155 17.0105 16.4123 17.3351C16.6697 17.6597 17.1414 17.7142 17.466 17.4568L19.2648 16.0306C19.9372 15.4974 20.4922 15.0574 20.8875 14.6636C21.2932 14.2595 21.6295 13.811 21.7208 13.2378C21.7402 13.1157 21.75 12.9925 21.75 12.8692C21.75 12.7458 21.7402 12.6226 21.7208 12.5005C21.6295 11.9273 21.2932 11.4788 20.8875 11.0747C20.4922 10.6809 19.9373 10.2409 19.2648 9.70772L17.466 8.28147Z" fill="#F75555"/>
</svg>
