<svg width="24" height="25" viewBox="0 0 24 25" fill="none" xmlns="http://www.w3.org/2000/svg">
<path d="M13.05 16.9338H11.17C9.84001 16.9338 8.75 15.8138 8.75 14.4338C8.75 14.0238 9.09 13.6838 9.5 13.6838C9.91 13.6838 10.25 14.0238 10.25 14.4338C10.25 14.9838 10.66 15.4338 11.17 15.4338H13.05C13.44 15.4338 13.75 15.0838 13.75 14.6538C13.75 14.1138 13.6 14.0338 13.26 13.9138L10.25 12.8638C9.61 12.6338 8.75 12.1738 8.75 10.7038C8.75 9.45383 9.74001 8.42383 10.95 8.42383H12.83C14.16 8.42383 15.25 9.54383 15.25 10.9238C15.25 11.3338 14.91 11.6738 14.5 11.6738C14.09 11.6738 13.75 11.3338 13.75 10.9238C13.75 10.3738 13.34 9.92383 12.83 9.92383H10.95C10.56 9.92383 10.25 10.2738 10.25 10.7038C10.25 11.2438 10.4 11.3238 10.74 11.4438L13.75 12.4938C14.39 12.7238 15.25 13.1838 15.25 14.6538C15.25 15.9138 14.26 16.9338 13.05 16.9338Z" fill="#EEECFF"/>
<path d="M12 17.9336C11.59 17.9336 11.25 17.5936 11.25 17.1836V8.18359C11.25 7.77359 11.59 7.43359 12 7.43359C12.41 7.43359 12.75 7.77359 12.75 8.18359V17.1836C12.75 17.5936 12.41 17.9336 12 17.9336Z" fill="#EEECFF"/>
<path d="M12 23.4336C6.07 23.4336 1.25 18.6136 1.25 12.6836C1.25 6.75359 6.07 1.93359 12 1.93359C12.41 1.93359 12.75 2.27359 12.75 2.68359C12.75 3.09359 12.41 3.43359 12 3.43359C6.9 3.43359 2.75 7.58359 2.75 12.6836C2.75 17.7836 6.9 21.9336 12 21.9336C17.1 21.9336 21.25 17.7836 21.25 12.6836C21.25 12.2736 21.59 11.9336 22 11.9336C22.41 11.9336 22.75 12.2736 22.75 12.6836C22.75 18.6136 17.93 23.4336 12 23.4336Z" fill="#EEECFF"/>
<path d="M22 7.43359C21.59 7.43359 21.25 7.09359 21.25 6.68359V3.43359H18C17.59 3.43359 17.25 3.09359 17.25 2.68359C17.25 2.27359 17.59 1.93359 18 1.93359H22C22.41 1.93359 22.75 2.27359 22.75 2.68359V6.68359C22.75 7.09359 22.41 7.43359 22 7.43359Z" fill="#EEECFF"/>
<path d="M16.9999 8.43353C16.8099 8.43353 16.6199 8.36353 16.4699 8.21353C16.1799 7.92353 16.1799 7.44354 16.4699 7.15354L21.4699 2.15354C21.7599 1.86354 22.2399 1.86354 22.5299 2.15354C22.8199 2.44354 22.8199 2.92353 22.5299 3.21353L17.5299 8.21353C17.3799 8.36353 17.1899 8.43353 16.9999 8.43353Z" fill="#EEECFF"/>
</svg>
