<svg width="80" height="81" viewBox="0 0 80 81" fill="none" xmlns="http://www.w3.org/2000/svg">
<rect y="0.5" width="80" height="80" rx="40" fill="#FFEB4F"/>
<path d="M40 25C21.2225 25 6 31.9397 6 40.5C6 49.0604 21.2225 56 40 56C58.7775 56 74 49.0603 74 40.5C74 31.9396 58.7775 25 40 25ZM40 53.553C22.7046 53.553 8.68394 47.709 8.68394 40.5C8.68394 33.291 22.7047 27.447 40 27.447C57.2954 27.447 71.3161 33.291 71.3161 40.5C71.3161 47.709 57.2953 53.553 40 53.553ZM35.7122 37.7807V35.3332H45.304V37.7807H41.8508V45.6668H39.1659V37.7807H35.7122ZM56.8819 35.3332V45.6669H54.1981L49.3303 39.5153V45.6669H46.6463V35.3332H49.3301L54.198 41.4848V35.3332H56.8819ZM23.0381 45.6669V35.3332H25.7221L28.7039 39.5153L31.6858 35.3332H34.3687V45.6669H31.6858V39.8219L29.6501 42.675H27.7578L25.7221 39.8219V45.6669H23.0381Z" fill="black"/>
</svg>
