<svg width="278" height="306" viewBox="0 0 278 306" fill="none" xmlns="http://www.w3.org/2000/svg">
<path d="M143.541 255.539C206.888 255.539 258.242 204.186 258.242 140.838C258.242 77.4906 206.888 26.1372 143.541 26.1372C80.1932 26.1372 28.8398 77.4906 28.8398 140.838C28.8398 204.186 80.1932 255.539 143.541 255.539Z" fill="#5B45FF" fill-opacity="0.25"/>
<path fill-rule="evenodd" clip-rule="evenodd" d="M185.771 197.713C185.678 197.655 185.567 197.621 185.449 197.621C185.115 197.621 184.844 197.892 184.844 198.226V254.532C184.844 254.866 185.115 255.137 185.449 255.137C185.783 255.137 186.054 254.866 186.054 254.532V243.716C193.826 233.671 202.388 231.155 209.007 231.128C212.358 231.114 215.225 231.739 217.253 232.368C218.267 232.682 219.069 232.996 219.616 233.231C219.89 233.348 220.099 233.446 220.238 233.513C220.297 233.541 220.343 233.564 220.376 233.581L227.714 240.918C227.914 241.118 228.238 241.118 228.439 240.918C228.639 240.718 228.639 240.393 228.439 240.193L221.102 232.857C221.086 232.824 221.064 232.779 221.037 232.723C220.972 232.586 220.877 232.38 220.763 232.111C220.534 231.573 220.229 230.783 219.926 229.784C219.319 227.786 218.723 224.959 218.764 221.647C218.847 215.076 221.44 206.54 231.601 198.739H243.242C243.525 198.739 243.754 198.509 243.754 198.226C243.754 197.943 243.525 197.713 243.242 197.713H231.432H231.421H185.771ZM218.492 231.696L209.208 222.413L209.186 222.409C209.062 222.387 208.878 222.356 208.639 222.323C208.162 222.256 207.47 222.178 206.617 222.135C204.91 222.05 202.57 222.105 200.033 222.667C195.05 223.771 189.299 226.825 186.054 234.663V242.07C193.814 232.605 202.318 230.13 209.003 230.102C212.482 230.088 215.454 230.737 217.557 231.388C217.891 231.492 218.203 231.595 218.492 231.696ZM209.894 221.649C209.86 221.599 209.816 221.555 209.766 221.52L209.437 221.192C209.428 221.14 209.419 221.084 209.409 221.025C209.332 220.568 209.24 219.904 209.18 219.084C209.059 217.443 209.066 215.187 209.575 212.725C210.585 207.837 213.573 202.114 221.556 198.739H229.946C220.376 206.52 217.823 214.993 217.739 221.634C217.696 225.074 218.315 228.008 218.944 230.082C219.043 230.407 219.142 230.712 219.239 230.994L209.894 221.649ZM208.157 219.16C208.179 219.455 208.204 219.731 208.232 219.986L201.374 213.129C201.357 213.057 201.334 212.955 201.308 212.825C201.251 212.541 201.181 212.125 201.131 211.612C201.032 210.583 201.017 209.168 201.349 207.623C202.007 204.561 204.036 200.926 209.653 198.739H219.153C212.291 202.334 209.547 207.793 208.57 212.517C208.037 215.096 208.031 217.451 208.157 219.16ZM208.009 221.214C207.622 221.173 207.172 221.136 206.669 221.111C204.897 221.022 202.461 221.079 199.811 221.666C195.029 222.725 189.557 225.513 186.054 232.234V221.673C188.26 216.333 191.885 214.399 194.969 213.778C196.558 213.458 198.015 213.485 199.077 213.594C199.607 213.648 200.036 213.722 200.33 213.782C200.466 213.81 200.573 213.834 200.648 213.853L208.009 221.214ZM194.766 212.773C191.803 213.369 188.426 215.084 186.054 219.316V199.259L199.392 212.597C199.324 212.589 199.253 212.581 199.181 212.574C198.047 212.458 196.482 212.427 194.766 212.773ZM207.189 198.739H186.984L200.128 211.882C200.122 211.826 200.116 211.769 200.11 211.71C200.004 210.606 199.987 209.082 200.346 207.407C200.98 204.46 202.775 201.091 207.189 198.739Z" fill="url(#paint0_linear_1951_44432)"/>
<path fill-rule="evenodd" clip-rule="evenodd" d="M143.724 38.9287C143.151 38.6922 142.537 38.571 141.917 38.5721L141.912 38.5721C140.66 38.5732 139.46 39.0709 138.575 39.9559C137.69 40.8404 137.193 42.0395 137.191 43.2904V49.2298H125.453L125.453 43.2824C125.457 38.9212 127.191 34.7397 130.275 31.6558C133.358 28.5725 137.539 26.8384 141.899 26.834L141.902 26.834C144.063 26.8309 146.204 27.2537 148.202 28.0783C150.201 28.9035 152.018 30.1148 153.549 31.643C155.08 33.1713 156.295 34.9864 157.123 36.9844C157.952 38.9825 158.378 41.1244 158.378 43.2875V49.01H146.64V43.2875C146.64 42.6676 146.518 42.0537 146.281 41.4811C146.043 40.9085 145.695 40.3883 145.256 39.9503C144.818 39.5123 144.297 39.1652 143.724 38.9287ZM141.902 26.834L141.899 26.834L141.902 26.834Z" fill="url(#paint1_linear_1951_44432)"/>
<path d="M142.628 241.041C166.956 241.041 186.678 221.319 186.678 196.991C186.678 172.663 166.956 152.941 142.628 152.941C118.3 152.941 98.5781 172.663 98.5781 196.991C98.5781 221.319 118.3 241.041 142.628 241.041Z" fill="url(#paint2_linear_1951_44432)"/>
<path d="M212.13 148.427V114.632C212.13 96.1982 204.808 78.5196 191.773 65.4851C178.739 52.4506 161.06 45.1279 142.626 45.1279C124.193 45.1279 106.514 52.4506 93.4798 65.4851C80.4453 78.5196 73.1226 96.1982 73.1226 114.632V148.427C73.1234 156.191 70.927 163.797 66.7873 170.365C62.6475 176.934 56.7335 182.197 49.7288 185.546C48.1188 186.312 46.7598 187.521 45.8099 189.03C44.86 190.539 44.3583 192.287 44.3633 194.07V194.253C44.3621 194.897 44.4879 195.535 44.7336 196.13C44.9792 196.726 45.3398 197.267 45.7948 197.723C46.2498 198.179 46.7902 198.54 47.3851 198.787C47.98 199.034 48.6178 199.161 49.2618 199.161H235.982C236.626 199.161 237.264 199.034 237.859 198.787C238.453 198.54 238.994 198.179 239.449 197.723C239.904 197.267 240.265 196.726 240.51 196.13C240.756 195.535 240.882 194.897 240.88 194.253V194.07C240.881 192.292 240.378 190.551 239.43 189.047C238.482 187.544 237.128 186.339 235.524 185.573C228.515 182.222 222.598 176.955 218.458 170.381C214.318 163.807 212.124 156.196 212.13 148.427Z" fill="url(#paint3_linear_1951_44432)"/>
<path fill-rule="evenodd" clip-rule="evenodd" d="M115.168 121.139C115.3 121.148 115.43 121.201 115.532 121.3L115.542 121.309L140.559 146.33C140.639 146.379 140.704 146.445 140.751 146.522L173.088 178.864C173.317 179.093 173.317 179.464 173.088 179.693C172.859 179.922 172.488 179.922 172.259 179.693L156.439 163.87C143.429 160.827 133.237 164.162 126.281 168.265C122.786 170.326 120.108 172.583 118.305 174.322C117.404 175.192 116.723 175.931 116.268 176.451C116.041 176.711 115.871 176.916 115.758 177.055L115.713 177.11V179.581C115.713 179.904 115.451 180.167 115.127 180.167C114.804 180.167 114.542 179.904 114.542 179.581V177.11C114.528 177.093 114.513 177.074 114.497 177.055C114.384 176.916 114.214 176.711 113.987 176.451C113.532 175.931 112.851 175.192 111.95 174.322C110.147 172.583 107.469 170.326 103.973 168.265C97.0183 164.163 86.8275 160.829 73.8184 163.868L57.8402 179.848C57.6114 180.077 57.2404 180.077 57.0115 179.848C56.7826 179.62 56.7826 179.249 57.0114 179.02L73.0497 162.979C73.0801 162.94 73.1154 162.904 73.1552 162.873L89.5049 146.521C89.5517 146.445 89.6161 146.379 89.6954 146.331L98.4654 137.559C98.4858 137.535 98.5082 137.513 98.5326 137.492L114.71 121.312C114.72 121.302 114.731 121.292 114.741 121.282C114.832 121.203 114.941 121.156 115.053 121.142C115.092 121.137 115.13 121.136 115.168 121.139ZM75.3423 162.344C87.8532 159.916 97.7337 163.224 104.568 167.255C108.159 169.373 110.91 171.69 112.764 173.479C113.497 174.187 114.091 174.812 114.542 175.311V165.687C114.534 165.67 114.526 165.65 114.516 165.628C114.469 165.521 114.395 165.36 114.291 165.154C114.083 164.742 113.757 164.15 113.288 163.448C112.348 162.044 110.838 160.198 108.562 158.453C104.048 154.994 96.4597 151.884 84.1837 153.501L75.3423 162.344ZM146.071 153.501L154.915 162.346C142.403 159.914 132.521 163.223 125.685 167.255C122.095 169.373 119.345 171.69 117.491 173.479C116.758 174.187 116.164 174.812 115.713 175.311V165.688C115.721 165.67 115.73 165.651 115.739 165.628C115.786 165.521 115.86 165.36 115.964 165.154C116.172 164.742 116.498 164.15 116.968 163.448C117.907 162.044 119.417 160.198 121.693 158.453C126.207 154.994 133.795 151.884 146.071 153.501ZM85.5217 152.163C97.2197 150.94 104.687 154.007 109.275 157.523C111.67 159.359 113.264 161.305 114.262 162.797C114.361 162.945 114.454 163.088 114.542 163.227V154.336L114.541 154.335C114.473 154.239 114.37 154.096 114.232 153.916C113.956 153.554 113.542 153.043 112.997 152.448C111.903 151.257 110.287 149.741 108.192 148.434C104.045 145.848 98.0154 144.073 90.3763 147.307L85.5217 152.163ZM113.86 151.655C114.114 151.932 114.342 152.193 114.542 152.43V142.614C114.506 142.556 114.457 142.479 114.395 142.386C114.241 142.155 114.007 141.826 113.692 141.444C113.061 140.679 112.111 139.709 110.836 138.885C108.33 137.266 104.517 136.171 99.2518 138.43L92.3408 145.342C99.2701 143.21 104.858 144.974 108.812 147.44C111.02 148.816 112.716 150.409 113.86 151.655ZM101.17 136.512C105.64 135.28 109.071 136.349 111.472 137.901C112.836 138.783 113.855 139.811 114.542 140.633V123.138L101.17 136.512ZM144.733 152.163L139.879 147.307C132.24 144.073 126.21 145.849 122.063 148.434C119.968 149.741 118.352 151.257 117.259 152.448C116.713 153.043 116.299 153.555 116.023 153.916C115.886 154.096 115.782 154.239 115.714 154.335L115.713 154.336V163.227C115.801 163.089 115.894 162.945 115.993 162.797C116.991 161.305 118.585 159.359 120.98 157.523C125.568 154.007 133.035 150.94 144.733 152.163ZM116.395 151.655C116.141 151.933 115.913 152.193 115.713 152.431V142.614C115.749 142.556 115.798 142.479 115.86 142.386C116.013 142.155 116.247 141.826 116.562 141.444C117.192 140.679 118.141 139.709 119.415 138.885C121.921 137.264 125.737 136.169 131.01 138.437L137.914 145.342C130.985 143.211 125.397 144.974 121.443 147.44C119.236 148.816 117.539 150.409 116.395 151.655ZM129.089 136.516L115.713 123.138V140.631C116.399 139.81 117.416 138.782 118.778 137.901C121.18 136.348 124.613 135.278 129.089 136.516Z" fill="url(#paint4_linear_1951_44432)"/>
<path fill-rule="evenodd" clip-rule="evenodd" d="M180.57 120.095V16.1372H181.742V120.095H180.57Z" fill="#CDC6FF"/>
<path fill-rule="evenodd" clip-rule="evenodd" d="M171.028 113.608C171.299 113.502 171.604 113.635 171.71 113.906L172.821 116.738L176.449 117.992C177.405 115.66 179.154 114.098 181.155 114.098C183.157 114.098 184.908 115.664 185.863 118L189.516 116.738L190.627 113.906C190.733 113.635 191.038 113.502 191.309 113.608C191.58 113.714 191.713 114.019 191.607 114.29L190.407 117.348C190.351 117.492 190.235 117.603 190.089 117.654L186.207 118.995C186.423 119.746 186.562 120.556 186.611 121.403L189.951 120.641C190.156 120.594 190.369 120.66 190.511 120.814L193.341 123.863C193.561 124.1 193.547 124.471 193.31 124.691C193.072 124.911 192.702 124.897 192.481 124.66L189.882 121.859L186.618 122.603C186.581 123.422 186.459 124.208 186.265 124.941L188.78 124.367C189 124.317 189.229 124.398 189.369 124.575L191.704 127.523C191.905 127.777 191.862 128.145 191.609 128.346C191.355 128.547 190.986 128.504 190.785 128.251L188.68 125.592L185.822 126.244C185.525 126.947 185.155 127.579 184.728 128.115C184.921 128.589 185.028 129.109 185.028 129.654C185.028 131.854 183.294 133.637 181.155 133.637C179.016 133.637 177.282 131.854 177.282 129.654C177.282 129.109 177.388 128.589 177.581 128.116C177.152 127.577 176.781 126.943 176.484 126.237L173.657 125.592L171.552 128.251C171.351 128.504 170.982 128.547 170.728 128.346C170.475 128.145 170.432 127.777 170.633 127.523L172.968 124.575C173.108 124.398 173.337 124.317 173.557 124.367L176.042 124.934C175.849 124.201 175.727 123.416 175.691 122.597L172.455 121.859L169.855 124.66C169.635 124.897 169.264 124.911 169.027 124.691C168.79 124.471 168.776 124.1 168.996 123.863L171.826 120.814C171.968 120.66 172.181 120.594 172.385 120.641L175.699 121.397C175.747 120.549 175.887 119.738 176.104 118.987L172.248 117.654C172.102 117.603 171.986 117.492 171.93 117.348L170.73 114.29C170.624 114.019 170.757 113.714 171.028 113.608Z" fill="#EEECFF"/>
<path d="M267.426 105.081C267.478 104.987 267.509 104.883 267.518 104.776C267.527 104.67 267.514 104.562 267.478 104.461C267.443 104.36 267.386 104.267 267.313 104.189C267.239 104.112 267.15 104.05 267.05 104.009C264.157 102.856 253.921 99.4314 248.326 106.335C244.583 110.872 239.293 113.863 233.475 114.731C233.329 114.751 233.192 114.814 233.082 114.913C232.972 115.012 232.895 115.142 232.86 115.285C232.826 115.429 232.835 115.58 232.888 115.718C232.94 115.856 233.033 115.975 233.155 116.059C238.099 119.566 254.433 128.502 267.426 105.081Z" fill="url(#paint5_linear_1951_44432)"/>
<path d="M50.5965 153.498C50.6378 153.422 50.6627 153.339 50.6697 153.253C50.6767 153.167 50.6656 153.081 50.6371 153C50.6086 152.919 50.5634 152.845 50.5043 152.782C50.4453 152.719 50.3737 152.67 50.2943 152.637C47.9778 151.721 39.7465 148.974 35.2509 154.468C32.251 158.108 28.0119 160.511 23.348 161.216C23.2309 161.232 23.1212 161.283 23.0335 161.362C22.9457 161.441 22.8839 161.545 22.8562 161.659C22.8285 161.774 22.8361 161.895 22.8781 162.005C22.9201 162.116 22.9945 162.211 23.0916 162.278C27.0379 165.135 40.1585 172.313 50.5965 153.498Z" fill="url(#paint6_linear_1951_44432)"/>
<path d="M244.904 143.112C244.869 143.049 244.847 142.979 244.842 142.908C244.836 142.836 244.845 142.764 244.869 142.696C244.894 142.629 244.932 142.567 244.982 142.515C245.032 142.464 245.093 142.424 245.16 142.397C247.101 141.619 253.977 139.321 257.731 143.954C260.247 147.002 263.802 149.011 267.711 149.594C267.815 149.604 267.913 149.646 267.992 149.714C268.07 149.783 268.125 149.874 268.148 149.976C268.172 150.077 268.162 150.183 268.122 150.279C268.081 150.375 268.011 150.456 267.922 150.51C264.607 152.881 253.629 158.878 244.904 143.112Z" fill="url(#paint7_linear_1951_44432)"/>
<path d="M9.94207 113.397C9.88556 113.292 9.8516 113.177 9.8424 113.058C9.83319 112.94 9.84894 112.821 9.88862 112.708C9.9283 112.596 9.99103 112.494 10.0728 112.407C10.1545 112.321 10.2535 112.253 10.3632 112.207C13.5679 110.934 24.9123 107.143 31.1109 114.78C35.2631 119.814 41.1359 123.129 47.5919 124.082C47.7533 124.106 47.9039 124.178 48.0241 124.288C48.1443 124.398 48.2287 124.542 48.2661 124.701C48.3036 124.86 48.2926 125.026 48.2344 125.179C48.1762 125.331 48.0736 125.463 47.9398 125.556C42.437 129.438 24.3354 139.345 9.94207 113.397Z" fill="url(#paint8_linear_1951_44432)"/>
<path d="M48.471 83.6957C48.1562 82.461 49.2961 81.3485 50.5228 81.6932L58.8029 84.0201C60.0296 84.3648 60.4231 85.9082 59.5113 86.7982L53.356 92.8056C52.4442 93.6956 50.9108 93.2647 50.596 92.03L48.471 83.6957Z" fill="#7664FF"/>
<path d="M238.772 43.1359C239.261 41.1089 242.144 41.1089 242.634 43.1359L244.28 49.9578C244.455 50.6821 245.021 51.2477 245.745 51.4225L252.567 53.0693C254.594 53.5586 254.594 56.4417 252.567 56.931L245.745 58.5778C245.021 58.7526 244.455 59.3182 244.28 60.0425L242.634 66.8644C242.144 68.8914 239.261 68.8914 238.772 66.8644L237.125 60.0425C236.95 59.3182 236.385 58.7526 235.66 58.5778L228.839 56.931C226.812 56.4417 226.812 53.5586 228.839 53.0693L235.66 51.4225C236.385 51.2477 236.95 50.6821 237.125 49.9578L238.772 43.1359Z" fill="#7664FF"/>
<path d="M96.772 240.136C97.2612 238.109 100.144 238.109 100.634 240.136L102.28 246.958C102.455 247.682 103.021 248.248 103.745 248.423L110.567 250.069C112.594 250.559 112.594 253.442 110.567 253.931L103.745 255.578C103.021 255.753 102.455 256.318 102.28 257.043L100.634 263.864C100.144 265.891 97.2612 265.891 96.772 263.864L95.1252 257.043C94.9503 256.318 94.3848 255.753 93.6604 255.578L86.8385 253.931C84.8116 253.442 84.8116 250.559 86.8385 250.069L93.6604 248.423C94.3848 248.248 94.9503 247.682 95.1252 246.958L96.772 240.136Z" fill="#7664FF"/>
<path d="M70.1851 229.931C70.1851 232.445 68.1472 234.482 65.6332 234.482C63.1192 234.482 61.0813 232.445 61.0813 229.931C61.0813 227.417 63.1192 225.379 65.6332 225.379C68.1472 225.379 70.1851 227.417 70.1851 229.931Z" stroke="#7664FF" stroke-width="2.48287"/>
<circle cx="72.6332" cy="50.9306" r="4.55192" stroke="#7664FF" stroke-width="2.48287"/>
<circle cx="253.633" cy="220.931" r="4.55192" stroke="#7664FF" stroke-width="2.48287"/>
<path d="M84.7121 289.863V278.663H86.0561L92.0241 287.639V278.663H93.3681V289.863H92.0241L86.0561 280.887V289.863H84.7121ZM99.4794 290.055C98.7327 290.055 98.0607 289.885 97.4634 289.543C96.866 289.202 96.3914 288.722 96.0394 288.103C95.698 287.474 95.5274 286.738 95.5274 285.895C95.5274 285.053 95.7034 284.322 96.0554 283.703C96.4074 283.074 96.882 282.589 97.4794 282.247C98.0874 281.906 98.7647 281.735 99.5114 281.735C100.258 281.735 100.93 281.906 101.527 282.247C102.125 282.589 102.594 283.074 102.935 283.703C103.287 284.322 103.463 285.053 103.463 285.895C103.463 286.738 103.287 287.474 102.935 288.103C102.583 288.722 102.103 289.202 101.495 289.543C100.898 289.885 100.226 290.055 99.4794 290.055ZM99.4794 288.903C99.938 288.903 100.365 288.791 100.759 288.567C101.154 288.343 101.474 288.007 101.719 287.559C101.965 287.111 102.087 286.557 102.087 285.895C102.087 285.234 101.965 284.679 101.719 284.231C101.485 283.783 101.17 283.447 100.775 283.223C100.381 282.999 99.9594 282.887 99.5114 282.887C99.0527 282.887 98.626 282.999 98.2314 283.223C97.8367 283.447 97.5167 283.783 97.2714 284.231C97.026 284.679 96.9034 285.234 96.9034 285.895C96.9034 286.557 97.026 287.111 97.2714 287.559C97.5167 288.007 97.8314 288.343 98.2154 288.567C98.61 288.791 99.0314 288.903 99.4794 288.903ZM109.966 289.863V281.927H111.182L111.262 283.351C111.518 282.85 111.886 282.455 112.366 282.167C112.846 281.879 113.39 281.735 113.998 281.735C114.937 281.735 115.684 282.023 116.238 282.599C116.804 283.165 117.086 284.039 117.086 285.223V289.863H115.742V285.367C115.742 283.714 115.06 282.887 113.694 282.887C113.012 282.887 112.441 283.138 111.982 283.639C111.534 284.13 111.31 284.834 111.31 285.751V289.863H109.966ZM122.939 290.055C122.192 290.055 121.52 289.885 120.923 289.543C120.325 289.202 119.851 288.722 119.499 288.103C119.157 287.474 118.987 286.738 118.987 285.895C118.987 285.053 119.163 284.322 119.515 283.703C119.867 283.074 120.341 282.589 120.939 282.247C121.547 281.906 122.224 281.735 122.971 281.735C123.717 281.735 124.389 281.906 124.987 282.247C125.584 282.589 126.053 283.074 126.395 283.703C126.747 284.322 126.923 285.053 126.923 285.895C126.923 286.738 126.747 287.474 126.395 288.103C126.043 288.722 125.563 289.202 124.955 289.543C124.357 289.885 123.685 290.055 122.939 290.055ZM122.939 288.903C123.397 288.903 123.824 288.791 124.219 288.567C124.613 288.343 124.933 288.007 125.179 287.559C125.424 287.111 125.547 286.557 125.547 285.895C125.547 285.234 125.424 284.679 125.179 284.231C124.944 283.783 124.629 283.447 124.235 283.223C123.84 282.999 123.419 282.887 122.971 282.887C122.512 282.887 122.085 282.999 121.691 283.223C121.296 283.447 120.976 283.783 120.731 284.231C120.485 284.679 120.363 285.234 120.363 285.895C120.363 286.557 120.485 287.111 120.731 287.559C120.976 288.007 121.291 288.343 121.675 288.567C122.069 288.791 122.491 288.903 122.939 288.903ZM131.815 289.863C131.09 289.863 130.519 289.687 130.103 289.335C129.687 288.983 129.479 288.349 129.479 287.431V283.063H128.103V281.927H129.479L129.655 280.023H130.823V281.927H133.159V283.063H130.823V287.431C130.823 287.933 130.924 288.274 131.127 288.455C131.33 288.626 131.687 288.711 132.199 288.711H133.031V289.863H131.815ZM135.882 280.167C135.616 280.167 135.392 280.082 135.21 279.911C135.04 279.73 134.954 279.506 134.954 279.239C134.954 278.983 135.04 278.77 135.21 278.599C135.392 278.429 135.616 278.343 135.882 278.343C136.138 278.343 136.357 278.429 136.538 278.599C136.72 278.77 136.81 278.983 136.81 279.239C136.81 279.506 136.72 279.73 136.538 279.911C136.357 280.082 136.138 280.167 135.882 280.167ZM135.21 289.863V281.927H136.554V289.863H135.21ZM139.527 289.863V283.063H138.327V281.927H139.527V280.551C139.527 279.783 139.719 279.223 140.103 278.871C140.487 278.519 141.047 278.343 141.783 278.343H142.583V279.495H141.991C141.585 279.495 141.297 279.581 141.127 279.751C140.956 279.911 140.871 280.189 140.871 280.583V281.927H145.799V289.863H144.455V283.063H140.871V289.863H139.527ZM145.143 280.407C144.887 280.407 144.668 280.322 144.487 280.151C144.305 279.97 144.215 279.746 144.215 279.479C144.215 279.223 144.305 279.01 144.487 278.839C144.668 278.669 144.887 278.583 145.143 278.583C145.409 278.583 145.628 278.669 145.799 278.839C145.98 279.01 146.071 279.223 146.071 279.479C146.071 279.746 145.98 279.97 145.799 280.151C145.628 280.322 145.409 280.407 145.143 280.407ZM152.021 290.055C151.263 290.055 150.581 289.885 149.973 289.543C149.375 289.191 148.901 288.706 148.549 288.087C148.207 287.458 148.037 286.727 148.037 285.895C148.037 285.063 148.207 284.338 148.549 283.719C148.901 283.09 149.375 282.605 149.973 282.263C150.581 281.911 151.263 281.735 152.021 281.735C152.959 281.735 153.749 281.981 154.389 282.471C155.039 282.962 155.45 283.618 155.621 284.439H154.245C154.138 283.949 153.877 283.57 153.461 283.303C153.045 283.026 152.559 282.887 152.005 282.887C151.557 282.887 151.135 282.999 150.741 283.223C150.346 283.447 150.026 283.783 149.781 284.231C149.535 284.679 149.413 285.234 149.413 285.895C149.413 286.557 149.535 287.111 149.781 287.559C150.026 288.007 150.346 288.349 150.741 288.583C151.135 288.807 151.557 288.919 152.005 288.919C152.559 288.919 153.045 288.786 153.461 288.519C153.877 288.242 154.138 287.853 154.245 287.351H155.621C155.461 288.151 155.055 288.802 154.405 289.303C153.754 289.805 152.959 290.055 152.021 290.055ZM160.338 290.055C159.676 290.055 159.127 289.943 158.69 289.719C158.252 289.495 157.927 289.197 157.714 288.823C157.5 288.45 157.394 288.045 157.394 287.607C157.394 286.797 157.703 286.173 158.322 285.735C158.94 285.298 159.783 285.079 160.85 285.079H162.994V284.983C162.994 284.29 162.812 283.767 162.45 283.415C162.087 283.053 161.602 282.871 160.994 282.871C160.471 282.871 160.018 283.005 159.634 283.271C159.26 283.527 159.026 283.906 158.93 284.407H157.554C157.607 283.831 157.799 283.346 158.13 282.951C158.471 282.557 158.892 282.258 159.394 282.055C159.895 281.842 160.428 281.735 160.994 281.735C162.103 281.735 162.935 282.034 163.49 282.631C164.055 283.218 164.338 284.002 164.338 284.983V289.863H163.138L163.058 288.439C162.834 288.887 162.503 289.271 162.066 289.591C161.639 289.901 161.063 290.055 160.338 290.055ZM160.546 288.919C161.058 288.919 161.495 288.786 161.858 288.519C162.231 288.253 162.514 287.906 162.706 287.479C162.898 287.053 162.994 286.605 162.994 286.135V286.119H160.962C160.172 286.119 159.612 286.258 159.282 286.535C158.962 286.802 158.802 287.138 158.802 287.543C158.802 287.959 158.951 288.295 159.25 288.551C159.559 288.797 159.991 288.919 160.546 288.919ZM169.471 289.863C168.746 289.863 168.175 289.687 167.759 289.335C167.343 288.983 167.135 288.349 167.135 287.431V283.063H165.759V281.927H167.135L167.311 280.023H168.479V281.927H170.815V283.063H168.479V287.431C168.479 287.933 168.581 288.274 168.783 288.455C168.986 288.626 169.343 288.711 169.855 288.711H170.687V289.863H169.471ZM173.539 280.167C173.272 280.167 173.048 280.082 172.867 279.911C172.696 279.73 172.611 279.506 172.611 279.239C172.611 278.983 172.696 278.77 172.867 278.599C173.048 278.429 173.272 278.343 173.539 278.343C173.795 278.343 174.013 278.429 174.195 278.599C174.376 278.77 174.467 278.983 174.467 279.239C174.467 279.506 174.376 279.73 174.195 279.911C174.013 280.082 173.795 280.167 173.539 280.167ZM172.867 289.863V281.927H174.211V289.863H172.867ZM180.367 290.055C179.62 290.055 178.948 289.885 178.351 289.543C177.754 289.202 177.279 288.722 176.927 288.103C176.586 287.474 176.415 286.738 176.415 285.895C176.415 285.053 176.591 284.322 176.943 283.703C177.295 283.074 177.77 282.589 178.367 282.247C178.975 281.906 179.652 281.735 180.399 281.735C181.146 281.735 181.818 281.906 182.415 282.247C183.012 282.589 183.482 283.074 183.823 283.703C184.175 284.322 184.351 285.053 184.351 285.895C184.351 286.738 184.175 287.474 183.823 288.103C183.471 288.722 182.991 289.202 182.383 289.543C181.786 289.885 181.114 290.055 180.367 290.055ZM180.367 288.903C180.826 288.903 181.252 288.791 181.647 288.567C182.042 288.343 182.362 288.007 182.607 287.559C182.852 287.111 182.975 286.557 182.975 285.895C182.975 285.234 182.852 284.679 182.607 284.231C182.372 283.783 182.058 283.447 181.663 283.223C181.268 282.999 180.847 282.887 180.399 282.887C179.94 282.887 179.514 282.999 179.119 283.223C178.724 283.447 178.404 283.783 178.159 284.231C177.914 284.679 177.791 285.234 177.791 285.895C177.791 286.557 177.914 287.111 178.159 287.559C178.404 288.007 178.719 288.343 179.103 288.567C179.498 288.791 179.919 288.903 180.367 288.903ZM186.42 289.863V281.927H187.636L187.716 283.351C187.972 282.85 188.34 282.455 188.82 282.167C189.3 281.879 189.844 281.735 190.452 281.735C191.39 281.735 192.137 282.023 192.692 282.599C193.257 283.165 193.54 284.039 193.54 285.223V289.863H192.196V285.367C192.196 283.714 191.513 282.887 190.148 282.887C189.465 282.887 188.894 283.138 188.436 283.639C187.988 284.13 187.764 284.834 187.764 285.751V289.863H186.42Z" fill="#FAFAFA"/>
<defs>
<linearGradient id="paint0_linear_1951_44432" x1="172.486" y1="207.085" x2="267.895" y2="217.986" gradientUnits="userSpaceOnUse">
<stop stop-color="#5B45FF"/>
<stop offset="1" stop-color="white"/>
</linearGradient>
<linearGradient id="paint1_linear_1951_44432" x1="158.378" y1="49.2298" x2="122.437" y2="33.9095" gradientUnits="userSpaceOnUse">
<stop stop-color="#5B45FF"/>
<stop offset="1" stop-color="#AB9FFF"/>
</linearGradient>
<linearGradient id="paint2_linear_1951_44432" x1="216.84" y1="270.637" x2="81.3725" y2="124.272" gradientUnits="userSpaceOnUse">
<stop stop-color="#DDD9FF"/>
<stop offset="0.70369" stop-color="#5B45FF"/>
</linearGradient>
<linearGradient id="paint3_linear_1951_44432" x1="169.838" y1="186.637" x2="127.388" y2="61.8353" gradientUnits="userSpaceOnUse">
<stop stop-color="#5B45FF"/>
<stop offset="1" stop-color="#BDB5FF"/>
</linearGradient>
<linearGradient id="paint4_linear_1951_44432" x1="238.6" y1="256.28" x2="123.129" y2="99.1809" gradientUnits="userSpaceOnUse">
<stop stop-color="#5B45FF"/>
<stop offset="1" stop-color="#DDD9FF"/>
</linearGradient>
<linearGradient id="paint5_linear_1951_44432" x1="267.521" y1="120.683" x2="232.948" y2="101.937" gradientUnits="userSpaceOnUse">
<stop stop-color="#5B45FF"/>
<stop offset="1" stop-color="#AB9FFF"/>
</linearGradient>
<linearGradient id="paint6_linear_1951_44432" x1="50.6717" y1="166.026" x2="22.9216" y2="150.986" gradientUnits="userSpaceOnUse">
<stop stop-color="#5B45FF"/>
<stop offset="1" stop-color="#AB9FFF"/>
</linearGradient>
<linearGradient id="paint7_linear_1951_44432" x1="268.161" y1="153.623" x2="244.9" y2="141.026" gradientUnits="userSpaceOnUse">
<stop stop-color="#5B45FF"/>
<stop offset="1" stop-color="#AB9FFF"/>
</linearGradient>
<linearGradient id="paint8_linear_1951_44432" x1="48.2879" y1="130.679" x2="9.97511" y2="109.888" gradientUnits="userSpaceOnUse">
<stop stop-color="#5B45FF"/>
<stop offset="1" stop-color="#AB9FFF"/>
</linearGradient>
</defs>
</svg>
