<svg width="34" height="11" viewBox="0 0 34 11" fill="none" xmlns="http://www.w3.org/2000/svg">
<path d="M0.84 6.556V5.31H3.486V2.832H4.774V5.31H7.42V6.556H4.774V9.048H3.486V6.556H0.84ZM9.25581 10V8.936C9.89048 8.432 10.4971 7.92333 11.0758 7.41C11.6545 6.89667 12.1678 6.39267 12.6158 5.898C13.0731 5.394 13.4325 4.904 13.6938 4.428C13.9551 3.94267 14.0858 3.476 14.0858 3.028C14.0858 2.72933 14.0345 2.44933 13.9318 2.188C13.8291 1.91733 13.6611 1.70267 13.4278 1.544C13.1945 1.376 12.8818 1.292 12.4898 1.292C11.9018 1.292 11.4585 1.47867 11.1598 1.852C10.8705 2.22533 10.7305 2.67333 10.7398 3.196H9.29781C9.30715 2.50533 9.45181 1.92667 9.73181 1.46C10.0211 0.993333 10.4038 0.638666 10.8798 0.395999C11.3651 0.153333 11.9111 0.0319998 12.5178 0.0319998C13.4418 0.0319998 14.1791 0.293333 14.7298 0.816C15.2898 1.32933 15.5698 2.048 15.5698 2.972C15.5698 3.52267 15.4345 4.06867 15.1638 4.61C14.9025 5.15133 14.5571 5.674 14.1278 6.178C13.7078 6.67267 13.2551 7.13933 12.7698 7.578C12.2845 8.01667 11.8225 8.41333 11.3838 8.768H15.8638V10H9.25581ZM20.7995 10.168C20.1649 10.168 19.5862 10.056 19.0635 9.832C18.5502 9.59867 18.1395 9.24867 17.8315 8.782C17.5235 8.31533 17.3602 7.732 17.3415 7.032H18.8115C18.8302 7.55467 19.0075 7.998 19.3435 8.362C19.6889 8.71667 20.1742 8.894 20.7995 8.894C21.3969 8.894 21.8542 8.73067 22.1715 8.404C22.4889 8.068 22.6475 7.65267 22.6475 7.158C22.6475 6.56067 22.4329 6.11733 22.0035 5.828C21.5835 5.53867 21.0655 5.394 20.4495 5.394H19.7215V4.162H20.4635C21.0142 4.162 21.4575 4.03133 21.7935 3.77C22.1389 3.50867 22.3115 3.14 22.3115 2.664C22.3115 2.26267 22.1762 1.936 21.9055 1.684C21.6442 1.432 21.2709 1.306 20.7855 1.306C20.2815 1.306 19.8849 1.45533 19.5955 1.754C19.3062 2.04333 19.1475 2.40733 19.1195 2.846H17.6495C17.6682 2.27667 17.8082 1.782 18.0695 1.362C18.3402 0.941999 18.7089 0.615333 19.1755 0.381999C19.6422 0.148666 20.1789 0.0319998 20.7855 0.0319998C21.4389 0.0319998 21.9849 0.148666 22.4235 0.381999C22.8715 0.605999 23.2075 0.913999 23.4315 1.306C23.6649 1.68867 23.7815 2.10867 23.7815 2.566C23.7815 3.08867 23.6369 3.546 23.3475 3.938C23.0582 4.33 22.6709 4.59133 22.1855 4.722C22.7455 4.84333 23.2075 5.11867 23.5715 5.548C23.9355 5.968 24.1175 6.514 24.1175 7.186C24.1175 7.72733 23.9915 8.22667 23.7395 8.684C23.4875 9.132 23.1142 9.49133 22.6195 9.762C22.1249 10.0327 21.5182 10.168 20.7995 10.168ZM30.6147 10V8.04H25.7007V6.864L30.3767 0.199999H32.0847V6.752H33.4567V8.04H32.0847V10H30.6147ZM27.3107 6.752H30.6987V1.838L27.3107 6.752Z" fill="#F5F5F5"/>
</svg>
