<svg width="117" height="85" viewBox="0 0 117 85" fill="none" xmlns="http://www.w3.org/2000/svg">
<g filter="url(#filter0_i_2442_6866)">
<path d="M12 42.8333C12 42.8333 9.9476 22.9202 13.6431 15.8553C17.3905 8.69107 22.6864 4.47164 30.6831 4.33649C38.8859 4.19787 44.5006 8.51147 48.3542 15.8553C52.0588 22.9153 50.5006 54.3333 50.5006 54.3333" stroke="url(#paint0_linear_2442_6866)" stroke-width="8"/>
</g>
<g filter="url(#filter1_ii_2442_6866)">
<path d="M0 41.3333C0 34.7058 5.37258 29.3333 12 29.3333H49C55.6274 29.3333 61 34.7058 61 41.3333V60.3333C61 73.5881 50.2548 84.3333 37 84.3333H24C10.7452 84.3333 0 73.5881 0 60.3333V41.3333Z" fill="#5B45FF"/>
</g>
<g filter="url(#filter2_i_2442_6866)">
<rect x="41" y="43.3333" width="76" height="20" rx="5" fill="#DDE8FF"/>
</g>
<g filter="url(#filter3_i_2442_6866)">
<path d="M54.1214 55.1333L54.5014 52.3133L52.2614 54.0733L51.3014 52.3733L53.9214 51.3333L51.3214 50.3333L52.2214 48.7133L54.5214 50.4533L54.1214 47.5933H55.9814L55.5814 50.4533L57.8614 48.7133L58.7414 50.3133L56.1414 51.3533L58.7614 52.3933L57.8214 54.0533L55.5814 52.3133L55.9614 55.1333H54.1214Z" fill="url(#paint1_linear_2442_6866)"/>
</g>
<defs>
<filter id="filter0_i_2442_6866" x="7.43164" y="0.333252" width="51.3945" height="58.1973" filterUnits="userSpaceOnUse" color-interpolation-filters="sRGB">
<feFlood flood-opacity="0" result="BackgroundImageFix"/>
<feBlend mode="normal" in="SourceGraphic" in2="BackgroundImageFix" result="shape"/>
<feColorMatrix in="SourceAlpha" type="matrix" values="0 0 0 0 0 0 0 0 0 0 0 0 0 0 0 0 0 0 127 0" result="hardAlpha"/>
<feOffset dx="4" dy="4"/>
<feGaussianBlur stdDeviation="2"/>
<feComposite in2="hardAlpha" operator="arithmetic" k2="-1" k3="1"/>
<feColorMatrix type="matrix" values="0 0 0 0 1 0 0 0 0 1 0 0 0 0 1 0 0 0 0.5 0"/>
<feBlend mode="normal" in2="shape" result="effect1_innerShadow_2442_6866"/>
</filter>
<filter id="filter1_ii_2442_6866" x="-4" y="25.3333" width="73" height="67" filterUnits="userSpaceOnUse" color-interpolation-filters="sRGB">
<feFlood flood-opacity="0" result="BackgroundImageFix"/>
<feBlend mode="normal" in="SourceGraphic" in2="BackgroundImageFix" result="shape"/>
<feColorMatrix in="SourceAlpha" type="matrix" values="0 0 0 0 0 0 0 0 0 0 0 0 0 0 0 0 0 0 127 0" result="hardAlpha"/>
<feOffset dx="8" dy="9"/>
<feGaussianBlur stdDeviation="4"/>
<feComposite in2="hardAlpha" operator="arithmetic" k2="-1" k3="1"/>
<feColorMatrix type="matrix" values="0 0 0 0 1 0 0 0 0 1 0 0 0 0 1 0 0 0 0.25 0"/>
<feBlend mode="normal" in2="shape" result="effect1_innerShadow_2442_6866"/>
<feColorMatrix in="SourceAlpha" type="matrix" values="0 0 0 0 0 0 0 0 0 0 0 0 0 0 0 0 0 0 127 0" result="hardAlpha"/>
<feOffset dx="-8" dy="-8"/>
<feGaussianBlur stdDeviation="2"/>
<feComposite in2="hardAlpha" operator="arithmetic" k2="-1" k3="1"/>
<feColorMatrix type="matrix" values="0 0 0 0 0.5125 0 0 0 0 0.5125 0 0 0 0 0.5125 0 0 0 0.25 0"/>
<feBlend mode="normal" in2="effect1_innerShadow_2442_6866" result="effect2_innerShadow_2442_6866"/>
</filter>
<filter id="filter2_i_2442_6866" x="37" y="39.3333" width="80" height="24" filterUnits="userSpaceOnUse" color-interpolation-filters="sRGB">
<feFlood flood-opacity="0" result="BackgroundImageFix"/>
<feBlend mode="normal" in="SourceGraphic" in2="BackgroundImageFix" result="shape"/>
<feColorMatrix in="SourceAlpha" type="matrix" values="0 0 0 0 0 0 0 0 0 0 0 0 0 0 0 0 0 0 127 0" result="hardAlpha"/>
<feOffset dx="-4" dy="-4"/>
<feGaussianBlur stdDeviation="2"/>
<feComposite in2="hardAlpha" operator="arithmetic" k2="-1" k3="1"/>
<feColorMatrix type="matrix" values="0 0 0 0 0.203922 0 0 0 0 0.654902 0 0 0 0 0.317647 0 0 0 0.2 0"/>
<feBlend mode="normal" in2="shape" result="effect1_innerShadow_2442_6866"/>
</filter>
<filter id="filter3_i_2442_6866" x="47.3008" y="43.5933" width="11.4609" height="11.54" filterUnits="userSpaceOnUse" color-interpolation-filters="sRGB">
<feFlood flood-opacity="0" result="BackgroundImageFix"/>
<feBlend mode="normal" in="SourceGraphic" in2="BackgroundImageFix" result="shape"/>
<feColorMatrix in="SourceAlpha" type="matrix" values="0 0 0 0 0 0 0 0 0 0 0 0 0 0 0 0 0 0 127 0" result="hardAlpha"/>
<feOffset dx="-4" dy="-4"/>
<feGaussianBlur stdDeviation="2"/>
<feComposite in2="hardAlpha" operator="arithmetic" k2="-1" k3="1"/>
<feColorMatrix type="matrix" values="0 0 0 0 1 0 0 0 0 1 0 0 0 0 1 0 0 0 0.25 0"/>
<feBlend mode="normal" in2="shape" result="effect1_innerShadow_2442_6866"/>
</filter>
<linearGradient id="paint0_linear_2442_6866" x1="50.8259" y1="4.33325" x2="29.9219" y2="61.1377" gradientUnits="userSpaceOnUse">
<stop stop-color="#F1A126"/>
<stop offset="1" stop-color="#FED08A"/>
</linearGradient>
<linearGradient id="paint1_linear_2442_6866" x1="61" y1="53.3333" x2="47.1922" y2="48.5291" gradientUnits="userSpaceOnUse">
<stop stop-color="#F1A126"/>
<stop offset="1" stop-color="#FED08A"/>
</linearGradient>
</defs>
</svg>
