<svg width="46" height="202" viewBox="0 0 46 202" fill="none" xmlns="http://www.w3.org/2000/svg">
<path fill-rule="evenodd" clip-rule="evenodd" d="M20.4136 45.0128H4.34683C1.95594 45.0128 0 43.0691 0 40.694V28.4682L0.0923483 28.5499L6.48931 34.1929L10.8574 38.0464C11.9748 39.0321 13.6952 38.9302 14.6871 37.8198L31.3245 19.1947C32.3164 18.0843 34.0368 17.9824 35.1542 18.968L37.4934 21.032C38.6108 22.0176 38.7133 23.7273 37.7215 24.8387L21.084 43.4637C20.6842 43.9116 20.4616 44.4576 20.4127 45.0128H20.4136Z" fill="#E1AFFD"/>
<path fill-rule="evenodd" clip-rule="evenodd" d="M45.2957 29.1655V40.6939C45.2957 43.0698 43.3397 45.0127 40.9488 45.0127H31.1387L45.2947 29.1655H45.2957Z" fill="#E1AFFD"/>
<path fill-rule="evenodd" clip-rule="evenodd" d="M24.8823 0.000917716H40.9499C43.3399 0.000917716 45.2968 1.94464 45.2968 4.32061V16.5464L45.2044 16.4647L38.8075 10.8208L34.4394 6.9673C33.322 5.98167 31.6015 6.08262 30.6097 7.19306L13.9722 25.8181C12.9804 26.9285 11.26 27.0304 10.1416 26.0448L7.80244 23.9808C6.68503 22.9952 6.58252 21.2855 7.57434 20.1751L24.2118 1.55002C24.6117 1.10218 24.8342 0.556136 24.8832 0L24.8823 0.000917716Z" fill="#E1AFFD"/>
<path fill-rule="evenodd" clip-rule="evenodd" d="M4.34591 0.000488281H14.1561L0 15.8485V4.32018C0 1.94421 1.95594 0.000488281 4.34683 0.000488281L4.34591 0.000488281Z" fill="#E1AFFD"/>
<path fill-rule="evenodd" clip-rule="evenodd" d="M24.8823 97.1129H40.949C43.3399 97.1129 45.2958 95.1692 45.2958 92.7932V80.5683L45.2035 80.6491L38.8065 86.293L34.4385 90.1465C33.321 91.1322 31.6006 91.0303 30.6088 89.9199L13.9713 71.2948C12.9795 70.1844 11.259 70.0825 10.1416 71.0681L7.80244 73.1321C6.68503 74.1177 6.58252 75.8274 7.57434 76.9378L24.2118 95.5629C24.6117 96.0107 24.8342 96.5559 24.8832 97.112L24.8823 97.1129Z" fill="#E1AFFD"/>
<path fill-rule="evenodd" clip-rule="evenodd" d="M0 81.2656V92.794C0 95.1699 1.95594 97.1137 4.34683 97.1137H14.157L0.000923483 81.2665L0 81.2656Z" fill="#E1AFFD"/>
<path fill-rule="evenodd" clip-rule="evenodd" d="M20.4145 52.1006H4.34683C1.95686 52.1006 0 54.0443 0 56.4203V68.6461L0.0923483 68.5644L6.48931 62.9214L10.8574 59.0679C11.9748 58.0823 13.6952 58.1832 14.6871 59.2936L31.3245 77.9187C32.3164 79.0291 34.0368 79.131 35.1551 78.1454L37.4943 76.0814C38.6117 75.0958 38.7142 73.3861 37.7224 72.2757L21.085 53.6506C20.6851 53.2028 20.4625 52.6567 20.4136 52.1006H20.4145Z" fill="#E1AFFD"/>
<path fill-rule="evenodd" clip-rule="evenodd" d="M40.9488 52.1006H31.1387L45.2947 67.9486V56.4203C45.2947 54.0443 43.3388 52.1006 40.9479 52.1006H40.9488Z" fill="#E1AFFD"/>
<path fill-rule="evenodd" clip-rule="evenodd" d="M20.4136 148.901H4.34683C1.95594 148.901 0 146.957 0 144.582V132.356L0.0923483 132.438L6.48931 138.081L10.8574 141.935C11.9748 142.92 13.6952 142.818 14.6871 141.708L31.3245 123.083C32.3164 121.972 34.0368 121.871 35.1542 122.856L37.4934 124.92C38.6108 125.906 38.7133 127.616 37.7215 128.727L21.084 147.352C20.6842 147.8 20.4616 148.346 20.4127 148.901H20.4136Z" fill="#E1AFFD"/>
<path fill-rule="evenodd" clip-rule="evenodd" d="M45.2957 133.053V144.582C45.2957 146.958 43.3397 148.9 40.9488 148.9H31.1387L45.2947 133.053H45.2957Z" fill="#E1AFFD"/>
<path fill-rule="evenodd" clip-rule="evenodd" d="M24.8823 103.889H40.9499C43.3399 103.889 45.2968 105.833 45.2968 108.209V120.435L45.2044 120.353L38.8075 114.709L34.4394 110.855C33.322 109.87 31.6015 109.971 30.6097 111.081L13.9722 129.706C12.9804 130.817 11.26 130.919 10.1416 129.933L7.80244 127.869C6.68503 126.883 6.58252 125.174 7.57434 124.063L24.2118 105.438C24.6117 104.99 24.8342 104.444 24.8832 103.888L24.8823 103.889Z" fill="#E1AFFD"/>
<path fill-rule="evenodd" clip-rule="evenodd" d="M4.34591 103.889H14.1561L0 119.737V108.208C0 105.832 1.95594 103.889 4.34683 103.889H4.34591Z" fill="#E1AFFD"/>
<path fill-rule="evenodd" clip-rule="evenodd" d="M24.8823 201.001H40.949C43.3399 201.001 45.2958 199.057 45.2958 196.681V184.457L45.2035 184.537L38.8065 190.181L34.4385 194.035C33.321 195.02 31.6006 194.918 30.6088 193.808L13.9713 175.183C12.9795 174.073 11.259 173.971 10.1416 174.956L7.80244 177.02C6.68503 178.006 6.58252 179.716 7.57434 180.826L24.2118 199.451C24.6117 199.899 24.8342 200.444 24.8832 201L24.8823 201.001Z" fill="#E1AFFD"/>
<path fill-rule="evenodd" clip-rule="evenodd" d="M0 185.154V196.682C0 199.058 1.95594 201.002 4.34683 201.002H14.157L0.000923483 185.155L0 185.154Z" fill="#E1AFFD"/>
<path fill-rule="evenodd" clip-rule="evenodd" d="M20.4145 155.989H4.34683C1.95686 155.989 0 157.932 0 160.308V172.534L0.0923483 172.453L6.48931 166.81L10.8574 162.956C11.9748 161.97 13.6952 162.071 14.6871 163.182L31.3245 181.807C32.3164 182.917 34.0368 183.019 35.1551 182.034L37.4943 179.97C38.6117 178.984 38.7142 177.274 37.7224 176.164L21.085 157.539C20.6851 157.091 20.4625 156.545 20.4136 155.989H20.4145Z" fill="#E1AFFD"/>
<path fill-rule="evenodd" clip-rule="evenodd" d="M40.9488 155.989H31.1387L45.2947 171.837V160.308C45.2947 157.932 43.3388 155.989 40.9479 155.989H40.9488Z" fill="#E1AFFD"/>
</svg>
