<svg width="24" height="24" viewBox="0 0 24 24" fill="none" xmlns="http://www.w3.org/2000/svg">
<path d="M22 9.25C21.8661 9.25 21.75 9.13386 21.75 9V7C21.75 5.60011 21.2947 4.40264 20.4461 3.55395C19.5974 2.70525 18.3999 2.25 17 2.25H7C5.60011 2.25 4.40264 2.70525 3.55395 3.55395C2.70525 4.40264 2.25 5.60011 2.25 7V9C2.25 9.13386 2.13386 9.25 2 9.25C1.86614 9.25 1.75 9.13386 1.75 9V7C1.75 5.39454 2.28687 4.09024 3.18855 3.18855C4.09024 2.28687 5.39454 1.75 7 1.75H17C18.6055 1.75 19.9098 2.28687 20.8114 3.18855C21.7131 4.09024 22.25 5.39454 22.25 7V9C22.25 9.13386 22.1339 9.25 22 9.25Z" fill="#292D32" stroke="white"/>
<path d="M17 22.25H7C5.39454 22.25 4.09024 21.7131 3.18855 20.8114C2.28687 19.9098 1.75 18.6055 1.75 17V15C1.75 14.8661 1.86614 14.75 2 14.75C2.13386 14.75 2.25 14.8661 2.25 15V17C2.25 18.3999 2.70525 19.5974 3.55395 20.4461C4.40264 21.2947 5.60011 21.75 7 21.75H17C18.3999 21.75 19.5974 21.2947 20.4461 20.4461C21.2947 19.5974 21.75 18.3999 21.75 17V15C21.75 14.8661 21.8661 14.75 22 14.75C22.1339 14.75 22.25 14.8661 22.25 15V17C22.25 18.6055 21.7131 19.9098 20.8114 20.8114C19.9098 21.7131 18.6055 22.25 17 22.25Z" fill="#292D32" stroke="white"/>
<path d="M22 12.25H2C1.86614 12.25 1.75 12.1339 1.75 12C1.75 11.8661 1.86614 11.75 2 11.75H22C22.1339 11.75 22.25 11.8661 22.25 12C22.25 12.1339 22.1339 12.25 22 12.25Z" fill="#292D32" stroke="white"/>
</svg>
