<svg width="25" height="25" viewBox="0 0 25 25" fill="none" xmlns="http://www.w3.org/2000/svg">
<path fill-rule="evenodd" clip-rule="evenodd" d="M22.4964 8.87513H18.2618C16.2911 8.87859 14.6947 10.4351 14.6911 12.3566C14.6884 14.2823 16.2867 15.8458 18.2618 15.8484H22.5V16.1543C22.5 19.5136 20.4636 21.5 17.0173 21.5H7.98356C4.53644 21.5 2.5 19.5136 2.5 16.1543V8.83786C2.5 5.47862 4.53644 3.5 7.98356 3.5H17.0138C20.46 3.5 22.4964 5.47862 22.4964 8.83786V8.87513ZM7.23956 8.86733H12.8796H12.8831H12.8902C13.3124 8.86559 13.6538 8.53019 13.652 8.11765C13.6502 7.70598 13.3053 7.37318 12.8831 7.37491H7.23956C6.82 7.37664 6.47956 7.70858 6.47778 8.11852C6.476 8.53019 6.81733 8.86559 7.23956 8.86733Z" fill="#5B45FF"/>
<path opacity="0.4" d="M16.5374 12.7971C16.7465 13.7482 17.5805 14.4175 18.5326 14.4001H21.7825C22.1787 14.4001 22.5 14.072 22.5 13.6664V11.1349C22.4991 10.7302 22.1787 10.4013 21.7825 10.4004H18.4561C17.3731 10.4039 16.4983 11.3028 16.5 12.4107C16.5 12.5403 16.5128 12.67 16.5374 12.7971Z" fill="#5B45FF"/>
<circle cx="18.5" cy="12.4004" r="1" fill="#5B45FF"/>
</svg>
