<svg width="57" height="56" viewBox="0 0 57 56" fill="none" xmlns="http://www.w3.org/2000/svg">
<rect x="0.5" width="56" height="56" rx="28" fill="#1A1A21"/>
<path d="M37.9354 18.582C37.4352 18.0686 36.6949 17.8773 36.0046 18.0787L19.908 22.7595C19.1797 22.9619 18.6635 23.5427 18.5244 24.2806C18.3824 25.0315 18.8786 25.9848 19.5268 26.3834L24.5599 29.4768C25.0761 29.7939 25.7424 29.7144 26.1696 29.2835L31.9329 23.4843C32.223 23.1823 32.7032 23.1823 32.9934 23.4843C33.2835 23.7762 33.2835 24.2493 32.9934 24.5513L27.22 30.3516C26.7918 30.7814 26.7118 31.4508 27.0269 31.9702L30.1022 37.0538C30.4623 37.6577 31.0826 38 31.7628 38C31.8429 38 31.9329 38 32.013 37.9899C32.7933 37.8893 33.4135 37.3558 33.6436 36.6008L38.4156 20.5248C38.6257 19.8403 38.4356 19.0954 37.9354 18.582Z" fill="url(#paint0_linear_1824_42290)"/>
<defs>
<linearGradient id="paint0_linear_1824_42290" x1="38.5" y1="38" x2="14.7018" y2="31.0999" gradientUnits="userSpaceOnUse">
<stop stop-color="#5B45FF"/>
<stop offset="1" stop-color="#AB9FFF"/>
</linearGradient>
</defs>
</svg>
