<svg width="80" height="81" viewBox="0 0 80 81" fill="none" xmlns="http://www.w3.org/2000/svg">
<rect y="0.666748" width="80" height="80" rx="40" fill="#335EF7" fill-opacity="0.08"/>
<path fill-rule="evenodd" clip-rule="evenodd" d="M26.666 40.6869C26.666 33.663 32.2793 27.3335 40.026 27.3335C47.5993 27.3335 53.3327 33.5428 53.3327 40.6468C53.3327 48.8858 46.6127 54.0002 39.9993 54.0002C37.8127 54.0002 35.386 53.4126 33.4393 52.2642C32.7593 51.8503 32.186 51.5431 31.4527 51.7835L28.7593 52.5847C28.0793 52.7984 27.466 52.2642 27.666 51.5431L28.5593 48.552C28.706 48.138 28.6793 47.6974 28.466 47.3502C27.3193 45.2404 26.666 42.9302 26.666 40.6869ZM38.266 40.6869C38.266 41.6349 39.026 42.3961 39.9727 42.4094C40.9193 42.4094 41.6793 41.6349 41.6793 40.7002C41.6793 39.7521 40.9193 38.991 39.9727 38.991C39.0393 38.9776 38.266 39.7521 38.266 40.6869ZM44.4127 40.7002C44.4127 41.6349 45.1727 42.4094 46.1194 42.4094C47.066 42.4094 47.826 41.6349 47.826 40.7002C47.826 39.7521 47.066 38.991 46.1194 38.991C45.1727 38.991 44.4127 39.7521 44.4127 40.7002ZM33.826 42.4094C32.8927 42.4094 32.1193 41.6349 32.1193 40.7002C32.1193 39.7521 32.8793 38.991 33.826 38.991C34.7727 38.991 35.5327 39.7521 35.5327 40.7002C35.5327 41.6349 34.7727 42.3961 33.826 42.4094Z" fill="url(#paint0_linear_1370_25475)"/>
<defs>
<linearGradient id="paint0_linear_1370_25475" x1="53.3327" y1="54.0002" x2="21.6017" y2="44.8001" gradientUnits="userSpaceOnUse">
<stop stop-color="#5B45FF"/>
<stop offset="1" stop-color="#AB9FFF"/>
</linearGradient>
</defs>
</svg>
