<svg width="148" height="49" viewBox="0 0 148 49" fill="none" xmlns="http://www.w3.org/2000/svg">
<g filter="url(#filter0_d_1903_40651)">
<path d="M24.3594 4.44531L21.0547 7.09375C20.1797 6.1875 19.3828 5.51562 18.6641 5.07812C17.9609 4.625 16.9375 4.39844 15.5938 4.39844C14.125 4.39844 12.9297 4.73438 12.0078 5.40625C11.1016 6.0625 10.6484 6.91406 10.6484 7.96094C10.6484 8.86719 11.0469 9.67188 11.8438 10.375C12.6406 11.0625 14 11.8203 15.9219 12.6484C17.8438 13.4609 19.3359 14.2266 20.3984 14.9453C21.4766 15.6484 22.3594 16.4297 23.0469 17.2891C23.7344 18.1484 24.2422 19.0547 24.5703 20.0078C24.9141 20.9609 25.0859 21.9688 25.0859 23.0312C25.0859 25.5156 24.1797 27.6328 22.3672 29.3828C20.5703 31.1328 18.3906 32.0078 15.8281 32.0078C13.3281 32.0078 11.1172 31.3281 9.19531 29.9688C7.28906 28.5938 5.82031 26.5391 4.78906 23.8047L8.86719 22.6562C10.3516 26.0156 12.625 27.6953 15.6875 27.6953C17.1719 27.6953 18.4062 27.25 19.3906 26.3594C20.375 25.4688 20.8672 24.3438 20.8672 22.9844C20.8672 22.1719 20.6094 21.3594 20.0938 20.5469C19.5781 19.7188 18.9375 19.0391 18.1719 18.5078C17.4062 17.9766 16.1797 17.375 14.4922 16.7031C12.8203 16.0156 11.5312 15.3906 10.625 14.8281C9.73438 14.25 8.96094 13.5703 8.30469 12.7891C7.64844 11.9922 7.16406 11.2031 6.85156 10.4219C6.55469 9.64062 6.40625 8.80469 6.40625 7.91406C6.40625 5.77344 7.26562 3.95312 8.98438 2.45312C10.7031 0.9375 12.7891 0.179688 15.2422 0.179688C16.8672 0.179688 18.5156 0.53125 20.1875 1.23438C21.8594 1.9375 23.25 3.00781 24.3594 4.44531ZM34.2969 11.6641V15.5547C36.25 12.6016 38.75 11.125 41.7969 11.125C44.2969 11.125 46.4453 12.125 48.2422 14.125C50.0547 16.1094 50.9609 18.4844 50.9609 21.25C50.9609 24.0469 50.0469 26.4609 48.2188 28.4922C46.3906 30.5234 44.2344 31.5391 41.75 31.5391C40.3125 31.5391 38.9297 31.1641 37.6016 30.4141C36.2891 29.6641 35.2031 28.5781 34.3438 27.1562V40.0703H30.2656V11.6641H34.2969ZM46.6953 21.25C46.6953 19.5469 46.0547 18.0625 44.7734 16.7969C43.4922 15.5156 41.9844 14.875 40.25 14.875C38.4844 14.875 36.9531 15.5078 35.6562 16.7734C34.375 18.0391 33.7344 19.5312 33.7344 21.25C33.7344 23.0156 34.3672 24.5469 35.6328 25.8438C36.9141 27.1406 38.4219 27.7891 40.1562 27.7891C41.9531 27.7891 43.4922 27.1484 44.7734 25.8672C46.0547 24.5859 46.6953 23.0469 46.6953 21.25ZM60.7344 11.6641V15.6484C61.6406 14.0547 62.5234 12.9062 63.3828 12.2031C64.2578 11.4844 65.3906 11.125 66.7812 11.125C67.1719 11.125 67.7344 11.2188 68.4688 11.4062L67.2266 15.4844C66.4453 15.3281 65.9297 15.25 65.6797 15.25C64.3047 15.25 63.1484 15.7344 62.2109 16.7031C61.2891 17.6562 60.8281 18.8516 60.8281 20.2891V31H56.75V11.6641H60.7344ZM88.0156 11.6641H92.0938V31H88.0156V27.1562C86.0312 30.0781 83.5703 31.5391 80.6328 31.5391C78.0859 31.5391 75.9062 30.5391 74.0938 28.5391C72.2969 26.5391 71.3984 24.1094 71.3984 21.25C71.3984 18.5469 72.3047 16.1875 74.1172 14.1719C75.9453 12.1406 78.0859 11.125 80.5391 11.125C82.0547 11.125 83.4922 11.5391 84.8516 12.3672C86.2109 13.1953 87.2656 14.2734 88.0156 15.6016V11.6641ZM88.5547 21.3906C88.5547 19.625 87.9219 18.1172 86.6562 16.8672C85.3906 15.6016 83.875 14.9688 82.1094 14.9688C80.3906 14.9688 78.8906 15.5938 77.6094 16.8438C76.3281 18.0938 75.6875 19.5625 75.6875 21.25C75.6875 23.0781 76.3125 24.6328 77.5625 25.9141C78.8125 27.1953 80.3281 27.8359 82.1094 27.8359C83.875 27.8359 85.3906 27.2031 86.6562 25.9375C87.9219 24.6562 88.5547 23.1406 88.5547 21.3906ZM114.5 11.6641H118.578V31H114.5V27.1562C112.516 30.0781 110.055 31.5391 107.117 31.5391C104.57 31.5391 102.391 30.5391 100.578 28.5391C98.7812 26.5391 97.8828 24.1094 97.8828 21.25C97.8828 18.5469 98.7891 16.1875 100.602 14.1719C102.43 12.1406 104.57 11.125 107.023 11.125C108.539 11.125 109.977 11.5391 111.336 12.3672C112.695 13.1953 113.75 14.2734 114.5 15.6016V11.6641ZM115.039 21.3906C115.039 19.625 114.406 18.1172 113.141 16.8672C111.875 15.6016 110.359 14.9688 108.594 14.9688C106.875 14.9688 105.375 15.5938 104.094 16.8438C102.812 18.0938 102.172 19.5625 102.172 21.25C102.172 23.0781 102.797 24.6328 104.047 25.9141C105.297 27.1953 106.812 27.8359 108.594 27.8359C110.359 27.8359 111.875 27.2031 113.141 25.9375C114.406 24.6562 115.039 23.1406 115.039 21.3906ZM122.469 11.6641H127.086L134.094 22.1641L138.945 11.6641H143.164L130.109 40.0703H125.844L132.219 26.2422L122.469 11.6641Z" fill="#FAFAFA"/>
</g>
<defs>
<filter id="filter0_d_1903_40651" x="0.789062" y="0.179688" width="146.375" height="47.8906" filterUnits="userSpaceOnUse" color-interpolation-filters="sRGB">
<feFlood flood-opacity="0" result="BackgroundImageFix"/>
<feColorMatrix in="SourceAlpha" type="matrix" values="0 0 0 0 0 0 0 0 0 0 0 0 0 0 0 0 0 0 127 0" result="hardAlpha"/>
<feOffset dy="4"/>
<feGaussianBlur stdDeviation="2"/>
<feComposite in2="hardAlpha" operator="out"/>
<feColorMatrix type="matrix" values="0 0 0 0 0 0 0 0 0 0 0 0 0 0 0 0 0 0 0.25 0"/>
<feBlend mode="normal" in2="BackgroundImageFix" result="effect1_dropShadow_1903_40651"/>
<feBlend mode="normal" in="SourceGraphic" in2="effect1_dropShadow_1903_40651" result="shape"/>
</filter>
</defs>
</svg>
