<svg width="56" height="56" viewBox="0 0 56 56" fill="none" xmlns="http://www.w3.org/2000/svg">
<rect width="56" height="56" rx="28" fill="#35383F"/>
<path fill-rule="evenodd" clip-rule="evenodd" d="M26.7739 46.0005H14.3589C12.5114 46.0005 11 44.4892 11 42.6425V33.1363L11.0714 33.1998L16.0144 37.5875L19.3897 40.5838C20.2531 41.3502 21.5825 41.271 22.3489 40.4076L35.2049 25.9257C35.9713 25.0623 37.3008 24.9831 38.1642 25.7495L39.9717 27.3543C40.8352 28.1206 40.9144 29.45 40.148 30.3141L27.292 44.796C26.983 45.1442 26.811 45.5688 26.7732 46.0005H26.7739Z" fill="#E1AFFD"/>
<path fill-rule="evenodd" clip-rule="evenodd" d="M45.9979 33.6777V42.6416C45.9979 44.489 44.4865 45.9996 42.6391 45.9996H35.0586L45.9972 33.6777H45.9979Z" fill="#E1AFFD"/>
<path fill-rule="evenodd" clip-rule="evenodd" d="M30.2251 11.0007H42.6409C44.4876 11.0007 45.9997 12.5121 45.9997 14.3595V23.8656L45.9284 23.8021L40.9853 19.4137L37.6101 16.4174C36.7466 15.651 35.4172 15.7295 34.6508 16.5929L21.7948 31.0748C21.0284 31.9382 19.699 32.0174 18.8348 31.2511L17.0273 29.6462C16.1638 28.8799 16.0846 27.5505 16.851 26.6871L29.7071 12.2052C30.016 11.857 30.188 11.4324 30.2258 11L30.2251 11.0007Z" fill="#E1AFFD"/>
<path fill-rule="evenodd" clip-rule="evenodd" d="M14.3582 11H21.9386L11 23.3226V14.3588C11 12.5113 12.5114 11 14.3589 11H14.3582Z" fill="#E1AFFD"/>
</svg>
