<svg width="24" height="25" viewBox="0 0 24 25" fill="none" xmlns="http://www.w3.org/2000/svg">
<path d="M4.5 4.80859V5.18359H5.25C5.44891 5.18359 5.63968 5.10458 5.78033 4.96392C5.92098 4.82327 6 4.63251 6 4.43359V3.68359H5.625C5.32663 3.68359 5.04048 3.80212 4.8295 4.0131C4.61853 4.22408 4.5 4.51023 4.5 4.80859ZM5.625 2.18359H12.375C13.824 2.18359 15 3.35959 15 4.80859V5.62309L19.4625 10.0856C19.95 10.5731 20.3367 11.1519 20.6005 11.7889C20.8643 12.4259 21 13.1086 21 13.7981V22.4336C21 22.6325 20.921 22.8233 20.7803 22.9639C20.6397 23.1046 20.4489 23.1836 20.25 23.1836C20.0511 23.1836 19.8603 23.1046 19.7197 22.9639C19.579 22.8233 19.5 22.6325 19.5 22.4336V13.7981C19.5001 13.3056 19.4032 12.8179 19.2148 12.3629C19.0264 11.9079 18.7502 11.4944 18.402 11.1461L15 7.74409V11.6216L16.281 12.9026C16.4218 13.0432 16.501 13.234 16.5012 13.4331C16.5013 13.6321 16.4224 13.823 16.2817 13.9638C16.1411 14.1047 15.9503 14.1839 15.7513 14.184C15.5523 14.1842 15.3613 14.1052 15.2205 13.9646L13.746 12.4886C13.7282 12.4724 13.7112 12.4554 13.695 12.4376L11.859 10.6016C11.7569 10.4956 11.6347 10.4111 11.4995 10.3529C11.3644 10.2947 11.219 10.2641 11.0718 10.2627C10.9247 10.2614 10.7788 10.2894 10.6426 10.3451C10.5064 10.4009 10.3827 10.4832 10.2787 10.5873C10.1747 10.6914 10.0925 10.8152 10.0369 10.9514C9.98129 11.0877 9.95341 11.2336 9.95488 11.3808C9.95636 11.5279 9.98715 11.6733 10.0455 11.8084C10.1038 11.9435 10.1884 12.0656 10.2945 12.1676L12.531 14.4026C12.6009 14.4722 12.6563 14.555 12.6942 14.6461C12.732 14.7372 12.7515 14.8349 12.7515 14.9336V16.4336C12.7515 16.8312 12.9093 17.2125 13.1903 17.4937C13.4713 17.775 13.8524 17.9332 14.25 17.9336C14.4489 17.9336 14.6397 18.0126 14.7803 18.1533C14.921 18.2939 15 18.4847 15 18.6836V20.5586C15 21.2548 14.7234 21.9225 14.2312 22.4147C13.7389 22.907 13.0712 23.1836 12.375 23.1836H5.625C4.92881 23.1836 4.26113 22.907 3.76884 22.4147C3.27656 21.9225 3 21.2548 3 20.5586V4.80859C3 3.35959 4.176 2.18359 5.625 2.18359ZM12 21.6836H12.375C12.6734 21.6836 12.9595 21.5651 13.1705 21.3541C13.3815 21.1431 13.5 20.857 13.5 20.5586V20.1836H12.75C12.5511 20.1836 12.3603 20.2626 12.2197 20.4033C12.079 20.5439 12 20.7347 12 20.9336V21.6836ZM12.315 18.7256C11.9812 18.4445 11.713 18.0939 11.529 17.6982C11.345 17.3026 11.2498 16.8714 11.25 16.4351V15.2441L10.9605 14.9546C10.5908 15.2732 10.1489 15.4968 9.67326 15.606C9.19758 15.7152 8.70244 15.7067 8.2308 15.5812C7.75915 15.4557 7.32524 15.2171 6.9667 14.8859C6.60816 14.5548 6.33582 14.1412 6.17329 13.681C6.01077 13.2208 5.96298 12.7279 6.03406 12.2451C6.10514 11.7623 6.29295 11.304 6.5812 10.9102C6.86944 10.5164 7.24942 10.1988 7.68818 9.98505C8.12693 9.7713 8.61121 9.66783 9.099 9.68359C9.33295 9.41142 9.62058 9.19048 9.94388 9.03462C10.2672 8.87876 10.6192 8.79133 10.9778 8.77781C11.3365 8.7643 11.6941 8.82498 12.0282 8.95606C12.3623 9.08714 12.6657 9.2858 12.9195 9.53959L13.5 10.1216V6.68359H12.75C12.1533 6.68359 11.581 6.44654 11.159 6.02458C10.7371 5.60263 10.5 5.03033 10.5 4.43359V3.68359H7.5V4.43359C7.5 5.03033 7.26295 5.60263 6.84099 6.02458C6.41903 6.44654 5.84674 6.68359 5.25 6.68359H4.5V18.6836H5.25C5.84674 18.6836 6.41903 18.9206 6.84099 19.3426C7.26295 19.7646 7.5 20.3369 7.5 20.9336V21.6836H10.5V20.9336C10.4999 20.4123 10.6808 19.9071 11.0119 19.5044C11.3429 19.1017 11.8035 18.8264 12.315 18.7256ZM12.75 5.18359H13.5V4.80859C13.5 4.51023 13.3815 4.22408 13.1705 4.0131C12.9595 3.80212 12.6734 3.68359 12.375 3.68359H12V4.43359C12 4.63251 12.079 4.82327 12.2197 4.96392C12.3603 5.10458 12.5511 5.18359 12.75 5.18359ZM4.5 20.1836V20.5586C4.5 21.1796 5.004 21.6836 5.625 21.6836H6V20.9336C6 20.7347 5.92098 20.5439 5.78033 20.4033C5.63968 20.2626 5.44891 20.1836 5.25 20.1836H4.5ZM9.894 13.8881L9.234 13.2281C8.97852 12.9738 8.77882 12.6691 8.64762 12.3333C8.51643 11.9976 8.45661 11.6382 8.472 11.2781C8.27175 11.3541 8.0901 11.4721 7.93927 11.6241C7.78843 11.7762 7.67191 11.9588 7.59754 12.1597C7.52317 12.3605 7.49268 12.575 7.50811 12.7886C7.52355 13.0022 7.58455 13.2101 7.68702 13.3981C7.78949 13.5862 7.93105 13.7502 8.10218 13.879C8.27331 14.0078 8.47003 14.0984 8.67913 14.1449C8.88822 14.1913 9.10483 14.1924 9.31438 14.1481C9.52393 14.1038 9.72157 14.0151 9.894 13.8881Z" fill="#EEECFF"/>
</svg>
