<svg width="126" height="120" viewBox="0 0 126 120" fill="none" xmlns="http://www.w3.org/2000/svg">
<rect x="0.496094" width="125.011" height="119.52" rx="59.7601" fill="#1A1A21"/>
<path fill-rule="evenodd" clip-rule="evenodd" d="M78.0234 55.5173L83.2385 59.0161L90.9045 51.5126C84.7018 48.4474 91.85 51.9763 85.6473 48.9111L78.0234 55.5173Z" fill="#00562F"/>
<path fill-rule="evenodd" clip-rule="evenodd" d="M77.0703 52.6686L82.2854 56.1674L89.9514 48.664C83.7487 45.5988 90.8968 49.1277 84.6942 46.0625L77.0703 52.6686Z" fill="#00562F"/>
<path fill-rule="evenodd" clip-rule="evenodd" d="M76.5234 50.7419L81.7385 54.2407L89.4045 46.7372C83.2018 43.672 90.35 47.2009 84.1473 44.1357L76.5234 50.7419Z" fill="#00562F"/>
<path fill-rule="evenodd" clip-rule="evenodd" d="M71.5426 71.6621L67.2188 69.2412L72.8192 70.2228L71.5426 71.6621Z" fill="#782F2E"/>
<path fill-rule="evenodd" clip-rule="evenodd" d="M39.3916 75.8651L38.9219 76.4131L57.289 86.7047C67.8335 74.745 79.1308 63.4115 91.506 52.9814L90.0126 52.4395L89.7536 52.5599L87.5556 54.5773L89.2658 52.7827L39.3916 75.8651Z" fill="url(#paint0_linear_1790_30116)"/>
<path fill-rule="evenodd" clip-rule="evenodd" d="M37.2768 67.9097C36.8734 68.277 36.4699 68.6504 36.0664 69.0177C37.042 71.2519 37.9694 73.486 38.704 75.7202C44.8164 79.1226 50.9287 82.519 57.035 85.9215C67.983 74.305 79.6115 63.2366 91.1979 52.3066C91.0955 52.0417 90.9931 51.7767 90.8968 51.5057L87.5606 54.5709L90.7884 51.1926C90.4873 50.3555 90.2103 49.5124 89.9513 48.6573L87.8737 50.3555L89.861 48.3743C89.6984 47.8323 89.5479 47.2843 89.3973 46.7303L84.0196 51.7586L89.2588 46.1883C89.1865 45.9113 89.1203 45.6282 89.054 45.3452C88.1267 45.0863 87.1932 44.8273 86.2659 44.5684C69.9402 52.3548 53.6085 60.1292 37.2768 67.9097Z" fill="#081D0A"/>
<path fill-rule="evenodd" clip-rule="evenodd" d="M36.0664 69.0185C42.2209 72.3788 48.3754 75.7451 54.5299 79.1054C66.3812 68.3681 77.8772 57.0949 89.0601 45.352L86.2719 44.5752L37.2768 67.9105L36.0664 69.0185Z" fill="url(#paint1_linear_1790_30116)"/>
<path fill-rule="evenodd" clip-rule="evenodd" d="M35.6758 68.3735C41.8604 71.7398 48.051 75.1061 54.2356 78.4724C66.7915 68.0965 78.4621 56.5764 88.826 44.6167C82.6233 41.5515 76.4267 38.4802 70.224 35.415C60.3419 47.9529 48.7315 59.2441 35.6758 68.3735Z" fill="url(#paint2_linear_1790_30116)"/>
<path fill-rule="evenodd" clip-rule="evenodd" d="M35.4961 67.2298C41.6807 70.5961 47.8713 73.9624 54.0559 77.3287C67.0815 67.7356 78.4631 56.5046 88.3814 43.8042C82.1787 40.739 75.982 37.6677 69.7794 34.6025C59.8973 47.1464 48.5458 58.1004 35.4961 67.2298Z" fill="url(#paint3_linear_1790_30116)"/>
<path fill-rule="evenodd" clip-rule="evenodd" d="M57.0411 85.9223L54.5299 79.1054C48.3754 75.7451 42.2209 72.3788 36.0664 69.0186C37.042 71.2527 37.9694 73.4869 38.704 75.721C44.8164 79.1235 50.9287 82.5199 57.035 85.9223H57.0411Z" fill="url(#paint4_linear_1790_30116)"/>
<path fill-rule="evenodd" clip-rule="evenodd" d="M54.5312 79.1051L57.0424 85.922C67.9904 74.3055 79.6189 63.2371 91.2053 52.3071C91.1029 52.0422 91.0005 51.7772 90.9042 51.5062L87.568 54.5714L90.7958 51.1931C90.4947 50.356 90.2177 49.5129 89.9587 48.6578L87.8811 50.356L89.8684 48.3748C89.7058 47.8328 89.5552 47.2848 89.4047 46.7308L84.027 51.7591L89.2662 46.1888C89.1939 45.9118 89.1277 45.6287 89.0614 45.3457C77.8786 57.0886 66.3826 68.3618 54.5312 79.099V79.1051Z" fill="url(#paint5_linear_1790_30116)"/>
<path fill-rule="evenodd" clip-rule="evenodd" d="M41.1082 64.9835C46.2149 60.9608 51.165 56.8959 55.7236 52.53C60.2221 48.2242 64.3291 43.6355 68.3096 39.0166C69.5983 39.6609 71.4893 39.1852 72.4829 37.9326C74.3015 38.8359 76.1202 39.7392 77.9328 40.6425C79.7514 41.5458 81.5641 42.4431 83.3827 43.3404C82.371 44.599 82.5758 46.1466 83.8765 46.791C79.8659 51.4882 75.7348 56.1612 71.2424 60.5814C66.6897 65.0497 61.7577 69.235 56.6751 73.3721C55.3924 72.6736 53.2125 72.9747 51.8154 74.0345C50.0027 73.053 48.1841 72.0714 46.3715 71.0838C44.5588 70.1022 42.7462 69.1146 40.9336 68.133C42.3247 67.0912 42.3969 65.67 41.1022 64.9774L41.1082 64.9835ZM66.485 55.4506C68.8697 53.0238 71.1882 50.5487 73.4464 48.0556C73.5548 47.9352 73.7475 47.887 73.874 47.9532C74.145 48.0917 74.422 48.2302 74.693 48.3688C74.8254 48.435 74.8375 48.5855 74.7291 48.7C72.4648 51.2051 70.1524 53.6802 67.7677 56.1131C67.6532 56.2335 67.4545 56.2636 67.322 56.1974C67.051 56.0589 66.768 55.9204 66.503 55.7758C66.3826 55.7096 66.3645 55.5651 66.4789 55.4446L66.485 55.4506ZM62.8537 53.4272C64.6121 51.6447 66.3585 49.8562 68.0266 48.0375C69.6947 46.2129 71.3086 44.3521 72.8984 42.4853C73.049 42.3046 73.326 42.2263 73.5187 42.3227C73.9161 42.5274 74.3196 42.7261 74.7231 42.9249C74.9098 43.0212 74.9459 43.2561 74.7953 43.4307C73.1995 45.3096 71.5856 47.1644 69.9115 48.995C68.2374 50.8257 66.503 52.6203 64.7386 54.4028C64.57 54.5714 64.2749 54.6316 64.0822 54.5293C63.6847 54.3245 63.2813 54.1138 62.8838 53.909C62.6911 53.8126 62.6851 53.5898 62.8537 53.4272ZM50.9241 59.4492C52.4115 58.1726 54.3868 57.3476 56.4162 57.0525C58.4275 56.7574 60.4931 56.9923 62.1371 57.8534C63.7931 58.7085 64.7145 60.0334 64.859 61.4726C65.0036 62.9059 64.3532 64.4596 62.8838 65.7724C61.3843 67.0731 59.3429 67.8921 57.2593 68.145C55.1756 68.398 53.0438 68.1029 51.3878 67.2176C49.7378 66.3324 48.8706 65.0256 48.7923 63.6285C48.714 62.2314 49.4306 60.7259 50.9181 59.4432L50.9241 59.4492Z" fill="url(#paint6_linear_1790_30116)"/>
<path opacity="0.5" fill-rule="evenodd" clip-rule="evenodd" d="M42.5312 73.2155L54.7379 79.6651L68.8896 66.5371L54.9245 80.177L42.5312 73.2155Z" fill="#1F3F37"/>
<path opacity="0.5" fill-rule="evenodd" clip-rule="evenodd" d="M49.875 78.5867L55.361 81.3628L63.3462 74.0039L55.5598 81.9048L49.875 78.5867Z" fill="#1F3F37"/>
<path opacity="0.5" fill-rule="evenodd" clip-rule="evenodd" d="M45.5273 78.1893L56.2826 83.8741L67.9172 71.6133L56.4994 84.4582L45.5273 78.1893Z" fill="#1F3F37"/>
<path fill-rule="evenodd" clip-rule="evenodd" d="M39.4961 67.7416L56.8756 77.136C70.0277 67.9645 80.3915 56.5648 88.1057 43.0514L70.2685 34.6025C62.6206 47.9413 52.4675 59.088 39.4961 67.7416Z" fill="url(#paint7_linear_1790_30116)"/>
<path fill-rule="evenodd" clip-rule="evenodd" d="M44.9528 65.5437C55.4311 57.2634 61.8746 50.3983 69.4021 39.1432C70.6367 39.7454 72.3108 39.1673 73.0816 37.8545C74.8159 38.6855 76.5563 39.5166 78.2966 40.3476C80.031 41.1726 81.7774 42.0037 83.5117 42.8287C82.7228 44.1535 83.0661 45.7072 84.3006 46.3034C76.7791 57.6729 70.3596 65.2908 59.7007 73.4024C58.4782 72.746 56.3404 73.0471 54.9252 74.0588C53.221 73.1374 51.5108 72.2281 49.8005 71.3128C48.0963 70.3974 46.386 69.476 44.6758 68.5547C46.0669 67.555 46.1753 66.1941 44.9528 65.5377V65.5437ZM54.3531 60.0396C55.7503 58.7629 57.599 57.9017 59.502 57.5585C61.3808 57.2213 63.3259 57.3899 64.9037 58.1908C66.4815 58.9917 67.3908 60.2744 67.5654 61.6896C67.7401 63.0987 67.162 64.6524 65.7648 65.9592C64.3677 67.272 62.3985 68.097 60.3932 68.374C58.3879 68.651 56.3525 68.3921 54.7807 67.561C53.2029 66.73 52.402 65.4835 52.3418 64.1285C52.2816 62.7796 52.9621 61.3102 54.3592 60.0335L54.3531 60.0396ZM65.3975 53.7887C66.9512 51.9641 68.4687 50.1273 69.8839 48.2184C71.287 46.3335 72.6058 44.3944 73.8946 42.4372C74.021 42.2506 74.2559 42.1602 74.4365 42.2506C74.8219 42.4372 75.2013 42.6239 75.5867 42.8106C75.7674 42.9009 75.8276 43.1237 75.7012 43.3104C74.4124 45.2736 73.0876 47.2127 71.6785 49.1096C70.2633 51.0126 68.7518 52.8613 67.1981 54.692C67.0475 54.8727 66.7765 54.9389 66.6019 54.8486C66.2165 54.6559 65.8371 54.4572 65.4577 54.2645C65.2771 54.1741 65.253 53.9573 65.3975 53.7827V53.7887ZM68.8722 55.6796C70.9618 53.1805 72.9611 50.6211 74.8581 48.0257C74.9424 47.9052 75.123 47.845 75.2495 47.9052C75.5085 48.0317 75.7674 48.1642 76.0263 48.2906C76.1468 48.3508 76.1709 48.5014 76.0805 48.6279C74.1776 51.2294 72.1903 53.7887 70.0947 56.2939C69.9923 56.4203 69.8056 56.4685 69.6852 56.4083C69.4262 56.2758 69.1673 56.1433 68.9023 56.0108C68.7819 55.9506 68.7698 55.8001 68.8662 55.6796H68.8722Z" fill="url(#paint8_linear_1790_30116)"/>
<defs>
<linearGradient id="paint0_linear_1790_30116" x1="38.9279" y1="69.5721" x2="91.5121" y2="69.5721" gradientUnits="userSpaceOnUse">
<stop stop-color="#D3F701"/>
<stop offset="1" stop-color="#7B8E0E"/>
</linearGradient>
<linearGradient id="paint1_linear_1790_30116" x1="36.0664" y1="61.8403" x2="89.054" y2="61.8403" gradientUnits="userSpaceOnUse">
<stop stop-color="#5B45FF"/>
<stop offset="1" stop-color="#9D92F7"/>
</linearGradient>
<linearGradient id="paint2_linear_1790_30116" x1="35.6758" y1="56.9437" x2="88.826" y2="56.9437" gradientUnits="userSpaceOnUse">
<stop stop-color="#D3F701"/>
<stop offset="1" stop-color="#227028"/>
</linearGradient>
<linearGradient id="paint3_linear_1790_30116" x1="35.4961" y1="55.9686" x2="88.3814" y2="55.9686" gradientUnits="userSpaceOnUse">
<stop stop-color="#D3F701"/>
<stop offset="1" stop-color="#D1E752"/>
</linearGradient>
<linearGradient id="paint4_linear_1790_30116" x1="36.0664" y1="77.4735" x2="57.0411" y2="77.4735" gradientUnits="userSpaceOnUse">
<stop stop-color="#604BFF"/>
<stop offset="1" stop-color="#D3F701"/>
</linearGradient>
<linearGradient id="paint5_linear_1790_30116" x1="54.5313" y1="65.6399" x2="91.2053" y2="65.6399" gradientUnits="userSpaceOnUse">
<stop stop-color="#92A330"/>
<stop offset="1" stop-color="#D3F701"/>
</linearGradient>
<linearGradient id="paint6_linear_1790_30116" x1="40.9396" y1="55.9926" x2="83.8765" y2="55.9926" gradientUnits="userSpaceOnUse">
<stop stop-color="#23351A"/>
<stop offset="1" stop-color="#1D301A"/>
</linearGradient>
<linearGradient id="paint7_linear_1790_30116" x1="52.4856" y1="75.0162" x2="73.9179" y2="37.8544" gradientUnits="userSpaceOnUse">
<stop stop-color="#C1DE16"/>
<stop offset="1" stop-color="#D3F701"/>
</linearGradient>
<linearGradient id="paint8_linear_1790_30116" x1="51.2819" y1="79.0992" x2="72.913" y2="41.54" gradientUnits="userSpaceOnUse">
<stop stop-color="#313904"/>
<stop offset="1" stop-color="#213D1D"/>
</linearGradient>
</defs>
</svg>
