<svg width="86" height="25" viewBox="0 0 86 25" fill="none" xmlns="http://www.w3.org/2000/svg">
<rect width="86" height="25" rx="12.5" fill="#FAFAFA"/>
<path d="M18.5161 16V10.03H16.4761V9H21.8461V10.03H19.7961V16H18.5161ZM24.4458 16.12C23.9658 16.12 23.5325 16.01 23.1458 15.79C22.7658 15.57 22.4625 15.2667 22.2358 14.88C22.0158 14.4867 21.9058 14.0333 21.9058 13.52C21.9058 13.0067 22.0192 12.5567 22.2458 12.17C22.4725 11.7767 22.7758 11.47 23.1558 11.25C23.5425 11.03 23.9758 10.92 24.4558 10.92C24.9292 10.92 25.3558 11.03 25.7358 11.25C26.1225 11.47 26.4258 11.7767 26.6458 12.17C26.8725 12.5567 26.9858 13.0067 26.9858 13.52C26.9858 14.0333 26.8725 14.4867 26.6458 14.88C26.4258 15.2667 26.1225 15.57 25.7358 15.79C25.3492 16.01 24.9192 16.12 24.4458 16.12ZM24.4458 15.01C24.7792 15.01 25.0692 14.8867 25.3158 14.64C25.5625 14.3867 25.6858 14.0133 25.6858 13.52C25.6858 13.0267 25.5625 12.6567 25.3158 12.41C25.0692 12.1567 24.7825 12.03 24.4558 12.03C24.1158 12.03 23.8225 12.1567 23.5758 12.41C23.3358 12.6567 23.2158 13.0267 23.2158 13.52C23.2158 14.0133 23.3358 14.3867 23.5758 14.64C23.8225 14.8867 24.1125 15.01 24.4458 15.01ZM28.3303 18.2V11.04H29.4703L29.6103 11.75C29.7703 11.53 29.9803 11.3367 30.2403 11.17C30.5069 11.0033 30.8503 10.92 31.2703 10.92C31.7369 10.92 32.1536 11.0333 32.5203 11.26C32.8869 11.4867 33.1769 11.7967 33.3903 12.19C33.6036 12.5833 33.7103 13.03 33.7103 13.53C33.7103 14.03 33.6036 14.4767 33.3903 14.87C33.1769 15.2567 32.8869 15.5633 32.5203 15.79C32.1536 16.01 31.7369 16.12 31.2703 16.12C30.8969 16.12 30.5703 16.05 30.2903 15.91C30.0103 15.77 29.7836 15.5733 29.6103 15.32V18.2H28.3303ZM31.0003 15C31.4069 15 31.7436 14.8633 32.0103 14.59C32.2769 14.3167 32.4103 13.9633 32.4103 13.53C32.4103 13.0967 32.2769 12.74 32.0103 12.46C31.7436 12.18 31.4069 12.04 31.0003 12.04C30.5869 12.04 30.2469 12.18 29.9803 12.46C29.7203 12.7333 29.5903 13.0867 29.5903 13.52C29.5903 13.9533 29.7203 14.31 29.9803 14.59C30.2469 14.8633 30.5869 15 31.0003 15ZM39.4965 16.12C38.8765 16.12 38.3965 15.9267 38.0565 15.54C37.7232 15.1533 37.5565 14.5867 37.5565 13.84V11.04H38.8265V13.72C38.8265 14.1467 38.9132 14.4733 39.0865 14.7C39.2599 14.9267 39.5332 15.04 39.9065 15.04C40.2599 15.04 40.5499 14.9133 40.7765 14.66C41.0099 14.4067 41.1265 14.0533 41.1265 13.6V11.04H42.4065V16H41.2765L41.1765 15.16C41.0232 15.4533 40.7999 15.6867 40.5065 15.86C40.2199 16.0333 39.8832 16.12 39.4965 16.12ZM43.9205 18.2V11.04H45.0605L45.2005 11.75C45.3605 11.53 45.5705 11.3367 45.8305 11.17C46.0972 11.0033 46.4405 10.92 46.8605 10.92C47.3272 10.92 47.7438 11.0333 48.1105 11.26C48.4772 11.4867 48.7672 11.7967 48.9805 12.19C49.1938 12.5833 49.3005 13.03 49.3005 13.53C49.3005 14.03 49.1938 14.4767 48.9805 14.87C48.7672 15.2567 48.4772 15.5633 48.1105 15.79C47.7438 16.01 47.3272 16.12 46.8605 16.12C46.4872 16.12 46.1605 16.05 45.8805 15.91C45.6005 15.77 45.3738 15.5733 45.2005 15.32V18.2H43.9205ZM46.5905 15C46.9972 15 47.3338 14.8633 47.6005 14.59C47.8672 14.3167 48.0005 13.9633 48.0005 13.53C48.0005 13.0967 47.8672 12.74 47.6005 12.46C47.3338 12.18 46.9972 12.04 46.5905 12.04C46.1772 12.04 45.8372 12.18 45.5705 12.46C45.3105 12.7333 45.1805 13.0867 45.1805 13.52C45.1805 13.9533 45.3105 14.31 45.5705 14.59C45.8372 14.8633 46.1772 15 46.5905 15Z" fill="#5B45FF"/>
<path d="M64.6172 9.5L67.1567 11.7518C67.6054 12.1497 67.6054 12.8503 67.1567 13.2482L64.6172 15.5" stroke="#5B45FF" stroke-width="1.5" stroke-linecap="round"/>
<path d="M60 12.5L67.7334 12.5" stroke="#5B45FF" stroke-width="1.5" stroke-linecap="round"/>
</svg>
