<svg width="81" height="80" viewBox="0 0 81 80" fill="none" xmlns="http://www.w3.org/2000/svg">
<rect x="0.5" width="80" height="80" rx="40" fill="#4CAF50" fill-opacity="0.25"/>
<g clip-path="url(#clip0_1814_34552)">
<path d="M32.25 48.25C32.25 48.0511 32.329 47.8603 32.4697 47.7197C32.6103 47.579 32.8011 47.5 33 47.5H48C48.1989 47.5 48.3897 47.579 48.5303 47.7197C48.671 47.8603 48.75 48.0511 48.75 48.25C48.75 48.4489 48.671 48.6397 48.5303 48.7803C48.3897 48.921 48.1989 49 48 49H33C32.8011 49 32.6103 48.921 32.4697 48.7803C32.329 48.6397 32.25 48.4489 32.25 48.25ZM31.5 31H49.5C49.5 31 52.5 31 52.5 34V43C52.5 43 52.5 46 49.5 46H31.5C31.5 46 28.5 46 28.5 43V34C28.5 34 28.5 31 31.5 31Z" fill="#8BC255"/>
</g>
<defs>
<clipPath id="clip0_1814_34552">
<rect width="24" height="24" fill="white" transform="translate(28.5 28)"/>
</clipPath>
</defs>
</svg>
