<svg width="27" height="22" viewBox="0 0 27 22" fill="none" xmlns="http://www.w3.org/2000/svg">
<path d="M24.1786 5.66338C24.196 5.89671 24.196 6.12871 24.196 6.36071C24.196 13.4607 18.792 21.642 8.91597 21.642C5.8733 21.642 3.04664 20.7607 0.667969 19.23C1.09997 19.2794 1.51597 19.2967 1.9653 19.2967C4.38263 19.3025 6.7315 18.4942 8.6333 17.002C7.51253 16.9818 6.42607 16.612 5.52562 15.9444C4.62517 15.2767 3.95568 14.3446 3.61064 13.278C3.94264 13.3274 4.27597 13.3607 4.6253 13.3607C5.10664 13.3607 5.59064 13.294 6.03997 13.178C4.82365 12.9325 3.72993 12.2732 2.94479 11.3123C2.15965 10.3514 1.73156 9.14824 1.7333 7.90738V7.84071C2.4493 8.23938 3.27997 8.48871 4.15997 8.52204C3.42275 8.03216 2.81826 7.36741 2.40042 6.5871C1.98258 5.80679 1.76439 4.93518 1.7653 4.05004C1.7653 3.05271 2.03064 2.13804 2.49597 1.34071C3.84549 3.00074 5.52864 4.35879 7.43642 5.32692C9.34419 6.29505 11.4341 6.85166 13.5706 6.96071C13.488 6.56071 13.4373 6.14604 13.4373 5.73004C13.437 5.02466 13.5756 4.32612 13.8454 3.67436C14.1152 3.0226 14.5108 2.43041 15.0096 1.93163C15.5083 1.43284 16.1005 1.03726 16.7523 0.76748C17.404 0.497703 18.1026 0.359025 18.808 0.359376C20.3546 0.359376 21.7506 1.00738 22.732 2.05538C23.9343 1.82287 25.0874 1.38394 26.14 0.758042C25.7392 1.99913 24.8996 3.05151 23.7786 3.71804C24.845 3.59641 25.8872 3.31598 26.8706 2.88604C26.1361 3.95684 25.226 4.89584 24.1786 5.66338Z" fill="white"/>
</svg>
