<svg width="25" height="25" viewBox="0 0 25 25" fill="none" xmlns="http://www.w3.org/2000/svg">
<path fill-rule="evenodd" clip-rule="evenodd" d="M22.2872 11.039C22.1518 11.1706 21.9681 11.2457 21.7747 11.2457C21.059 11.2457 20.4787 11.8095 20.4787 12.4953C20.4787 13.1858 21.0522 13.7467 21.7611 13.7543C22.1605 13.758 22.5 14.0286 22.5 14.4166V16.8265C22.5 18.8549 20.8075 20.5 18.7186 20.5H15.5658C15.2398 20.5 14.9758 20.2435 14.9758 19.9269V17.8975C14.9758 17.5029 14.6567 17.1929 14.2505 17.1929C13.854 17.1929 13.5251 17.5029 13.5251 17.8975V19.9269C13.5251 20.2435 13.2611 20.5 12.9362 20.5H6.28143C4.20213 20.5 2.5 18.8558 2.5 16.8265V14.4166C2.5 14.0286 2.83946 13.758 3.23888 13.7543C3.94874 13.7467 4.52128 13.1858 4.52128 12.4953C4.52128 11.8282 3.96035 11.3209 3.22534 11.3209C3.03191 11.3209 2.84816 11.2457 2.71277 11.1142C2.57737 10.9827 2.5 10.8042 2.5 10.6163V8.18291C2.5 6.15731 4.206 4.5 6.2911 4.5H12.9362C13.2611 4.5 13.5251 4.75649 13.5251 5.07311V7.47827C13.5251 7.86348 13.854 8.18291 14.2505 8.18291C14.6567 8.18291 14.9758 7.86348 14.9758 7.47827V5.07311C14.9758 4.75649 15.2398 4.5 15.5658 4.5H18.7186C20.8075 4.5 22.5 6.14416 22.5 8.17352V10.5411C22.5 10.729 22.4226 10.9075 22.2872 11.039ZM14.2505 15.3702C14.6567 15.3702 14.9758 15.0508 14.9758 14.6656V10.9075C14.9758 10.5223 14.6567 10.2029 14.2505 10.2029C13.854 10.2029 13.5251 10.5223 13.5251 10.9075V14.6656C13.5251 15.0508 13.854 15.3702 14.2505 15.3702Z" fill="#9E9E9E"/>
</svg>
