<svg width="25" height="25" viewBox="0 0 25 25" fill="none" xmlns="http://www.w3.org/2000/svg">
<mask id="mask0_2449_17951" style="mask-type:luminance" maskUnits="userSpaceOnUse" x="2" y="1" width="21" height="23">
<path fill-rule="evenodd" clip-rule="evenodd" d="M2.5 1.5H22.9998V23.005H2.5V1.5Z" fill="white"/>
</mask>
<g mask="url(#mask0_2449_17951)">
<path fill-rule="evenodd" clip-rule="evenodd" d="M14.217 15.7913C15.421 15.7913 16.401 16.7643 16.401 17.9603V21.0362C16.401 21.2932 16.607 21.4992 16.871 21.5052H18.777C20.279 21.5052 21.5 20.2993 21.5 18.8173V10.0933C21.493 9.58325 21.25 9.10325 20.833 8.78425L14.24 3.52625C13.355 2.82525 12.117 2.82525 11.229 3.52825L4.681 8.78225C4.248 9.11125 4.005 9.59125 4 10.1103V18.8173C4 20.2993 5.221 21.5052 6.723 21.5052H8.647C8.918 21.5052 9.138 21.2902 9.138 21.0262C9.138 20.9682 9.145 20.9102 9.157 20.8552V17.9603C9.157 16.7713 10.131 15.7993 11.326 15.7913H14.217ZM18.777 23.0053H16.853C15.751 22.9793 14.901 22.1143 14.901 21.0363V17.9603C14.901 17.5913 14.594 17.2913 14.217 17.2913H11.331C10.962 17.2933 10.657 17.5943 10.657 17.9603V21.0263C10.657 21.1013 10.647 21.1733 10.626 21.2413C10.518 22.2313 9.672 23.0053 8.647 23.0053H6.723C4.394 23.0053 2.5 21.1262 2.5 18.8172V10.1033C2.51 9.10925 2.968 8.19925 3.759 7.60025L10.294 2.35525C11.733 1.21525 13.738 1.21525 15.174 2.35325L21.756 7.60325C22.529 8.19225 22.987 9.10025 23 10.0823V18.8172C23 21.1262 21.106 23.0053 18.777 23.0053Z" fill="#9E9E9E"/>
</g>
</svg>
