<svg width="34" height="30" viewBox="0 0 34 30" fill="none" xmlns="http://www.w3.org/2000/svg">
<path fill-rule="evenodd" clip-rule="evenodd" d="M26.6135 8.96967H33.6654C33.6654 3.30766 30.2728 0 24.5246 0H9.47277C3.72462 0 0.332031 3.30766 0.332031 8.89745V21.1026C0.332031 26.6923 3.72462 30 9.47277 30H24.5246C30.2728 30 33.6654 26.6923 33.6654 21.1026V20.5826H26.6135C23.3407 20.5826 20.6876 17.9959 20.6876 14.805C20.6876 11.6141 23.3407 9.02744 26.6135 9.02744V8.96967ZM26.6135 11.454H32.4209C33.1082 11.454 33.6654 11.9972 33.6654 12.6673V16.8849C33.6574 17.5518 33.1049 18.0904 32.4209 18.0982H26.7468C25.09 18.12 23.6412 17.014 23.2654 15.4405C23.0772 14.4638 23.3414 13.4559 23.9871 12.687C24.6329 11.9181 25.5943 11.4668 26.6135 11.454ZM26.8654 15.8883H27.4135C28.1172 15.8883 28.6876 15.3322 28.6876 14.6461C28.6876 13.9601 28.1172 13.4039 27.4135 13.4039H26.8654C26.5288 13.4001 26.2047 13.5277 25.9653 13.7584C25.726 13.9891 25.5913 14.3035 25.5913 14.6317C25.5912 15.3201 26.1593 15.8804 26.8654 15.8883ZM8.22833 8.96967H17.6357C18.3394 8.96967 18.9098 8.41353 18.9098 7.72749C18.9098 7.04146 18.3394 6.48532 17.6357 6.48532H8.22833C7.53042 6.48527 6.96237 7.03266 6.95425 7.71305C6.95421 8.40146 7.52229 8.96175 8.22833 8.96967Z" fill="url(#paint0_linear_2492_13813)"/>
<defs>
<linearGradient id="paint0_linear_2492_13813" x1="33.6654" y1="30" x2="-5.28972" y2="17.4504" gradientUnits="userSpaceOnUse">
<stop stop-color="#5B45FF"/>
<stop offset="1" stop-color="#AB9FFF"/>
</linearGradient>
</defs>
</svg>
