<svg width="24" height="24" viewBox="0 0 24 24" fill="none" xmlns="http://www.w3.org/2000/svg">
<path fill-rule="evenodd" clip-rule="evenodd" d="M10.2321 4.02857C11.0178 2.65714 12.9822 2.65714 13.7679 4.02857L21.7235 17.9143C22.5092 19.2857 21.527 21 19.9556 21H4.04444C2.47297 21 1.49081 19.2857 2.27654 17.9143L10.2321 4.02857ZM13 17C13 17.5523 12.5523 18 12 18C11.4477 18 11 17.5523 11 17C11 16.4477 11.4477 16 12 16C12.5523 16 13 16.4477 13 17ZM12.75 8C12.75 7.58579 12.4142 7.25 12 7.25C11.5858 7.25 11.25 7.58579 11.25 8V14C11.25 14.4142 11.5858 14.75 12 14.75C12.4142 14.75 12.75 14.4142 12.75 14V8Z" fill="#FACC15"/>
</svg>
